SplineFontDB: 3.0
FontName: Boon-500i
FullName: Boon 500 Oblique
FamilyName: Boon
Weight: 500
Copyright: Copyright 2013-2015, Sungsit Sawaiwan (https://fontuni.com | uni@fontuni.com). This Font Software is licensed under the SIL Open Font License, Version 1.1 (http://scripts.sil.org/OFL).
Version: 1.0-beta2
ItalicAngle: -9
UnderlinePosition: -120
UnderlineWidth: 60
Ascent: 960
Descent: 240
InvalidEm: 0
woffMajor: 1
woffMinor: 0
UFOAscent: 960
UFODescent: -240
LayerCount: 2
Layer: 0 0 "Back" 1
Layer: 1 0 "Fore" 0
StyleMap: 0x0000
FSType: 0
OS2Version: 0
OS2_WeightWidthSlopeOnly: 0
OS2_UseTypoMetrics: 0
CreationTime: 1369324892
ModificationTime: 1445537297
PfmFamily: 33
TTFWeight: 500
TTFWidth: 5
LineGap: 90
VLineGap: 0
OS2TypoAscent: 960
OS2TypoAOffset: 0
OS2TypoDescent: -240
OS2TypoDOffset: 0
OS2TypoLinegap: 90
OS2WinAscent: 1320
OS2WinAOffset: 0
OS2WinDescent: 480
OS2WinDOffset: 0
HheadAscent: 1320
HheadAOffset: 0
HheadDescent: -480
HheadDOffset: 0
OS2CapHeight: 780
OS2XHeight: 600
OS2Vendor: 'FUni'
Lookup: 1 0 0 "ThaiRC.rd" { "ThaiRC.rd subtable"  } ['ss01' ('thai' <'dflt' > ) 'salt' ('thai' <'dflt' > ) 'ccmp' ('thai' <'PAL ' 'SAN ' > ) 'locl' ('thai' <'PAL ' 'SAN ' > ) ]
Lookup: 6 0 0 "ThaiContextRC.rd" { "ThaiContextRC.rd subtable"  } ['ccmp' ('thai' <'dflt' > ) ]
Lookup: 2 0 0 "ThaiDecomp" { "ThaiDecomp subtable"  } ['ccmp' ('thai' <'dflt' > ) ]
Lookup: 1 0 0 "ThaiT.0E4D" { "ThaiT.0E4D subtable"  } []
Lookup: 1 0 0 "Thai0E4D.0E48" { "Thai0E4D.0E48 subtable"  } []
Lookup: 1 0 0 "Thai0E4D.0E49" { "Thai0E4D.0E49 subtable"  } []
Lookup: 1 0 0 "Thai0E4D.0E4A" { "Thai0E4D.0E4A subtable"  } []
Lookup: 1 0 0 "Thai0E4D.0E4B" { "Thai0E4D.0E4B subtable"  } []
Lookup: 6 0 0 "ThaiContext.ro" { "ThaiContext.ro contextual 0"  "ThaiContext.ro contextual 1"  "ThaiContext.ro contextual 2"  "ThaiContext.ro contextual 3"  } ['ccmp' ('thai' <'dflt' > ) ]
Lookup: 1 0 0 "Thai.sd" { "Thai.sd subtable"  } []
Lookup: 1 0 0 "ThaiBV.sd" { "ThaiBV.sd subtable"  } []

StartChar: .notdef
Encoding: 844 -1 0
GlifName: _notdef
Width: 660
VWidth: 0
Flags: MW
LayerCount: 2
Fore
SplineSet
35 0 m 1
 130 600 l 1
 365 600 l 1
 600 600 l 1
 505 0 l 1
 270 0 l 1
 35 0 l 1
284 86 m 1
 412 86 l 1
 479 514 l 1
 351 514 l 1
 223 514 l 1
 156 86 l 1
 284 86 l 1
EndSplineSet
PickledDataWithLists: "(dp0
Vcom.fontlab.hintData
p1
(dp2
Vvhints
p3
(lp4
(dp5
Vposition
p6
L160L
sVwidth
p7
L10L
sa(dp8
g6
L190L
sg7
L10L
sa(dp9
g6
L520L
sg7
L10L
sa(dp10
g6
L550L
sg7
L10L
sasVhhints
p11
(lp12
(dp13
g6
L0L
sg7
L10L
sa(dp14
g6
L30L
sg7
L10L
sa(dp15
g6
L560L
sg7
L10L
sa(dp16
g6
L590L
sg7
L10L
sass."
EndChar

StartChar: exclam
Encoding: 4 33 5
GlifName: exclam
Width: 330
VWidth: 0
Flags: MW
LayerCount: 2
Fore
SplineSet
128 144 m 0
 169 144 197 121 197 83 c 0
 197 79 197 74 196 70 c 0
 189 24 149 -4 104 -4 c 0
 63 -4 35 19 35 57 c 0
 35 61 35 66 36 70 c 0
 43 116 83 144 128 144 c 0
164 810 m 1
 302 810 l 1
 188 270 l 1
 108 270 l 1
 164 810 l 1
EndSplineSet
PickledDataWithLists: "(dp0
Vcom.fontlab.hintData
p1
(dp2
Vvhints
p3
(lp4
(dp5
Vposition
p6
L81L
sVwidth
p7
L10L
sa(dp8
g6
L101L
sg7
L10L
sa(dp9
g6
L125L
sg7
L10L
sa(dp10
g6
L195L
sg7
L10L
sa(dp11
g6
L210L
sg7
L10L
sa(dp12
g6
L239L
sg7
L10L
sasVhhints
p13
(lp14
(dp15
g6
L-5L
sg7
L10L
sa(dp16
g6
L122L
sg7
L10L
sa(dp17
g6
L268L
sg7
L10L
sa(dp18
g6
L826L
sg7
L10L
sass."
EndChar

StartChar: quotedbl
Encoding: 5 34 6
GlifName: quotedbl
Width: 540
VWidth: 0
Flags: MW
LayerCount: 2
Fore
SplineSet
188 900 m 1
 298 900 l 1
 223 540 l 1
 150 540 l 1
 188 900 l 1
408 900 m 1
 518 900 l 1
 443 540 l 1
 370 540 l 1
 408 900 l 1
EndSplineSet
PickledDataWithLists: "(dp0
Vcom.fontlab.hintData
p1
(dp2
Vvhints
p3
(lp4
(dp5
Vposition
p6
L107L
sVwidth
p7
L10L
sa(dp8
g6
L196L
sg7
L10L
sa(dp9
g6
L304L
sg7
L10L
sa(dp10
g6
L313L
sg7
L10L
sa(dp11
g6
L393L
sg7
L10L
sasVhhints
p12
(lp13
(dp14
g6
L548L
sg7
L10L
sa(dp15
g6
L553L
sg7
L10L
sa(dp16
g6
L829L
sg7
L10L
sass."
EndChar

StartChar: numbersign
Encoding: 6 35 7
GlifName: numbersign
Width: 810
VWidth: 0
Flags: MW
LayerCount: 2
Fore
SplineSet
23 206 m 1
 35 284 l 1
 171 284 l 1
 263 496 l 1
 129 496 l 1
 141 574 l 1
 296 574 l 1
 384 780 l 1
 477 780 l 1
 389 574 l 1
 583 574 l 1
 671 780 l 1
 764 780 l 1
 676 574 l 1
 791 574 l 1
 779 496 l 1
 643 496 l 1
 551 284 l 1
 685 284 l 1
 673 206 l 1
 518 206 l 1
 430 0 l 1
 337 0 l 1
 425 206 l 1
 231 206 l 1
 143 0 l 1
 50 0 l 1
 138 206 l 1
 23 206 l 1
356 496 m 1
 264 284 l 1
 458 284 l 1
 550 496 l 1
 356 496 l 1
EndSplineSet
PickledDataWithLists: "(dp0
Vcom.fontlab.hintData
p1
(dp2
Vvhints
p3
(lp4
(dp5
Vposition
p6
L111L
sVwidth
p7
L10L
sa(dp8
g6
L329L
sg7
L10L
sa(dp9
g6
L381L
sg7
L10L
sa(dp10
g6
L599L
sg7
L10L
sa(dp11
g6
L649L
sg7
L10L
sa(dp12
g6
L689L
sg7
L10L
sasVhhints
p13
(lp14
(dp15
g6
L-29L
sg7
L10L
sa(dp16
g6
L-19L
sg7
L10L
sa(dp17
g6
L241L
sg7
L7L
sa(dp18
g6
L284L
sg7
L10L
sa(dp19
g6
L521L
sg7
L7L
sa(dp20
g6
L564L
sg7
L10L
sa(dp21
g6
L819L
sg7
L10L
sa(dp22
g6
L829L
sg7
L10L
sass."
EndChar

StartChar: dollar
Encoding: 7 36 8
GlifName: dollar
Width: 660
VWidth: 0
Flags: MW
LayerCount: 2
Fore
SplineSet
29 185 m 1
 147 192 l 1
 147 128 194 72 282 72 c 0
 376 72 441 115 455 203 c 0
 456 211 457 219 457 226 c 0
 457 288 410 313 384 323 c 0
 336 339 267 368 220 388 c 0
 164 413 107 462 107 547 c 0
 107 558 108 569 110 581 c 0
 127 686 215 778 357 792 c 1
 375 900 l 1
 461 900 l 1
 443 791 l 1
 579 771 618 666 618 600 c 1
 500 591 l 1
 500 656 460 708 383 708 c 0
 310 708 241 668 227 581 c 0
 226 575 225 569 225 563 c 0
 225 509 270 485 303 471 c 0
 350 451 415 423 457 409 c 0
 520 387 575 338 575 245 c 0
 575 232 574 218 572 203 c 0
 555 98 468 4 316 -12 c 1
 299 -120 l 1
 213 -120 l 1
 230 -12 l 1
 78 4 29 113 29 183 c 0
 29 184 29 184 29 185 c 1
EndSplineSet
PickledDataWithLists: "(dp0
Vcom.fontlab.hintData
p1
(dp2
Vvhints
p3
(lp4
(dp5
Vposition
p6
L70L
sVwidth
p7
L10L
sa(dp8
g6
L78L
sg7
L10L
sa(dp9
g6
L169L
sg7
L10L
sa(dp10
g6
L319L
sg7
L10L
sa(dp11
g6
L323L
sg7
L10L
sa(dp12
g6
L382L
sg7
L10L
sa(dp13
g6
L392L
sg7
L10L
sa(dp14
g6
L504L
sg7
L10L
sa(dp15
g6
L565L
sg7
L10L
sa(dp16
g6
L604L
sg7
L10L
sa(dp17
g6
L664L
sg7
L10L
sasVhhints
p18
(lp19
(dp20
g6
L-127L
sg7
L10L
sa(dp21
g6
L46L
sg7
L10L
sa(dp22
g6
L192L
sg7
L10L
sa(dp23
g6
L584L
sg7
L10L
sa(dp24
g6
L812L
sg7
L10L
sa(dp25
g6
L916L
sg7
L10L
sass."
EndChar

StartChar: percent
Encoding: 8 37 9
GlifName: percent
Width: 780
VWidth: 0
Flags: MW
LayerCount: 2
Fore
SplineSet
15 0 m 1
 16 6 l 1
 695 780 l 1
 769 780 l 1
 768 774 l 1
 89 0 l 1
 15 0 l 1
57 576 m 2
 60 594 l 2
 73 678 114 790 230 790 c 0
 320 790 343 723 343 654 c 0
 343 634 341 613 338 594 c 2
 335 576 l 2
 322 492 281 380 165 380 c 0
 75 380 52 447 52 516 c 0
 52 536 54 557 57 576 c 2
173 432 m 0
 211 432 248 480 263 576 c 2
 266 594 l 2
 269 615 271 634 271 651 c 0
 271 709 252 738 222 738 c 0
 184 738 147 690 132 594 c 2
 129 576 l 2
 126 555 124 536 124 519 c 0
 124 461 143 432 173 432 c 0
445 186 m 2
 448 204 l 2
 461 288 502 400 618 400 c 0
 708 400 731 333 731 264 c 0
 731 244 729 223 726 204 c 2
 723 186 l 2
 710 102 669 -10 553 -10 c 0
 463 -10 440 57 440 126 c 0
 440 146 442 167 445 186 c 2
562 42 m 0
 600 42 636 90 651 186 c 2
 654 204 l 2
 657 225 659 244 659 261 c 0
 659 319 640 348 610 348 c 0
 572 348 535 300 520 204 c 2
 517 186 l 2
 514 165 512 147 512 131 c 0
 512 72 532 42 562 42 c 0
EndSplineSet
PickledDataWithLists: "(dp0
Vcom.fontlab.hintData
p1
(dp2
Vvhints
p3
(lp4
(dp5
Vposition
p6
L50L
sVwidth
p7
L10L
sa(dp8
g6
L70L
sg7
L10L
sa(dp9
g6
L120L
sg7
L10L
sa(dp10
g6
L246L
sg7
L10L
sa(dp11
g6
L290L
sg7
L10L
sa(dp12
g6
L320L
sg7
L10L
sa(dp13
g6
L360L
sg7
L10L
sa(dp14
g6
L410L
sg7
L10L
sa(dp15
g6
L480L
sg7
L10L
sa(dp16
g6
L606L
sg7
L10L
sa(dp17
g6
L650L
sg7
L10L
sa(dp18
g6
L680L
sg7
L10L
sa(dp19
g6
L699L
sg7
L10L
sa(dp20
g6
L720L
sg7
L10L
sasVhhints
p21
(lp22
(dp23
g6
L-14L
sg7
L10L
sa(dp24
g6
L6L
sg7
L10L
sa(dp25
g6
L34L
sg7
L10L
sa(dp26
g6
L369L
sg7
L10L
sa(dp27
g6
L374L
sg7
L10L
sa(dp28
g6
L416L
sg7
L10L
sa(dp29
g6
L422L
sg7
L10L
sa(dp30
g6
L757L
sg7
L10L
sa(dp31
g6
L784L
sg7
L10L
sa(dp32
g6
L804L
sg7
L10L
sass."
EndChar

StartChar: ampersand
Encoding: 9 38 10
GlifName: ampersand
Width: 810
VWidth: 0
Flags: MW
LayerCount: 2
Fore
SplineSet
612 153 m 1
 678 71 731 6 731 6 c 2
 730 0 l 1
 597 0 l 1
 597 0 571 33 534 81 c 1
 454 20 357 -19 250 -19 c 0
 98 -19 30 53 30 142 c 0
 30 152 30 161 32 171 c 0
 50 284 164 364 271 426 c 1
 241 475 219 535 219 592 c 0
 219 602 219 612 221 622 c 0
 239 735 325 799 430 799 c 0
 538 799 582 737 582 671 c 0
 582 663 581 655 580 647 c 0
 565 553 499 476 402 415 c 1
 441 365 501 291 559 219 c 1
 601 275 629 341 647 410 c 1
 745 396 l 1
 724 311 677 225 612 153 c 1
486 143 m 1
 429 217 360 304 316 364 c 1
 218 301 159 237 149 171 c 0
 148 164 147 157 147 151 c 0
 147 97 190 68 264 68 c 0
 353 68 427 97 486 143 c 1
417 722 m 0
 361 722 332 674 323 619 c 0
 322 612 321 605 321 598 c 0
 321 560 336 517 359 478 c 1
 430 528 471 589 480 647 c 0
 481 653 481 658 481 663 c 0
 481 701 457 722 417 722 c 0
EndSplineSet
PickledDataWithLists: "(dp0
Vcom.fontlab.hintData
p1
(dp2
Vvhints
p3
(lp4
(dp5
Vposition
p6
L66L
sVwidth
p7
L10L
sa(dp8
g6
L164L
sg7
L10L
sa(dp9
g6
L202L
sg7
L10L
sa(dp10
g6
L296L
sg7
L10L
sa(dp11
g6
L450L
sg7
L10L
sa(dp12
g6
L538L
sg7
L10L
sa(dp13
g6
L695L
sg7
L10L
sa(dp14
g6
L749L
sg7
L10L
sasVhhints
p15
(lp16
(dp17
g6
L-25L
sg7
L10L
sa(dp18
g6
L39L
sg7
L10L
sa(dp19
g6
L389L
sg7
L10L
sa(dp20
g6
L734L
sg7
L10L
sa(dp21
g6
L796L
sg7
L10L
sass."
EndChar

StartChar: quotesingle
Encoding: 10 39 11
GlifName: quotesingle
Width: 330
VWidth: 0
Flags: MW
LayerCount: 2
Fore
SplineSet
193 900 m 1
 303 900 l 1
 228 540 l 1
 155 540 l 1
 193 900 l 1
EndSplineSet
PickledDataWithLists: "(dp0
Vcom.fontlab.hintData
p1
(dp2
Vvhints
p3
(lp4
(dp5
Vposition
p6
L110L
sVwidth
p7
L10L
sa(dp8
g6
L209L
sg7
L10L
sasVhhints
p9
(lp10
(dp11
g6
L544L
sg7
L10L
sa(dp12
g6
L832L
sg7
L10L
sass."
EndChar

StartChar: parenleft
Encoding: 11 40 12
GlifName: parenleft
Width: 390
VWidth: 0
Flags: MW
LayerCount: 2
Fore
SplineSet
67 390 m 0
 102 611 204 785 333 911 c 1
 401 882 l 1
 285 764 204 599 171 390 c 0
 162 333 158 279 158 228 c 0
 158 94 188 -16 245 -102 c 1
 168 -131 l 1
 99 -33 55 92 55 247 c 0
 55 292 59 340 67 390 c 0
EndSplineSet
PickledDataWithLists: "(dp0
Vcom.fontlab.hintData
p1
(dp2
Vvhints
p3
(lp4
(dp5
Vposition
p6
L55L
sVwidth
p7
L10L
sa(dp8
g6
L135L
sg7
L10L
sa(dp9
g6
L270L
sg7
L10L
sasVhhints
p10
(lp11
(dp12
g6
L-112L
sg7
L10L
sa(dp13
g6
L882L
sg7
L10L
sass."
Substitution2: "Latin.subs subtable" parenleft.subs
Substitution2: "Latin.subs subtable" parenleft.subs
Substitution2: "Latin.sups subtable" parenleft.sups
Substitution2: "Latin.sups subtable" parenleft.sups
EndChar

StartChar: parenright
Encoding: 12 41 13
GlifName: parenright
Width: 390
VWidth: 0
Flags: MW
LayerCount: 2
Fore
SplineSet
327 390 m 0
 292 169 189 -5 60 -131 c 1
 -7 -102 l 1
 109 16 190 181 223 390 c 0
 232 447 236 501 236 552 c 0
 236 686 206 796 149 882 c 1
 225 911 l 1
 294 813 338 686 338 531 c 0
 338 486 335 439 327 390 c 0
EndSplineSet
PickledDataWithLists: "(dp0
Vcom.fontlab.hintData
p1
(dp2
Vvhints
p3
(lp4
(dp5
Vposition
p6
L79L
sVwidth
p7
L10L
sa(dp8
g6
L215L
sg7
L10L
sa(dp9
g6
L295L
sg7
L10L
sasVhhints
p10
(lp11
(dp12
g6
L-112L
sg7
L10L
sa(dp13
g6
L882L
sg7
L10L
sass."
Substitution2: "Latin.subs subtable" parenright.subs
Substitution2: "Latin.subs subtable" parenright.subs
Substitution2: "Latin.sups subtable" parenright.sups
Substitution2: "Latin.sups subtable" parenright.sups
EndChar

StartChar: asterisk
Encoding: 13 42 14
GlifName: asterisk
Width: 570
VWidth: 0
Flags: MW
LayerCount: 2
Fore
SplineSet
95 690 m 1
 140 785 l 1
 308 705 l 1
 318 900 l 1
 418 900 l 1
 366 705 l 1
 557 785 l 1
 573 690 l 1
 375 650 l 1
 484 504 l 1
 394 446 l 1
 323 616 l 1
 197 446 l 1
 126 504 l 1
 280 650 l 1
 95 690 l 1
EndSplineSet
PickledDataWithLists: "(dp0
Vcom.fontlab.hintData
p1
(dp2
Vvhints
p3
(lp4
(dp5
Vposition
p6
L84L
sVwidth
p7
L10L
sa(dp8
g6
L89L
sg7
L10L
sa(dp9
g6
L256L
sg7
L10L
sa(dp10
g6
L265L
sg7
L10L
sa(dp11
g6
L272L
sg7
L10L
sa(dp12
g6
L326L
sg7
L10L
sa(dp13
g6
L335L
sg7
L10L
sa(dp14
g6
L501L
sg7
L10L
sa(dp15
g6
L506L
sg7
L10L
sasVhhints
p16
(lp17
(dp18
g6
L392L
sg7
L10L
sa(dp19
g6
L488L
sg7
L10L
sa(dp20
g6
L495L
sg7
L10L
sa(dp21
g6
L735L
sg7
L10L
sa(dp22
g6
L742L
sg7
L10L
sa(dp23
g6
L839L
sg7
L10L
sass."
EndChar

StartChar: plus
Encoding: 14 43 15
GlifName: plus
Width: 600
VWidth: 0
Flags: MW
LayerCount: 2
Fore
SplineSet
81 320 m 1
 93 400 l 1
 249 400 l 1
 275 560 l 1
 382 560 l 1
 356 400 l 1
 513 400 l 1
 501 320 l 1
 344 320 l 1
 318 160 l 1
 211 160 l 1
 237 320 l 1
 81 320 l 1
EndSplineSet
PickledDataWithLists: "(dp0
Vcom.fontlab.hintData
p1
(dp2
Vvhints
p3
(lp4
(dp5
Vposition
p6
L80L
sVwidth
p7
L10L
sa(dp8
g6
L250L
sg7
L10L
sa(dp9
g6
L259L
sg7
L10L
sa(dp10
g6
L340L
sg7
L10L
sa(dp11
g6
L510L
sg7
L10L
sasVhhints
p12
(lp13
(dp14
g6
L145L
sg7
L10L
sa(dp15
g6
L302L
sg7
L10L
sa(dp16
g6
L362L
sg7
L10L
sa(dp17
g6
L370L
sg7
L10L
sa(dp18
g6
L525L
sg7
L10L
sass."
EndChar

StartChar: comma
Encoding: 15 44 16
GlifName: comma
Width: 330
VWidth: 0
Flags: MW
LayerCount: 2
Fore
SplineSet
36 68 m 0
 43 113 79 146 128 146 c 0
 185 146 207 106 207 59 c 0
 207 50 206 41 205 32 c 0
 188 -78 102 -157 28 -200 c 1
 1 -153 l 1
 53 -123 101 -73 122 -2 c 1
 116 -3 108 -4 101 -4 c 0
 62 -4 35 18 35 55 c 0
 35 59 35 64 36 68 c 0
EndSplineSet
PickledDataWithLists: "(dp0
Vcom.fontlab.hintData
p1
(dp2
Vvhints
p3
(lp4
(dp5
Vposition
p6
L61L
sVwidth
p7
L10L
sa(dp8
g6
L170L
sg7
L10L
sa(dp9
g6
L251L
sg7
L10L
sasVhhints
p10
(lp11
(dp12
g6
L-182L
sg7
L10L
sa(dp13
g6
L48L
sg7
L10L
sa(dp14
g6
L117L
sg7
L10L
sass."
EndChar

StartChar: hyphen
Encoding: 16 45 17
GlifName: hyphen
Width: 600
VWidth: 0
Flags: MW
LayerCount: 2
Fore
SplineSet
94 403 m 1
 514 403 l 1
 500 317 l 1
 80 317 l 1
 94 403 l 1
EndSplineSet
PickledDataWithLists: "(dp0
Vcom.fontlab.hintData
p1
(dp2
Vvhints
p3
(lp4
(dp5
Vposition
p6
L75L
sVwidth
p7
L10L
sa(dp8
g6
L514L
sg7
L10L
sasVhhints
p9
(lp10
(dp11
g6
L301L
sg7
L10L
sa(dp12
g6
L363L
sg7
L10L
sa(dp13
g6
L371L
sg7
L10L
sass."
EndChar

StartChar: period
Encoding: 17 46 18
GlifName: period
Width: 330
VWidth: 0
Flags: MW
LayerCount: 2
Fore
SplineSet
128 144 m 0
 169 144 197 121 197 83 c 0
 197 79 197 74 196 70 c 0
 189 24 149 -4 104 -4 c 0
 63 -4 35 19 35 57 c 0
 35 61 35 66 36 70 c 0
 43 116 83 144 128 144 c 0
EndSplineSet
PickledDataWithLists: "(dp0
Vcom.fontlab.hintData
p1
(dp2
Vvhints
p3
(lp4
(dp5
Vposition
p6
L81L
sVwidth
p7
L10L
sa(dp8
g6
L239L
sg7
L10L
sasVhhints
p9
(lp10
(dp11
g6
L-5L
sg7
L10L
sa(dp12
g6
L122L
sg7
L10L
sass."
EndChar

StartChar: slash
Encoding: 18 47 19
GlifName: slash
Width: 510
VWidth: 0
Flags: MW
LayerCount: 2
Fore
SplineSet
-20 0 m 1
 -19 6 l 1
 432 780 l 1
 534 780 l 1
 533 774 l 1
 83 0 l 1
 -20 0 l 1
EndSplineSet
PickledDataWithLists: "(dp0
Vcom.fontlab.hintData
p1
(dp2
Vvhints
p3
(lp4
(dp5
Vposition
p6
L41L
sVwidth
p7
L10L
sa(dp8
g6
L429L
sg7
L10L
sasVhhints
p9
(lp10
(dp11
g6
L-29L
sg7
L10L
sa(dp12
g6
L818L
sg7
L10L
sass."
Substitution2: "LatinSlash.frac subtable" fraction
EndChar

StartChar: zero
Encoding: 19 48 20
GlifName: zero
Width: 660
VWidth: 0
Flags: MW
LayerCount: 2
Fore
SplineSet
59 373 m 2
 64 407 l 2
 92 581 175 799 397 799 c 0
 568 799 615 671 615 532 c 0
 615 490 610 447 604 407 c 2
 599 373 l 2
 571 199 489 -19 267 -19 c 0
 96 -19 48 110 48 249 c 0
 48 290 53 333 59 373 c 2
281 68 m 0
 373 68 450 180 481 373 c 2
 486 407 l 2
 493 449 496 488 496 522 c 0
 496 644 455 712 383 712 c 0
 291 712 213 600 182 407 c 2
 177 373 l 2
 170 331 167 293 167 259 c 0
 167 137 209 68 281 68 c 0
EndSplineSet
PickledDataWithLists: "(dp0
Vcom.fontlab.hintData
p1
(dp2
Vvhints
p3
(lp4
(dp5
Vposition
p6
L66L
sVwidth
p7
L10L
sa(dp8
g6
L164L
sg7
L10L
sa(dp9
g6
L456L
sg7
L10L
sa(dp10
g6
L546L
sg7
L10L
sa(dp11
g6
L564L
sg7
L10L
sa(dp12
g6
L644L
sg7
L10L
sasVhhints
p13
(lp14
(dp15
g6
L-24L
sg7
L10L
sa(dp16
g6
L46L
sg7
L10L
sa(dp17
g6
L742L
sg7
L10L
sa(dp18
g6
L811L
sg7
L10L
sass."
Substitution2: "Latin.dnom subtable" zero.dnom
Substitution2: "Latin.numr subtable" zero.numr
Substitution2: "Latin.subs subtable" zero.subs
Substitution2: "Latin.sups subtable" zero.sups
Substitution2: "Latin.pnum subtable" zero.pnum
EndChar

StartChar: one
Encoding: 20 49 21
GlifName: one
Width: 660
VWidth: 0
Flags: MW
LayerCount: 2
Fore
SplineSet
135 630 m 1
 422 786 l 1
 504 777 l 1
 396 93 l 1
 545 93 l 1
 530 0 l 1
 75 0 l 1
 90 93 l 1
 280 93 l 1
 369 656 l 1
 171 545 l 1
 135 630 l 1
EndSplineSet
PickledDataWithLists: "(dp0
Vcom.fontlab.hintData
p1
(dp2
Vvhints
p3
(lp4
(dp5
Vposition
p6
L126L
sVwidth
p7
L10L
sa(dp8
g6
L364L
sg7
L10L
sa(dp9
g6
L371L
sg7
L10L
sa(dp10
g6
L462L
sg7
L10L
sa(dp11
g6
L469L
sg7
L10L
sa(dp12
g6
L677L
sg7
L10L
sasVhhints
p13
(lp14
(dp15
g6
L-19L
sg7
L10L
sa(dp16
g6
L-9L
sg7
L10L
sa(dp17
g6
L49L
sg7
L10L
sa(dp18
g6
L57L
sg7
L10L
sa(dp19
g6
L591L
sg7
L10L
sa(dp20
g6
L802L
sg7
L10L
sass."
Substitution2: "Latin.dnom subtable" one.dnom
Substitution2: "Latin.numr subtable" one.numr
Substitution2: "Latin.subs subtable" one.subs
Substitution2: "Latin.sups subtable" one.sups
Substitution2: "Latin.pnum subtable" one.pnum
EndChar

StartChar: two
Encoding: 21 50 22
GlifName: two
Width: 660
VWidth: 0
Flags: MW
LayerCount: 2
Fore
SplineSet
17 44 m 0
 45 220 208 323 328 395 c 0
 413 446 486 496 499 577 c 0
 501 587 502 597 502 607 c 0
 502 660 476 712 385 712 c 0
 311 712 253 654 233 599 c 1
 114 610 l 1
 139 681 231 799 397 799 c 0
 582 799 617 686 617 612 c 0
 617 599 616 587 614 577 c 0
 594 450 472 370 389 320 c 0
 282 255 188 193 156 93 c 1
 545 93 l 1
 530 0 l 1
 16 0 l 1
 16 0 15 7 15 18 c 0
 15 25 15 34 17 44 c 0
EndSplineSet
PickledDataWithLists: "(dp0
Vcom.fontlab.hintData
p1
(dp2
Vvhints
p3
(lp4
(dp5
Vposition
p6
L71L
sVwidth
p7
L10L
sa(dp8
g6
L81L
sg7
L10L
sa(dp9
g6
L501L
sg7
L10L
sa(dp10
g6
L599L
sg7
L10L
sa(dp11
g6
L639L
sg7
L10L
sasVhhints
p12
(lp13
(dp14
g6
L-13L
sg7
L10L
sa(dp15
g6
L61L
sg7
L10L
sa(dp16
g6
L74L
sg7
L10L
sa(dp17
g6
L620L
sg7
L10L
sa(dp18
g6
L740L
sg7
L10L
sa(dp19
g6
L809L
sg7
L10L
sass."
Substitution2: "Latin.dnom subtable" two.dnom
Substitution2: "Latin.numr subtable" two.numr
Substitution2: "Latin.subs subtable" two.subs
Substitution2: "Latin.sups subtable" two.sups
Substitution2: "Latin.pnum subtable" two.pnum
EndChar

StartChar: three
Encoding: 22 51 23
GlifName: three
Width: 660
VWidth: 0
Flags: MW
LayerCount: 2
Fore
SplineSet
1 131 m 1
 120 153 l 1
 126 122 152 67 254 67 c 0
 385 67 429 150 439 215 c 0
 440 224 441 233 441 242 c 0
 441 298 408 347 307 347 c 2
 202 347 l 1
 216 433 l 1
 309 433 l 2
 384 433 458 488 472 577 c 0
 474 587 475 597 475 607 c 0
 475 660 449 712 358 712 c 0
 284 712 226 654 206 599 c 1
 88 610 l 1
 113 681 204 799 370 799 c 0
 556 799 591 685 591 611 c 0
 591 598 589 587 588 577 c 0
 574 490 516 435 456 402 c 1
 538 372 562 305 562 250 c 0
 562 240 561 230 560 221 c 0
 547 142 480 -19 240 -19 c 0
 60 -19 10 87 1 131 c 1
EndSplineSet
PickledDataWithLists: "(dp0
Vcom.fontlab.hintData
p1
(dp2
Vvhints
p3
(lp4
(dp5
Vposition
p6
L66L
sVwidth
p7
L10L
sa(dp8
g6
L76L
sg7
L10L
sa(dp9
g6
L203L
sg7
L10L
sa(dp10
g6
L491L
sg7
L10L
sa(dp11
g6
L546L
sg7
L10L
sa(dp12
g6
L589L
sg7
L10L
sa(dp13
g6
L644L
sg7
L10L
sasVhhints
p14
(lp15
(dp16
g6
L-27L
sg7
L10L
sa(dp17
g6
L44L
sg7
L10L
sa(dp18
g6
L150L
sg7
L10L
sa(dp19
g6
L361L
sg7
L10L
sa(dp20
g6
L372L
sg7
L10L
sa(dp21
g6
L630L
sg7
L10L
sa(dp22
g6
L741L
sg7
L10L
sa(dp23
g6
L810L
sg7
L10L
sass."
Substitution2: "Latin.dnom subtable" three.dnom
Substitution2: "Latin.numr subtable" three.numr
Substitution2: "Latin.subs subtable" three.subs
Substitution2: "Latin.sups subtable" three.sups
Substitution2: "Latin.pnum subtable" three.pnum
EndChar

StartChar: four
Encoding: 23 52 24
GlifName: four
Width: 660
VWidth: 0
Flags: MW
LayerCount: 2
Fore
SplineSet
362 197 m 1
 10 197 l 1
 10 253 l 1
 471 786 l 1
 568 777 l 1
 490 283 l 1
 615 283 l 1
 601 197 l 1
 476 197 l 1
 445 0 l 1
 331 0 l 1
 362 197 l 1
380 283 m 1
 434 626 l 1
 142 283 l 1
 380 283 l 1
EndSplineSet
PickledDataWithLists: "(dp0
Vcom.fontlab.hintData
p1
(dp2
Vvhints
p3
(lp4
(dp5
Vposition
p6
L31L
sVwidth
p7
L10L
sa(dp8
g6
L276L
sg7
L10L
sa(dp9
g6
L374L
sg7
L10L
sa(dp10
g6
L455L
sg7
L10L
sa(dp11
g6
L554L
sg7
L10L
sa(dp12
g6
L679L
sg7
L10L
sasVhhints
p13
(lp14
(dp15
g6
L-30L
sg7
L10L
sa(dp16
g6
L174L
sg7
L10L
sa(dp17
g6
L243L
sg7
L10L
sa(dp18
g6
L259L
sg7
L10L
sa(dp19
g6
L609L
sg7
L10L
sa(dp20
g6
L819L
sg7
L10L
sass."
Substitution2: "Latin.dnom subtable" four.dnom
Substitution2: "Latin.numr subtable" four.numr
Substitution2: "Latin.subs subtable" four.subs
Substitution2: "Latin.sups subtable" four.sups
Substitution2: "Latin.pnum subtable" four.pnum
EndChar

StartChar: five
Encoding: 24 53 25
GlifName: five
Width: 660
VWidth: 0
Flags: MW
LayerCount: 2
Fore
SplineSet
21 131 m 1
 141 153 l 1
 147 122 172 67 274 67 c 0
 405 67 449 159 461 234 c 0
 463 249 465 265 465 280 c 0
 465 344 438 402 344 402 c 0
 274 402 208 352 172 308 c 1
 171 310 l 1
 170 308 l 1
 90 354 l 1
 172 780 l 1
 622 780 l 1
 608 694 l 1
 268 694 l 1
 219 436 l 1
 259 461 313 484 379 484 c 0
 550 484 586 365 586 283 c 0
 586 267 585 253 583 241 c 0
 570 157 500 -19 260 -19 c 0
 80 -19 30 87 21 131 c 1
EndSplineSet
PickledDataWithLists: "(dp0
Vcom.fontlab.hintData
p1
(dp2
Vvhints
p3
(lp4
(dp5
Vposition
p6
L76L
sVwidth
p7
L10L
sa(dp8
g6
L106L
sg7
L10L
sa(dp9
g6
L125L
sg7
L10L
sa(dp10
g6
L226L
sg7
L10L
sa(dp11
g6
L541L
sg7
L10L
sa(dp12
g6
L614L
sg7
L10L
sa(dp13
g6
L639L
sg7
L10L
sasVhhints
p14
(lp15
(dp16
g6
L-26L
sg7
L10L
sa(dp17
g6
L43L
sg7
L10L
sa(dp18
g6
L150L
sg7
L10L
sa(dp19
g6
L334L
sg7
L10L
sa(dp20
g6
L409L
sg7
L10L
sa(dp21
g6
L477L
sg7
L10L
sa(dp22
g6
L716L
sg7
L10L
sa(dp23
g6
L784L
sg7
L10L
sa(dp24
g6
L795L
sg7
L10L
sass."
Substitution2: "Latin.dnom subtable" five.dnom
Substitution2: "Latin.numr subtable" five.numr
Substitution2: "Latin.subs subtable" five.subs
Substitution2: "Latin.sups subtable" five.sups
Substitution2: "Latin.pnum subtable" five.pnum
EndChar

StartChar: six
Encoding: 25 54 26
GlifName: six
Width: 660
VWidth: 0
Flags: MW
LayerCount: 2
Fore
SplineSet
67 297 m 2
 89 436 l 2
 109 562 170 799 410 799 c 0
 585 799 620 682 626 639 c 1
 508 620 l 1
 502 658 481 712 396 712 c 0
 285 712 230 590 206 436 c 2
 204 425 l 1
 249 461 307 483 376 483 c 0
 528 483 586 384 586 280 c 0
 586 264 584 248 582 233 c 0
 561 98 452 -19 280 -19 c 0
 130 -19 60 68 60 211 c 0
 60 238 62 266 67 297 c 2
181 269 m 1
 179 249 178 231 178 214 c 0
 178 97 233 68 294 68 c 0
 374 68 447 118 465 233 c 0
 467 247 468 260 468 273 c 0
 468 349 430 401 344 401 c 0
 271 401 208 352 181 269 c 1
EndSplineSet
PickledDataWithLists: "(dp0
Vcom.fontlab.hintData
p1
(dp2
Vvhints
p3
(lp4
(dp5
Vposition
p6
L32L
sVwidth
p7
L10L
sa(dp8
g6
L90L
sg7
L10L
sa(dp9
g6
L188L
sg7
L10L
sa(dp10
g6
L464L
sg7
L10L
sa(dp11
g6
L560L
sg7
L10L
sa(dp12
g6
L658L
sg7
L10L
sasVhhints
p13
(lp14
(dp15
g6
L-29L
sg7
L10L
sa(dp16
g6
L39L
sg7
L10L
sa(dp17
g6
L251L
sg7
L10L
sa(dp18
g6
L397L
sg7
L10L
sa(dp19
g6
L466L
sg7
L10L
sa(dp20
g6
L819L
sg7
L10L
sass."
Substitution2: "Latin.dnom subtable" six.dnom
Substitution2: "Latin.numr subtable" six.numr
Substitution2: "Latin.subs subtable" six.subs
Substitution2: "Latin.sups subtable" six.sups
Substitution2: "Latin.pnum subtable" six.pnum
EndChar

StartChar: seven
Encoding: 26 55 27
GlifName: seven
Width: 660
VWidth: 0
Flags: MW
LayerCount: 2
Fore
SplineSet
114 687 m 1
 129 780 l 1
 640 780 l 1
 638 715 l 1
 507 568 334 285 297 50 c 2
 289 0 l 1
 165 0 l 1
 173 50 l 2
 207 266 364 523 494 687 c 1
 114 687 l 1
EndSplineSet
PickledDataWithLists: "(dp0
Vcom.fontlab.hintData
p1
(dp2
Vvhints
p3
(lp4
(dp5
Vposition
p6
L69L
sVwidth
p7
L10L
sa(dp8
g6
L199L
sg7
L10L
sa(dp9
g6
L274L
sg7
L10L
sa(dp10
g6
L648L
sg7
L10L
sasVhhints
p11
(lp12
(dp13
g6
L-19L
sg7
L10L
sa(dp14
g6
L554L
sg7
L10L
sa(dp15
g6
L716L
sg7
L10L
sa(dp16
g6
L784L
sg7
L10L
sa(dp17
g6
L795L
sg7
L10L
sass."
Substitution2: "Latin.dnom subtable" seven.dnom
Substitution2: "Latin.numr subtable" seven.numr
Substitution2: "Latin.subs subtable" seven.subs
Substitution2: "Latin.sups subtable" seven.sups
Substitution2: "Latin.pnum subtable" seven.pnum
EndChar

StartChar: eight
Encoding: 27 56 28
GlifName: eight
Width: 660
VWidth: 0
Flags: MW
LayerCount: 2
Fore
SplineSet
267 -19 m 0
 109 -19 20 63 20 170 c 0
 20 180 20 190 22 201 c 0
 42 326 143 378 213 401 c 1
 160 426 114 470 114 546 c 0
 114 557 115 569 117 581 c 0
 136 699 246 799 397 799 c 0
 533 799 610 717 610 615 c 0
 610 604 609 593 607 581 c 0
 591 483 525 430 455 401 c 1
 511 380 585 336 585 237 c 0
 585 226 584 214 582 201 c 0
 563 79 440 -19 267 -19 c 0
280 66 m 0
 378 66 448 114 462 201 c 0
 464 211 464 221 464 230 c 0
 464 299 419 329 375 343 c 0
 362 348 345 354 327 360 c 1
 307 354 288 348 273 343 c 0
 217 327 156 291 142 201 c 0
 141 192 140 183 140 175 c 0
 140 105 192 66 280 66 c 0
383 713 m 0
 316 713 248 672 234 581 c 0
 233 572 232 563 232 555 c 0
 232 496 268 463 305 452 c 0
 316 449 327 444 340 440 c 1
 355 444 368 449 379 452 c 0
 425 465 478 505 490 581 c 0
 492 591 492 600 492 609 c 0
 492 681 443 713 383 713 c 0
EndSplineSet
PickledDataWithLists: "(dp0
Vcom.fontlab.hintData
p1
(dp2
Vvhints
p3
(lp4
(dp5
Vposition
p6
L76L
sVwidth
p7
L10L
sa(dp8
g6
L87L
sg7
L10L
sa(dp9
g6
L174L
sg7
L10L
sa(dp10
g6
L185L
sg7
L10L
sa(dp11
g6
L549L
sg7
L10L
sa(dp12
g6
L584L
sg7
L10L
sa(dp13
g6
L594L
sg7
L10L
sa(dp14
g6
L649L
sg7
L10L
sasVhhints
p15
(lp16
(dp17
g6
L-24L
sg7
L10L
sa(dp18
g6
L44L
sg7
L10L
sa(dp19
g6
L394L
sg7
L9L
sa(dp20
g6
L610L
sg7
L10L
sa(dp21
g6
L651L
sg7
L10L
sa(dp22
g6
L741L
sg7
L10L
sa(dp23
g6
L809L
sg7
L10L
sass."
Substitution2: "Latin.dnom subtable" eight.dnom
Substitution2: "Latin.numr subtable" eight.numr
Substitution2: "Latin.subs subtable" eight.subs
Substitution2: "Latin.sups subtable" eight.sups
Substitution2: "Latin.pnum subtable" eight.pnum
EndChar

StartChar: nine
Encoding: 28 57 29
GlifName: nine
Width: 660
VWidth: 0
Flags: MW
LayerCount: 2
Fore
SplineSet
596 483 m 2
 574 344 l 2
 554 218 494 -19 254 -19 c 0
 79 -19 43 98 37 141 c 1
 155 160 l 1
 161 122 183 68 268 68 c 0
 379 68 433 190 457 344 c 2
 459 355 l 1
 414 319 356 297 287 297 c 0
 135 297 78 397 78 500 c 0
 78 516 79 531 82 547 c 0
 103 682 212 799 384 799 c 0
 534 799 603 713 603 570 c 0
 603 543 601 514 596 483 c 2
483 511 m 1
 485 531 486 549 486 566 c 0
 486 683 431 712 370 712 c 0
 290 712 217 662 199 547 c 0
 197 533 196 520 196 507 c 0
 196 431 234 379 320 379 c 0
 393 379 456 428 483 511 c 1
EndSplineSet
PickledDataWithLists: "(dp0
Vcom.fontlab.hintData
p1
(dp2
Vvhints
p3
(lp4
(dp5
Vposition
p6
L52L
sVwidth
p7
L10L
sa(dp8
g6
L150L
sg7
L10L
sa(dp9
g6
L246L
sg7
L10L
sa(dp10
g6
L521L
sg7
L10L
sa(dp11
g6
L620L
sg7
L10L
sa(dp12
g6
L678L
sg7
L10L
sasVhhints
p13
(lp14
(dp15
g6
L-29L
sg7
L10L
sa(dp16
g6
L324L
sg7
L10L
sa(dp17
g6
L393L
sg7
L10L
sa(dp18
g6
L539L
sg7
L10L
sa(dp19
g6
L751L
sg7
L10L
sa(dp20
g6
L819L
sg7
L10L
sass."
Substitution2: "Latin.dnom subtable" nine.dnom
Substitution2: "Latin.numr subtable" nine.numr
Substitution2: "Latin.subs subtable" nine.subs
Substitution2: "Latin.sups subtable" nine.sups
Substitution2: "Latin.pnum subtable" nine.pnum
EndChar

StartChar: colon
Encoding: 29 58 30
GlifName: colon
Width: 330
VWidth: 0
Flags: MW
LayerCount: 2
Fore
SplineSet
128 144 m 0
 169 144 197 121 197 83 c 0
 197 79 197 74 196 70 c 0
 189 24 149 -4 104 -4 c 0
 63 -4 35 19 35 57 c 0
 35 61 35 66 36 70 c 0
 43 116 83 144 128 144 c 0
194 564 m 0
 235 564 264 541 264 503 c 0
 264 499 264 494 263 490 c 0
 256 444 216 416 171 416 c 0
 130 416 102 439 102 477 c 0
 102 481 102 486 103 490 c 0
 110 536 149 564 194 564 c 0
EndSplineSet
PickledDataWithLists: "(dp0
Vcom.fontlab.hintData
p1
(dp2
Vvhints
p3
(lp4
(dp5
Vposition
p6
L81L
sVwidth
p7
L10L
sa(dp8
g6
L238L
sg7
L10L
sasVhhints
p9
(lp10
(dp11
g6
L-5L
sg7
L10L
sa(dp12
g6
L122L
sg7
L10L
sa(dp13
g6
L475L
sg7
L10L
sa(dp14
g6
L602L
sg7
L10L
sass."
EndChar

StartChar: semicolon
Encoding: 30 59 31
GlifName: semicolon
Width: 330
VWidth: 0
Flags: MW
LayerCount: 2
Fore
SplineSet
194 564 m 0
 235 564 264 541 264 503 c 0
 264 499 264 494 263 490 c 0
 256 444 216 416 171 416 c 0
 130 416 102 439 102 477 c 0
 102 481 102 486 103 490 c 0
 110 536 149 564 194 564 c 0
36 68 m 0
 43 113 79 146 128 146 c 0
 185 146 207 106 207 59 c 0
 207 50 206 41 205 32 c 0
 188 -78 102 -157 28 -200 c 1
 1 -153 l 1
 53 -123 101 -73 122 -2 c 1
 116 -3 108 -4 101 -4 c 0
 62 -4 35 18 35 55 c 0
 35 59 35 64 36 68 c 0
EndSplineSet
PickledDataWithLists: "(dp0
Vcom.fontlab.hintData
p1
(dp2
Vvhints
p3
(lp4
(dp5
Vposition
p6
L61L
sVwidth
p7
L10L
sa(dp8
g6
L81L
sg7
L10L
sa(dp9
g6
L170L
sg7
L10L
sa(dp10
g6
L239L
sg7
L10L
sa(dp11
g6
L251L
sg7
L10L
sasVhhints
p12
(lp13
(dp14
g6
L-182L
sg7
L10L
sa(dp15
g6
L48L
sg7
L10L
sa(dp16
g6
L117L
sg7
L10L
sa(dp17
g6
L475L
sg7
L10L
sa(dp18
g6
L602L
sg7
L10L
sass."
EndChar

StartChar: less
Encoding: 31 60 32
GlifName: less
Width: 600
VWidth: 0
Flags: MW
LayerCount: 2
Fore
SplineSet
82 328 m 1
 87 360 l 1
 92 392 l 1
 528 632 l 1
 536 543 l 1
 194 360 l 1
 478 177 l 1
 442 88 l 1
 82 328 l 1
EndSplineSet
PickledDataWithLists: "(dp0
Vcom.fontlab.hintData
p1
(dp2
Vvhints
p3
(lp4
(dp5
Vposition
p6
L63L
sVwidth
p7
L10L
sa(dp8
g6
L514L
sg7
L10L
sa(dp9
g6
L524L
sg7
L10L
sasVhhints
p10
(lp11
(dp12
g6
L65L
sg7
L10L
sa(dp13
g6
L606L
sg7
L10L
sass."
EndChar

StartChar: equal
Encoding: 32 61 33
GlifName: equal
Width: 600
VWidth: 0
Flags: MW
LayerCount: 2
Fore
SplineSet
97 421 m 1
 110 504 l 1
 530 504 l 1
 517 421 l 1
 97 421 l 1
64 216 m 1
 77 299 l 1
 497 299 l 1
 484 216 l 1
 64 216 l 1
EndSplineSet
PickledDataWithLists: "(dp0
Vcom.fontlab.hintData
p1
(dp2
Vvhints
p3
(lp4
(dp5
Vposition
p6
L75L
sVwidth
p7
L10L
sa(dp8
g6
L514L
sg7
L10L
sasVhhints
p9
(lp10
(dp11
g6
L201L
sg7
L10L
sa(dp12
g6
L263L
sg7
L10L
sa(dp13
g6
L271L
sg7
L10L
sa(dp14
g6
L401L
sg7
L10L
sa(dp15
g6
L463L
sg7
L10L
sa(dp16
g6
L471L
sg7
L10L
sass."
EndChar

StartChar: greater
Encoding: 33 62 34
GlifName: greater
Width: 600
VWidth: 0
Flags: MW
LayerCount: 2
Fore
SplineSet
512 392 m 1
 507 360 l 1
 502 328 l 1
 66 88 l 1
 58 177 l 1
 400 360 l 1
 116 543 l 1
 152 632 l 1
 512 392 l 1
EndSplineSet
PickledDataWithLists: "(dp0
Vcom.fontlab.hintData
p1
(dp2
Vvhints
p3
(lp4
(dp5
Vposition
p6
L66L
sVwidth
p7
L10L
sa(dp8
g6
L76L
sg7
L10L
sa(dp9
g6
L527L
sg7
L10L
sasVhhints
p10
(lp11
(dp12
g6
L64L
sg7
L10L
sa(dp13
g6
L605L
sg7
L10L
sass."
EndChar

StartChar: question
Encoding: 34 63 35
GlifName: question
Width: 570
VWidth: 0
Flags: MW
LayerCount: 2
Fore
SplineSet
248 144 m 0
 289 144 317 121 317 83 c 0
 317 79 317 74 316 70 c 0
 309 24 269 -4 224 -4 c 0
 183 -4 155 19 155 57 c 0
 155 61 155 66 156 70 c 0
 163 116 203 144 248 144 c 0
97 647 m 0
 113 750 214 829 356 829 c 0
 476 829 548 769 548 670 c 0
 548 659 547 646 545 634 c 0
 519 470 313 430 295 316 c 0
 294 309 293 302 293 295 c 0
 293 284 295 273 298 262 c 1
 204 251 l 1
 198 268 194 285 194 302 c 0
 194 309 195 316 196 323 c 0
 221 478 404 504 424 631 c 0
 425 641 426 649 426 657 c 0
 426 721 383 741 338 741 c 0
 276 741 227 710 217 647 c 0
 216 639 215 631 215 622 c 0
 215 610 216 598 220 587 c 1
 102 558 l 1
 97 575 94 594 94 612 c 0
 94 624 95 635 97 647 c 0
EndSplineSet
PickledDataWithLists: "(dp0
Vcom.fontlab.hintData
p1
(dp2
Vvhints
p3
(lp4
(dp5
Vposition
p6
L11L
sVwidth
p7
L10L
sa(dp8
g6
L98L
sg7
L10L
sa(dp9
g6
L120L
sg7
L10L
sa(dp10
g6
L152L
sg7
L10L
sa(dp11
g6
L161L
sg7
L10L
sa(dp12
g6
L241L
sg7
L10L
sa(dp13
g6
L254L
sg7
L10L
sa(dp14
g6
L310L
sg7
L10L
sa(dp15
g6
L351L
sg7
L10L
sa(dp16
g6
L439L
sg7
L10L
sasVhhints
p17
(lp18
(dp19
g6
L-5L
sg7
L10L
sa(dp20
g6
L122L
sg7
L10L
sa(dp21
g6
L255L
sg7
L10L
sa(dp22
g6
L594L
sg7
L10L
sa(dp23
g6
L784L
sg7
L10L
sa(dp24
g6
L846L
sg7
L10L
sass."
EndChar

StartChar: at
Encoding: 35 64 36
GlifName: at
Width: 1020
VWidth: 0
Flags: MW
LayerCount: 2
Fore
SplineSet
58 237 m 0
 98 491 315 780 622 780 c 0
 847 780 949 639 949 469 c 0
 949 445 947 421 943 397 c 0
 917 233 792 37 645 37 c 0
 586 37 567 70 564 107 c 1
 523 63 474 32 417 32 c 0
 301 32 262 110 262 190 c 0
 262 203 263 217 265 230 c 0
 287 366 414 563 612 563 c 0
 694 563 722 511 722 460 c 0
 722 452 721 444 720 437 c 0
 713 393 686 324 675 296 c 0
 653 233 640 186 635 154 c 0
 633 143 632 133 632 125 c 0
 632 103 639 95 654 95 c 0
 730 95 852 237 877 397 c 0
 881 420 883 443 883 465 c 0
 883 612 797 721 612 721 c 0
 360 721 162 475 124 237 c 0
 120 210 118 184 118 159 c 0
 118 -3 206 -131 421 -131 c 0
 489 -131 578 -95 606 -80 c 1
 635 -128 l 1
 598 -149 502 -190 412 -190 c 0
 155 -190 51 -30 51 154 c 0
 51 181 54 209 58 237 c 0
427 97 m 0
 499 97 554 178 598 307 c 0
 608 334 635 407 640 437 c 0
 641 443 642 450 642 455 c 0
 642 486 625 498 602 498 c 0
 493 498 373 362 352 230 c 0
 350 217 349 205 349 194 c 0
 349 131 381 97 427 97 c 0
EndSplineSet
PickledDataWithLists: "(dp0
Vcom.fontlab.hintData
p1
(dp2
Vvhints
p3
(lp4
(dp5
Vposition
p6
L74L
sVwidth
p7
L10L
sa(dp8
g6
L143L
sg7
L10L
sa(dp9
g6
L293L
sg7
L10L
sa(dp10
g6
L372L
sg7
L10L
sa(dp11
g6
L622L
sg7
L10L
sa(dp12
g6
L670L
sg7
L10L
sa(dp13
g6
L702L
sg7
L10L
sa(dp14
g6
L726L
sg7
L10L
sa(dp15
g6
L865L
sg7
L10L
sa(dp16
g6
L935L
sg7
L10L
sasVhhints
p17
(lp18
(dp19
g6
L-179L
sg7
L10L
sa(dp20
g6
L-131L
sg7
L10L
sa(dp21
g6
L-76L
sg7
L10L
sa(dp22
g6
L38L
sg7
L10L
sa(dp23
g6
L92L
sg7
L10L
sa(dp24
g6
L352L
sg7
L10L
sa(dp25
g6
L399L
sg7
L10L
sa(dp26
g6
L490L
sg7
L10L
sa(dp27
g6
L544L
sg7
L10L
sa(dp28
g6
L711L
sg7
L10L
sa(dp29
g6
L759L
sg7
L10L
sass."
EndChar

StartChar: A
Encoding: 36 65 37
GlifName: A_
Width: 750
VWidth: 0
Flags: MW
AnchorPoint: "LatinOgonek.mark" 610 0 basechar 0
AnchorPoint: "LatinBelow.mark" 315 0 basechar 0
AnchorPoint: "LatinAbove.mark" 339 150 basechar 0
LayerCount: 2
Fore
SplineSet
675 0 m 1
 539 0 l 1
 506 167 l 1
 176 167 l 1
 91 0 l 1
 -45 0 l 1
 -44 8 l 1
 389 780 l 1
 489 780 l 1
 676 8 l 1
 675 0 l 1
490 253 m 1
 416 638 l 1
 220 253 l 1
 490 253 l 1
EndSplineSet
PickledDataWithLists: "(dp0
Vcom.fontlab.hintData
p1
(dp2
Vvhints
p3
(lp4
(dp5
Vposition
p6
L33L
sVwidth
p7
L10L
sa(dp8
g6
L39L
sg7
L10L
sa(dp9
g6
L763L
sg7
L10L
sasVhhints
p10
(lp11
(dp12
g6
L-16L
sg7
L10L
sa(dp13
g6
L3L
sg7
L10L
sa(dp14
g6
L179L
sg7
L10L
sa(dp15
g6
L209L
sg7
L10L
sa(dp16
g6
L271L
sg7
L10L
sa(dp17
g6
L810L
sg7
L10L
sass."
EndChar

StartChar: B
Encoding: 37 66 38
GlifName: B_
Width: 745
VWidth: 0
Flags: MW
AnchorPoint: "LatinBelow.mark" 260 0 basechar 0
AnchorPoint: "LatinAbove.mark" 284 150 basechar 0
LayerCount: 2
Fore
SplineSet
519 433 m 1
 612 406 669 350 669 262 c 0
 669 251 668 238 666 226 c 0
 642 77 496 -9 309 -9 c 0
 188 -9 48 -1 30 0 c 1
 154 780 l 1
 170 781 297 789 405 789 c 0
 544 789 651 731 651 622 c 0
 651 613 651 603 649 593 c 0
 636 514 584 463 519 433 c 1
381 450 m 1
 447 457 517 499 530 583 c 0
 531 591 532 597 532 604 c 0
 532 674 472 704 378 704 c 0
 327 704 276 700 254 699 c 1
 214 446 l 1
 263 448 323 450 381 450 c 1
156 81 m 1
 193 79 254 77 308 77 c 0
 427 77 530 115 548 226 c 0
 550 235 550 245 550 253 c 0
 550 343 464 371 355 371 c 0
 301 371 238 369 201 367 c 1
 156 81 l 1
EndSplineSet
PickledDataWithLists: "(dp0
Vcom.fontlab.hintData
p1
(dp2
Vvhints
p3
(lp4
(dp5
Vposition
p6
L26L
sVwidth
p7
L10L
sa(dp8
g6
L116L
sg7
L10L
sa(dp9
g6
L121L
sg7
L10L
sa(dp10
g6
L223L
sg7
L10L
sa(dp11
g6
L537L
sg7
L10L
sa(dp12
g6
L636L
sg7
L10L
sa(dp13
g6
L735L
sg7
L10L
sasVhhints
p14
(lp15
(dp16
g6
L-22L
sg7
L10L
sa(dp17
g6
L49L
sg7
L10L
sa(dp18
g6
L395L
sg7
L10L
sa(dp19
g6
L634L
sg7
L10L
sa(dp20
g6
L661L
sg7
L10L
sa(dp21
g6
L742L
sg7
L10L
sa(dp22
g6
L809L
sg7
L10L
sass."
Colour: ff00
EndChar

StartChar: C
Encoding: 38 67 39
GlifName: C_
Width: 755
VWidth: 0
Flags: MW
AnchorPoint: "LatinCedilla.mark" 352 0 basechar 0
AnchorPoint: "LatinBelow.mark" 350 0 basechar 0
AnchorPoint: "LatinAbove.mark" 374 150 basechar 0
LayerCount: 2
Fore
SplineSet
64 406 m 2
 93 590 207 799 479 799 c 0
 679 799 746 670 748 589 c 1
 623 577 l 1
 621 634 574 708 464 708 c 0
 313 708 219 590 190 406 c 2
 185 374 l 2
 180 343 178 314 178 287 c 0
 178 154 238 72 363 72 c 0
 473 72 544 146 564 203 c 1
 685 191 l 1
 657 110 549 -19 349 -19 c 0
 122 -19 52 127 52 282 c 0
 52 313 54 344 59 374 c 2
 64 406 l 2
EndSplineSet
PickledDataWithLists: "(dp0
Vcom.fontlab.hintData
p1
(dp2
Vvhints
p3
(lp4
(dp5
Vposition
p6
L68L
sVwidth
p7
L10L
sa(dp8
g6
L172L
sg7
L10L
sa(dp9
g6
L569L
sg7
L10L
sa(dp10
g6
L673L
sg7
L10L
sa(dp11
g6
L707L
sg7
L10L
sasVhhints
p12
(lp13
(dp14
g6
L-20L
sg7
L10L
sa(dp15
g6
L52L
sg7
L10L
sa(dp16
g6
L169L
sg7
L10L
sa(dp17
g6
L586L
sg7
L10L
sa(dp18
g6
L739L
sg7
L10L
sa(dp19
g6
L811L
sg7
L10L
sass."
Colour: ff00
EndChar

StartChar: D
Encoding: 39 68 40
GlifName: D_
Width: 770
VWidth: 0
Flags: MW
AnchorPoint: "LatinBelow.mark" 260 0 basechar 0
AnchorPoint: "LatinAbove.mark" 284 150 basechar 0
LayerCount: 2
Fore
SplineSet
163 80 m 1
 190 79 221 78 245 78 c 0
 463 78 562 202 590 376 c 2
 594 404 l 2
 598 430 600 455 600 479 c 0
 600 613 529 702 344 702 c 0
 320 702 288 701 261 700 c 1
 163 80 l 1
154 780 m 1
 154 780 265 789 358 789 c 0
 629 789 720 641 720 479 c 0
 720 454 718 429 714 404 c 2
 710 376 l 2
 680 188 545 -9 232 -9 c 0
 139 -9 30 0 30 0 c 1
 154 780 l 1
EndSplineSet
PickledDataWithLists: "(dp0
Vcom.fontlab.hintData
p1
(dp2
Vvhints
p3
(lp4
(dp5
Vposition
p6
L26L
sVwidth
p7
L10L
sa(dp8
g6
L116L
sg7
L10L
sa(dp9
g6
L121L
sg7
L10L
sa(dp10
g6
L223L
sg7
L10L
sa(dp11
g6
L630L
sg7
L10L
sa(dp12
g6
L729L
sg7
L10L
sasVhhints
p13
(lp14
(dp15
g6
L-21L
sg7
L10L
sa(dp16
g6
L49L
sg7
L10L
sa(dp17
g6
L634L
sg7
L10L
sa(dp18
g6
L661L
sg7
L10L
sa(dp19
g6
L742L
sg7
L10L
sa(dp20
g6
L810L
sg7
L10L
sass."
EndChar

StartChar: E
Encoding: 40 69 41
GlifName: E_
Width: 675
VWidth: 0
Flags: MW
AnchorPoint: "LatinOgonek.mark" 485 0 basechar 0
AnchorPoint: "LatinBelow.mark" 290 0 basechar 0
AnchorPoint: "LatinAbove.mark" 314 150 basechar 0
LayerCount: 2
Fore
SplineSet
30 0 m 1
 154 780 l 1
 669 780 l 1
 654 687 l 1
 259 687 l 1
 218 428 l 1
 577 428 l 1
 563 342 l 1
 204 342 l 1
 165 93 l 1
 575 93 l 1
 560 0 l 1
 30 0 l 1
EndSplineSet
PickledDataWithLists: "(dp0
Vcom.fontlab.hintData
p1
(dp2
Vvhints
p3
(lp4
(dp5
Vposition
p6
L66L
sVwidth
p7
L10L
sa(dp8
g6
L106L
sg7
L10L
sa(dp9
g6
L121L
sg7
L10L
sa(dp10
g6
L204L
sg7
L10L
sa(dp11
g6
L220L
sg7
L10L
sa(dp12
g6
L564L
sg7
L10L
sa(dp13
g6
L644L
sg7
L10L
sa(dp14
g6
L674L
sg7
L10L
sasVhhints
p15
(lp16
(dp17
g6
L-24L
sg7
L10L
sa(dp18
g6
L-9L
sg7
L10L
sa(dp19
g6
L46L
sg7
L10L
sa(dp20
g6
L59L
sg7
L10L
sa(dp21
g6
L361L
sg7
L10L
sa(dp22
g6
L423L
sg7
L10L
sa(dp23
g6
L726L
sg7
L10L
sa(dp24
g6
L794L
sg7
L10L
sa(dp25
g6
L799L
sg7
L10L
sa(dp26
g6
L804L
sg7
L10L
sass."
Colour: ff00
EndChar

StartChar: F
Encoding: 41 70 42
GlifName: F_
Width: 640
VWidth: 0
Flags: MW
AnchorPoint: "LatinBelow.mark" 100 0 basechar 0
AnchorPoint: "LatinAbove.mark" 304 150 basechar 0
LayerCount: 2
Fore
SplineSet
30 0 m 1
 154 780 l 1
 659 780 l 1
 644 687 l 1
 261 687 l 1
 220 431 l 1
 567 431 l 1
 553 339 l 1
 206 339 l 1
 152 0 l 1
 30 0 l 1
EndSplineSet
PickledDataWithLists: "(dp0
Vcom.fontlab.hintData
p1
(dp2
Vvhints
p3
(lp4
(dp5
Vposition
p6
L59L
sVwidth
p7
L10L
sa(dp8
g6
L66L
sg7
L10L
sa(dp9
g6
L116L
sg7
L10L
sa(dp10
g6
L124L
sg7
L10L
sa(dp11
g6
L214L
sg7
L10L
sa(dp12
g6
L222L
sg7
L10L
sa(dp13
g6
L564L
sg7
L10L
sa(dp14
g6
L644L
sg7
L10L
sasVhhints
p15
(lp16
(dp17
g6
L-14L
sg7
L10L
sa(dp18
g6
L355L
sg7
L10L
sa(dp19
g6
L360L
sg7
L10L
sa(dp20
g6
L423L
sg7
L10L
sa(dp21
g6
L726L
sg7
L10L
sa(dp22
g6
L794L
sg7
L10L
sa(dp23
g6
L799L
sg7
L10L
sa(dp24
g6
L804L
sg7
L10L
sass."
Colour: ff00
EndChar

StartChar: G
Encoding: 42 71 43
GlifName: G_
Width: 770
VWidth: 0
Flags: MW
AnchorPoint: "LatinBelow.mark" 350 0 basechar 0
AnchorPoint: "LatinAbove.mark" 374 150 basechar 0
LayerCount: 2
Fore
SplineSet
407 302 m 1
 420 388 l 1
 711 388 l 1
 672 137 l 1
 629 71 522 -19 349 -19 c 0
 122 -19 52 127 52 282 c 0
 52 313 54 344 59 374 c 2
 64 406 l 2
 93 590 207 799 479 799 c 0
 679 799 746 670 748 589 c 1
 624 577 l 1
 622 634 576 709 464 709 c 0
 311 709 216 592 187 406 c 2
 182 374 l 2
 177 343 175 314 175 287 c 0
 175 152 236 71 363 71 c 0
 470 71 530 112 564 151 c 1
 588 302 l 1
 407 302 l 1
EndSplineSet
PickledDataWithLists: "(dp0
Vcom.fontlab.hintData
p1
(dp2
Vvhints
p3
(lp4
(dp5
Vposition
p6
L71L
sVwidth
p7
L10L
sa(dp8
g6
L169L
sg7
L10L
sa(dp9
g6
L386L
sg7
L10L
sa(dp10
g6
L572L
sg7
L10L
sa(dp11
g6
L615L
sg7
L10L
sa(dp12
g6
L670L
sg7
L10L
sa(dp13
g6
L715L
sg7
L10L
sasVhhints
p14
(lp15
(dp16
g6
L-24L
sg7
L10L
sa(dp17
g6
L44L
sg7
L10L
sa(dp18
g6
L290L
sg7
L10L
sa(dp19
g6
L390L
sg7
L10L
sa(dp20
g6
L587L
sg7
L10L
sa(dp21
g6
L741L
sg7
L10L
sa(dp22
g6
L810L
sg7
L10L
sass."
Colour: ff00
EndChar

StartChar: H
Encoding: 43 72 44
GlifName: H_
Width: 790
VWidth: 0
Flags: MW
AnchorPoint: "LatinBelow.mark" 335 0 basechar 0
AnchorPoint: "LatinAbove.mark" 359 150 basechar 0
LayerCount: 2
Fore
SplineSet
30 0 m 1
 154 780 l 1
 274 780 l 1
 219 436 l 1
 589 436 l 1
 644 780 l 1
 764 780 l 1
 640 0 l 1
 520 0 l 1
 574 344 l 1
 204 344 l 1
 150 0 l 1
 30 0 l 1
EndSplineSet
PickledDataWithLists: "(dp0
Vcom.fontlab.hintData
p1
(dp2
Vvhints
p3
(lp4
(dp5
Vposition
p6
L66L
sVwidth
p7
L10L
sa(dp8
g6
L101L
sg7
L10L
sa(dp9
g6
L111L
sg7
L10L
sa(dp10
g6
L211L
sg7
L10L
sa(dp11
g6
L605L
sg7
L10L
sa(dp12
g6
L704L
sg7
L10L
sa(dp13
g6
L744L
sg7
L10L
sasVhhints
p14
(lp15
(dp16
g6
L-14L
sg7
L10L
sa(dp17
g6
L355L
sg7
L10L
sa(dp18
g6
L423L
sg7
L10L
sa(dp19
g6
L794L
sg7
L10L
sa(dp20
g6
L799L
sg7
L10L
sass."
Colour: ff00
EndChar

StartChar: I
Encoding: 44 73 45
GlifName: I_
Width: 320
VWidth: 0
Flags: MW
AnchorPoint: "LatinOgonek.mark" 105 0 basechar 0
AnchorPoint: "LatinBelow.mark" 100 0 basechar 0
AnchorPoint: "LatinAbove.mark" 124 150 basechar 0
LayerCount: 2
Fore
SplineSet
40 0 m 1
 164 780 l 1
 284 780 l 1
 160 0 l 1
 40 0 l 1
EndSplineSet
PickledDataWithLists: "(dp0
Vcom.fontlab.hintData
p1
(dp2
Vvhints
p3
(lp4
(dp5
Vposition
p6
L53L
sVwidth
p7
L10L
sa(dp8
g6
L77L
sg7
L10L
sa(dp9
g6
L188L
sg7
L10L
sa(dp10
g6
L194L
sg7
L10L
sa(dp11
g6
L282L
sg7
L10L
sa(dp12
g6
L288L
sg7
L10L
sa(dp13
g6
L414L
sg7
L10L
sasVhhints
p14
(lp15
(dp16
g6
L-3L
sg7
L10L
sa(dp17
g6
L3L
sg7
L10L
sa(dp18
g6
L59L
sg7
L10L
sa(dp19
g6
L67L
sg7
L10L
sa(dp20
g6
L729L
sg7
L10L
sa(dp21
g6
L788L
sg7
L10L
sass."
Colour: ff00
EndChar

StartChar: J
Encoding: 45 74 46
GlifName: J_
Width: 520
VWidth: 0
Flags: MW
AnchorPoint: "LatinBelow.mark" 170 0 basechar 0
AnchorPoint: "LatinAbove.mark" 324 150 basechar 0
LayerCount: 2
Fore
SplineSet
-18 138 m 1
 104 147 l 1
 104 146 104 145 104 144 c 0
 104 92 133 67 176 67 c 0
 220 67 263 91 275 164 c 2
 373 780 l 1
 494 780 l 1
 396 164 l 2
 380 66 293 -19 162 -19 c 0
 32 -19 -18 63 -18 136 c 0
 -18 137 -18 137 -18 138 c 1
EndSplineSet
PickledDataWithLists: "(dp0
Vcom.fontlab.hintData
p1
(dp2
Vvhints
p3
(lp4
(dp5
Vposition
p6
L16L
sVwidth
p7
L10L
sa(dp8
g6
L152L
sg7
L10L
sa(dp9
g6
L318L
sg7
L10L
sa(dp10
g6
L412L
sg7
L10L
sa(dp11
g6
L492L
sg7
L10L
sasVhhints
p12
(lp13
(dp14
g6
L-14L
sg7
L10L
sa(dp15
g6
L55L
sg7
L9L
sa(dp16
g6
L129L
sg7
L10L
sa(dp17
g6
L730L
sg7
L10L
sa(dp18
g6
L788L
sg7
L10L
sass."
Colour: ff00
EndChar

StartChar: K
Encoding: 46 75 47
GlifName: K_
Width: 715
VWidth: 0
Flags: MW
AnchorPoint: "LatinBelow.mark" 300 0 basechar 0
AnchorPoint: "LatinAbove.mark" 324 150 basechar 0
LayerCount: 2
Fore
SplineSet
30 0 m 1
 154 780 l 1
 270 780 l 1
 211 408 l 1
 598 780 l 1
 730 771 l 1
 729 765 l 1
 378 450 l 1
 651 6 l 1
 650 0 l 1
 509 0 l 1
 289 369 l 1
 191 281 l 1
 146 0 l 1
 30 0 l 1
EndSplineSet
PickledDataWithLists: "(dp0
Vcom.fontlab.hintData
p1
(dp2
Vvhints
p3
(lp4
(dp5
Vposition
p6
L64L
sVwidth
p7
L10L
sa(dp8
g6
L86L
sg7
L10L
sa(dp9
g6
L116L
sg7
L10L
sa(dp10
g6
L211L
sg7
L10L
sa(dp11
g6
L219L
sg7
L10L
sa(dp12
g6
L679L
sg7
L10L
sa(dp13
g6
L734L
sg7
L10L
sasVhhints
p14
(lp15
(dp16
g6
L-14L
sg7
L10L
sa(dp17
g6
L-9L
sg7
L10L
sa(dp18
g6
L799L
sg7
L10L
sass."
Colour: ff00
EndChar

StartChar: L
Encoding: 47 76 48
GlifName: L_
Width: 570
VWidth: 0
Flags: MW
AnchorPoint: "LatinBelow.mark" 260 0 basechar 0
AnchorPoint: "LatinAbove.mark" 124 150 basechar 0
LayerCount: 2
Fore
SplineSet
30 0 m 1
 154 780 l 1
 276 780 l 1
 167 93 l 1
 500 93 l 1
 485 0 l 1
 30 0 l 1
EndSplineSet
PickledDataWithLists: "(dp0
Vcom.fontlab.hintData
p1
(dp2
Vvhints
p3
(lp4
(dp5
Vposition
p6
L126L
sVwidth
p7
L10L
sa(dp8
g6
L131L
sg7
L10L
sa(dp9
g6
L144L
sg7
L10L
sa(dp10
g6
L224L
sg7
L10L
sa(dp11
g6
L242L
sg7
L10L
sa(dp12
g6
L624L
sg7
L10L
sasVhhints
p13
(lp14
(dp15
g6
L-23L
sg7
L10L
sa(dp16
g6
L-9L
sg7
L10L
sa(dp17
g6
L45L
sg7
L10L
sa(dp18
g6
L59L
sg7
L10L
sa(dp19
g6
L794L
sg7
L10L
sass."
Colour: ff00
EndChar

StartChar: M
Encoding: 48 77 49
GlifName: M_
Width: 880
VWidth: 0
Flags: MW
AnchorPoint: "LatinBelow.mark" 380 0 basechar 0
AnchorPoint: "LatinAbove.mark" 404 150 basechar 0
LayerCount: 2
Fore
SplineSet
730 0 m 1
 611 0 l 1
 699 554 l 1
 440 195 l 1
 382 195 l 1
 237 554 l 1
 149 0 l 1
 30 0 l 1
 152 769 l 1
 254 780 l 1
 430 318 l 1
 754 780 l 1
 852 769 l 1
 730 0 l 1
EndSplineSet
PickledDataWithLists: "(dp0
Vcom.fontlab.hintData
p1
(dp2
Vvhints
p3
(lp4
(dp5
Vposition
p6
L66L
sVwidth
p7
L10L
sa(dp8
g6
L102L
sg7
L10L
sa(dp9
g6
L197L
sg7
L10L
sa(dp10
g6
L691L
sg7
L10L
sa(dp11
g6
L785L
sg7
L10L
sa(dp12
g6
L824L
sg7
L10L
sasVhhints
p13
(lp14
(dp15
g6
L-19L
sg7
L10L
sa(dp16
g6
L-9L
sg7
L10L
sa(dp17
g6
L137L
sg7
L10L
sa(dp18
g6
L604L
sg7
L20L
sa(dp19
g6
L783L
sg7
L10L
sa(dp20
g6
L795L
sg7
L10L
sass."
Colour: ff00
EndChar

StartChar: N
Encoding: 49 78 50
GlifName: N_
Width: 790
VWidth: 0
Flags: MW
AnchorPoint: "LatinBelow.mark" 335 0 basechar 0
AnchorPoint: "LatinAbove.mark" 359 150 basechar 0
LayerCount: 2
Fore
SplineSet
30 0 m 1
 152 769 l 1
 257 780 l 1
 554 193 l 1
 647 780 l 1
 764 780 l 1
 640 0 l 1
 537 0 l 1
 240 587 l 1
 147 0 l 1
 30 0 l 1
EndSplineSet
PickledDataWithLists: "(dp0
Vcom.fontlab.hintData
p1
(dp2
Vvhints
p3
(lp4
(dp5
Vposition
p6
L97L
sVwidth
p7
L10L
sa(dp8
g6
L111L
sg7
L10L
sa(dp9
g6
L209L
sg7
L10L
sa(dp10
g6
L601L
sg7
L10L
sa(dp11
g6
L613L
sg7
L10L
sa(dp12
g6
L699L
sg7
L10L
sa(dp13
g6
L711L
sg7
L10L
sasVhhints
p14
(lp15
(dp16
g6
L-14L
sg7
L10L
sa(dp17
g6
L-8L
sg7
L10L
sa(dp18
g6
L794L
sg7
L10L
sass."
Colour: ff00
EndChar

StartChar: O
Encoding: 50 79 51
GlifName: O_
Width: 820
VWidth: 0
Flags: MW
AnchorPoint: "LatinOgonek.mark" 420 0 basechar 0
AnchorPoint: "LatinBelow.mark" 350 0 basechar 0
AnchorPoint: "LatinAbove.mark" 374 150 basechar 0
LayerCount: 2
Fore
SplineSet
59 372 m 2
 65 408 l 2
 94 590 205 799 477 799 c 0
 704 799 773 654 773 500 c 0
 773 469 770 438 765 408 c 2
 759 372 l 2
 730 190 619 -19 347 -19 c 0
 120 -19 51 126 51 280 c 0
 51 311 54 342 59 372 c 2
361 71 m 0
 514 71 607 189 636 372 c 2
 642 408 l 2
 647 439 649 468 649 495 c 0
 649 628 589 709 462 709 c 0
 309 709 217 591 188 408 c 2
 182 372 l 2
 177 341 175 311 175 284 c 0
 175 152 234 71 361 71 c 0
EndSplineSet
PickledDataWithLists: "(dp0
Vcom.fontlab.hintData
p1
(dp2
Vvhints
p3
(lp4
(dp5
Vposition
p6
L66L
sVwidth
p7
L10L
sa(dp8
g6
L164L
sg7
L10L
sa(dp9
g6
L572L
sg7
L10L
sa(dp10
g6
L659L
sg7
L10L
sa(dp11
g6
L690L
sg7
L10L
sa(dp12
g6
L757L
sg7
L10L
sasVhhints
p13
(lp14
(dp15
g6
L-22L
sg7
L10L
sa(dp16
g6
L47L
sg7
L10L
sa(dp17
g6
L742L
sg7
L10L
sa(dp18
g6
L811L
sg7
L10L
sass."
Colour: ff00
EndChar

StartChar: P
Encoding: 51 80 52
GlifName: P_
Width: 710
VWidth: 0
Flags: MW
AnchorPoint: "LatinBelow.mark" 100 0 basechar 0
AnchorPoint: "LatinAbove.mark" 324 150 basechar 0
LayerCount: 2
Fore
SplineSet
214 410 m 1
 246 408 292 406 340 406 c 0
 459 406 561 443 579 554 c 0
 581 563 581 573 581 581 c 0
 581 671 496 703 387 703 c 0
 339 703 292 701 260 699 c 1
 214 410 l 1
200 323 m 1
 149 0 l 1
 30 0 l 1
 82 329 l 1
 154 780 l 1
 172 781 294 789 415 789 c 0
 586 789 701 717 701 591 c 0
 701 579 700 567 698 554 c 0
 674 405 528 320 341 320 c 0
 292 320 242 321 200 323 c 1
EndSplineSet
PickledDataWithLists: "(dp0
Vcom.fontlab.hintData
p1
(dp2
Vvhints
p3
(lp4
(dp5
Vposition
p6
L26L
sVwidth
p7
L10L
sa(dp8
g6
L36L
sg7
L10L
sa(dp9
g6
L116L
sg7
L10L
sa(dp10
g6
L130L
sg7
L10L
sa(dp11
g6
L228L
sg7
L10L
sa(dp12
g6
L592L
sg7
L10L
sa(dp13
g6
L693L
sg7
L10L
sasVhhints
p14
(lp15
(dp16
g6
L-24L
sg7
L10L
sa(dp17
g6
L302L
sg7
L10L
sa(dp18
g6
L369L
sg7
L10L
sa(dp19
g6
L429L
sg7
L10L
sa(dp20
g6
L634L
sg7
L10L
sa(dp21
g6
L661L
sg7
L10L
sa(dp22
g6
L744L
sg7
L10L
sa(dp23
g6
L813L
sg7
L10L
sass."
Colour: ff00
EndChar

StartChar: Q
Encoding: 52 81 53
GlifName: Q_
Width: 820
VWidth: 0
Flags: MW
AnchorPoint: "LatinBelow.mark" 350 0 basechar 0
AnchorPoint: "LatinAbove.mark" 374 150 basechar 0
LayerCount: 2
Fore
SplineSet
59 372 m 2
 65 408 l 2
 94 590 205 799 477 799 c 0
 704 799 773 654 773 500 c 0
 773 469 770 438 765 408 c 2
 759 372 l 2
 745 285 713 192 653 119 c 1
 746 36 l 1
 684 -32 l 1
 589 56 l 1
 528 10 449 -19 347 -19 c 0
 120 -19 51 126 51 280 c 0
 51 311 54 342 59 372 c 2
367 263 m 1
 423 325 l 1
 573 191 l 1
 604 239 625 301 636 372 c 2
 642 408 l 2
 647 439 649 468 649 495 c 0
 649 628 589 709 462 709 c 0
 309 709 217 591 188 408 c 2
 182 372 l 2
 177 341 175 311 175 284 c 0
 175 152 234 71 361 71 c 0
 422 71 475 90 516 124 c 1
 367 263 l 1
EndSplineSet
PickledDataWithLists: "(dp0
Vcom.fontlab.hintData
p1
(dp2
Vvhints
p3
(lp4
(dp5
Vposition
p6
L66L
sVwidth
p7
L10L
sa(dp8
g6
L164L
sg7
L10L
sa(dp9
g6
L407L
sg7
L10L
sa(dp10
g6
L491L
sg7
L10L
sa(dp11
g6
L675L
sg7
L10L
sa(dp12
g6
L690L
sg7
L10L
sa(dp13
g6
L760L
sg7
L10L
sa(dp14
g6
L769L
sg7
L10L
sasVhhints
p15
(lp16
(dp17
g6
L-206L
sg7
L10L
sa(dp18
g6
L-17L
sg7
L10L
sa(dp19
g6
L46L
sg7
L10L
sa(dp20
g6
L514L
sg7
L10L
sa(dp21
g6
L576L
sg7
L10L
sa(dp22
g6
L598L
sg7
L10L
sa(dp23
g6
L742L
sg7
L10L
sa(dp24
g6
L811L
sg7
L10L
sass."
Colour: ff00
EndChar

StartChar: R
Encoding: 53 82 54
GlifName: R_
Width: 730
VWidth: 0
Flags: MW
AnchorPoint: "LatinBelow.mark" 300 0 basechar 0
AnchorPoint: "LatinAbove.mark" 324 150 basechar 0
LayerCount: 2
Fore
SplineSet
295 320 m 1
 262 321 229 322 200 323 c 1
 149 0 l 1
 30 0 l 1
 82 329 l 1
 154 780 l 1
 172 781 294 789 415 789 c 0
 586 789 701 717 701 591 c 0
 701 579 700 567 698 554 c 0
 678 428 571 348 426 326 c 1
 641 6 l 1
 640 0 l 1
 504 0 l 1
 295 320 l 1
214 410 m 1
 246 408 292 406 340 406 c 0
 459 406 561 443 579 554 c 0
 581 563 581 573 581 581 c 0
 581 671 496 703 387 703 c 0
 339 703 292 701 260 699 c 1
 214 410 l 1
EndSplineSet
PickledDataWithLists: "(dp0
Vcom.fontlab.hintData
p1
(dp2
Vvhints
p3
(lp4
(dp5
Vposition
p6
L26L
sVwidth
p7
L10L
sa(dp8
g6
L116L
sg7
L10L
sa(dp9
g6
L126L
sg7
L10L
sa(dp10
g6
L228L
sg7
L10L
sa(dp11
g6
L605L
sg7
L10L
sa(dp12
g6
L705L
sg7
L10L
sa(dp13
g6
L734L
sg7
L10L
sasVhhints
p14
(lp15
(dp16
g6
L-29L
sg7
L10L
sa(dp17
g6
L-24L
sg7
L10L
sa(dp18
g6
L332L
sg7
L10L
sa(dp19
g6
L401L
sg7
L10L
sa(dp20
g6
L430L
sg7
L10L
sa(dp21
g6
L634L
sg7
L10L
sa(dp22
g6
L661L
sg7
L10L
sa(dp23
g6
L745L
sg7
L10L
sa(dp24
g6
L812L
sg7
L10L
sass."
Colour: ff00
EndChar

StartChar: S
Encoding: 54 83 55
GlifName: S_
Width: 710
VWidth: 0
Flags: MW
AnchorPoint: "LatinCedilla.mark" 320 0 basechar 0
AnchorPoint: "LatinBelow.mark" 295 0 basechar 0
AnchorPoint: "LatinAbove.mark" 319 150 basechar 0
LayerCount: 2
Fore
SplineSet
23 179 m 1
 145 196 l 1
 146 137 193 68 306 68 c 0
 426 68 497 118 510 200 c 0
 511 208 512 215 512 222 c 0
 512 282 467 306 431 317 c 0
 377 333 294 360 239 381 c 0
 178 405 103 455 103 549 c 0
 103 559 103 569 105 579 c 0
 125 706 254 799 422 799 c 0
 600 799 668 683 671 605 c 1
 549 588 l 1
 547 646 502 712 408 712 c 0
 307 712 234 661 222 584 c 0
 221 578 221 573 221 568 c 0
 221 517 265 495 307 478 c 0
 359 458 440 432 489 416 c 0
 558 394 631 343 631 243 c 0
 631 231 630 219 628 206 c 0
 608 78 479 -19 292 -19 c 0
 98 -19 25 99 23 179 c 1
EndSplineSet
PickledDataWithLists: "(dp0
Vcom.fontlab.hintData
p1
(dp2
Vvhints
p3
(lp4
(dp5
Vposition
p6
L60L
sVwidth
p7
L10L
sa(dp8
g6
L68L
sg7
L10L
sa(dp9
g6
L159L
sg7
L10L
sa(dp10
g6
L494L
sg7
L10L
sa(dp11
g6
L555L
sg7
L10L
sa(dp12
g6
L594L
sg7
L10L
sa(dp13
g6
L654L
sg7
L10L
sasVhhints
p14
(lp15
(dp16
g6
L-22L
sg7
L10L
sa(dp17
g6
L46L
sg7
L10L
sa(dp18
g6
L192L
sg7
L10L
sa(dp19
g6
L584L
sg7
L10L
sa(dp20
g6
L744L
sg7
L10L
sa(dp21
g6
L812L
sg7
L10L
sass."
Colour: ff00
EndChar

StartChar: T
Encoding: 55 84 56
GlifName: T_
Width: 620
VWidth: 0
Flags: MW
AnchorPoint: "LatinCedilla.mark" 260 0 basechar 0
AnchorPoint: "LatinBelow.mark" 250 0 basechar 0
AnchorPoint: "LatinAbove.mark" 274 150 basechar 0
LayerCount: 2
Fore
SplineSet
79 691 m 1
 94 780 l 1
 654 780 l 1
 639 691 l 1
 419 691 l 1
 310 0 l 1
 190 0 l 1
 299 691 l 1
 79 691 l 1
EndSplineSet
PickledDataWithLists: "(dp0
Vcom.fontlab.hintData
p1
(dp2
Vvhints
p3
(lp4
(dp5
Vposition
p6
L25L
sVwidth
p7
L10L
sa(dp8
g6
L301L
sg7
L10L
sa(dp9
g6
L306L
sg7
L10L
sa(dp10
g6
L407L
sg7
L10L
sa(dp11
g6
L674L
sg7
L10L
sasVhhints
p12
(lp13
(dp14
g6
L-19L
sg7
L10L
sa(dp15
g6
L722L
sg7
L10L
sa(dp16
g6
L731L
sg7
L10L
sa(dp17
g6
L790L
sg7
L10L
sa(dp18
g6
L800L
sg7
L10L
sass."
Colour: ff00
EndChar

StartChar: U
Encoding: 56 85 57
GlifName: U_
Width: 770
VWidth: 0
Flags: MW
AnchorPoint: "LatinOgonek.mark" 420 0 basechar 0
AnchorPoint: "LatinBelow.mark" 325 0 basechar 0
AnchorPoint: "LatinAbove.mark" 349 150 basechar 0
LayerCount: 2
Fore
SplineSet
58 240 m 2
 144 780 l 1
 266 780 l 1
 180 240 l 2
 178 228 177 216 177 205 c 0
 177 115 241 71 336 71 c 0
 442 71 528 127 546 240 c 2
 632 780 l 1
 754 780 l 1
 668 240 l 2
 645 93 508 -18 322 -18 c 0
 154 -18 55 74 55 200 c 0
 55 213 56 226 58 240 c 2
EndSplineSet
PickledDataWithLists: "(dp0
Vcom.fontlab.hintData
p1
(dp2
Vvhints
p3
(lp4
(dp5
Vposition
p6
L96L
sVwidth
p7
L10L
sa(dp8
g6
L107L
sg7
L10L
sa(dp9
g6
L194L
sg7
L10L
sa(dp10
g6
L205L
sg7
L10L
sa(dp11
g6
L603L
sg7
L10L
sa(dp12
g6
L616L
sg7
L10L
sa(dp13
g6
L704L
sg7
L10L
sa(dp14
g6
L714L
sg7
L10L
sasVhhints
p15
(lp16
(dp17
g6
L-24L
sg7
L10L
sa(dp18
g6
L44L
sg7
L10L
sa(dp19
g6
L789L
sg7
L10L
sass."
EndChar

StartChar: V
Encoding: 57 86 58
GlifName: V_
Width: 750
VWidth: 0
Flags: MW
AnchorPoint: "LatinBelow.mark" 315 0 basechar 0
AnchorPoint: "LatinAbove.mark" 339 150 basechar 0
LayerCount: 2
Fore
SplineSet
81 761 m 1
 82 769 l 1
 225 780 l 1
 338 148 l 1
 653 780 l 1
 792 769 l 1
 791 761 l 1
 365 0 l 1
 265 0 l 1
 81 761 l 1
EndSplineSet
PickledDataWithLists: "(dp0
Vcom.fontlab.hintData
p1
(dp2
Vvhints
p3
(lp4
(dp5
Vposition
p6
L41L
sVwidth
p7
L10L
sa(dp8
g6
L759L
sg7
L10L
sasVhhints
p9
(lp10
(dp11
g6
L-21L
sg7
L10L
sa(dp12
g6
L781L
sg7
L10L
sa(dp13
g6
L794L
sg7
L10L
sass."
EndChar

StartChar: W
Encoding: 58 87 59
GlifName: W_
Width: 1060
VWidth: 0
Flags: MW
AnchorPoint: "LatinBelow.mark" 470 0 basechar 0
AnchorPoint: "LatinAbove.mark" 494 150 basechar 0
LayerCount: 2
Fore
SplineSet
1096 761 m 1
 747 0 l 1
 643 0 l 1
 563 590 l 1
 297 0 l 1
 193 0 l 1
 86 761 l 1
 87 769 l 1
 220 780 l 1
 281 168 l 1
 540 760 l 1
 640 760 l 1
 713 168 l 1
 968 780 l 1
 1097 769 l 1
 1096 761 l 1
EndSplineSet
PickledDataWithLists: "(dp0
Vcom.fontlab.hintData
p1
(dp2
Vvhints
p3
(lp4
(dp5
Vposition
p6
L46L
sVwidth
p7
L10L
sa(dp8
g6
L1045L
sg7
L10L
sasVhhints
p9
(lp10
(dp11
g6
L-10L
sg7
L10L
sa(dp12
g6
L762L
sg7
L10L
sa(dp13
g6
L790L
sg7
L10L
sass."
Colour: ff00
EndChar

StartChar: X
Encoding: 59 88 60
GlifName: X_
Width: 740
VWidth: 0
Flags: MW
AnchorPoint: "LatinBelow.mark" 310 0 basechar 0
AnchorPoint: "LatinAbove.mark" 334 150 basechar 0
LayerCount: 2
Fore
SplineSet
116 761 m 1
 117 768 l 1
 252 780 l 1
 388 490 l 1
 616 780 l 1
 747 768 l 1
 746 761 l 1
 444 415 l 1
 676 6 l 1
 675 0 l 1
 536 0 l 1
 361 319 l 1
 84 0 l 1
 -55 0 l 1
 -54 6 l 1
 308 415 l 1
 116 761 l 1
EndSplineSet
PickledDataWithLists: "(dp0
Vcom.fontlab.hintData
p1
(dp2
Vvhints
p3
(lp4
(dp5
Vposition
p6
L31L
sVwidth
p7
L10L
sa(dp8
g6
L91L
sg7
L10L
sa(dp9
g6
L687L
sg7
L10L
sa(dp10
g6
L734L
sg7
L10L
sasVhhints
p11
(lp12
(dp13
g6
L-9L
sg7
L10L
sa(dp14
g6
L4L
sg7
L10L
sa(dp15
g6
L789L
sg7
L10L
sass."
Colour: ff00
EndChar

StartChar: Y
Encoding: 60 89 61
GlifName: Y_
Width: 670
VWidth: 0
Flags: MW
AnchorPoint: "LatinBelow.mark" 275 0 basechar 0
AnchorPoint: "LatinAbove.mark" 299 150 basechar 0
LayerCount: 2
Fore
SplineSet
71 761 m 1
 72 769 l 1
 209 780 l 1
 340 412 l 1
 589 780 l 1
 722 769 l 1
 721 761 l 1
 382 295 l 1
 335 0 l 1
 215 0 l 1
 262 295 l 1
 71 761 l 1
EndSplineSet
PickledDataWithLists: "(dp0
Vcom.fontlab.hintData
p1
(dp2
Vvhints
p3
(lp4
(dp5
Vposition
p6
L35L
sVwidth
p7
L10L
sa(dp8
g6
L310L
sg7
L10L
sa(dp9
g6
L408L
sg7
L10L
sa(dp10
g6
L414L
sg7
L10L
sa(dp11
g6
L675L
sg7
L10L
sasVhhints
p12
(lp13
(dp14
g6
L-20L
sg7
L10L
sa(dp15
g6
L789L
sg7
L10L
sa(dp16
g6
L800L
sg7
L10L
sass."
EndChar

StartChar: Z
Encoding: 61 90 62
GlifName: Z_
Width: 670
VWidth: 0
Flags: MW
AnchorPoint: "LatinBelow.mark" 275 0 basechar 0
AnchorPoint: "LatinAbove.mark" 299 150 basechar 0
LayerCount: 2
Fore
SplineSet
-14 69 m 1
 513 687 l 1
 110 687 l 1
 125 780 l 1
 680 780 l 1
 678 711 l 1
 152 93 l 1
 590 93 l 1
 575 0 l 1
 -16 0 l 1
 -14 69 l 1
EndSplineSet
PickledDataWithLists: "(dp0
Vcom.fontlab.hintData
p1
(dp2
Vvhints
p3
(lp4
(dp5
Vposition
p6
L46L
sVwidth
p7
L10L
sa(dp8
g6
L66L
sg7
L10L
sa(dp9
g6
L679L
sg7
L10L
sa(dp10
g6
L699L
sg7
L10L
sasVhhints
p11
(lp12
(dp13
g6
L-13L
sg7
L10L
sa(dp14
g6
L64L
sg7
L10L
sa(dp15
g6
L75L
sg7
L10L
sa(dp16
g6
L709L
sg7
L10L
sa(dp17
g6
L779L
sg7
L10L
sa(dp18
g6
L785L
sg7
L10L
sa(dp19
g6
L790L
sg7
L10L
sass."
Colour: ff00
EndChar

StartChar: bracketleft
Encoding: 62 91 63
GlifName: bracketleft
Width: 435
VWidth: 0
Flags: MW
LayerCount: 2
Fore
SplineSet
41 -120 m 1
 203 900 l 1
 428 900 l 1
 417 831 l 1
 289 831 l 1
 149 -51 l 1
 275 -51 l 1
 264 -120 l 1
 41 -120 l 1
EndSplineSet
PickledDataWithLists: "(dp0
Vcom.fontlab.hintData
p1
(dp2
Vvhints
p3
(lp4
(dp5
Vposition
p6
L71L
sVwidth
p7
L10L
sa(dp8
g6
L92L
sg7
L10L
sa(dp9
g6
L161L
sg7
L10L
sa(dp10
g6
L289L
sg7
L10L
sasVhhints
p11
(lp12
(dp13
g6
L-91L
sg7
L10L
sa(dp14
g6
L-44L
sg7
L10L
sa(dp15
g6
L830L
sg7
L10L
sa(dp16
g6
L877L
sg7
L10L
sass."
EndChar

StartChar: backslash
Encoding: 63 92 64
GlifName: backslash
Width: 510
VWidth: 0
Flags: MW
LayerCount: 2
Fore
SplineSet
410 0 m 1
 307 0 l 1
 103 774 l 1
 104 780 l 1
 206 780 l 1
 411 6 l 1
 410 0 l 1
EndSplineSet
PickledDataWithLists: "(dp0
Vcom.fontlab.hintData
p1
(dp2
Vvhints
p3
(lp4
(dp5
Vposition
p6
L40L
sVwidth
p7
L10L
sa(dp8
g6
L430L
sg7
L10L
sasVhhints
p9
(lp10
(dp11
g6
L-29L
sg7
L10L
sa(dp12
g6
L819L
sg7
L10L
sass."
EndChar

StartChar: bracketright
Encoding: 64 93 65
GlifName: bracketright
Width: 435
VWidth: 0
Flags: MW
LayerCount: 2
Fore
SplineSet
398 900 m 1
 236 -120 l 1
 11 -120 l 1
 22 -51 l 1
 150 -51 l 1
 290 831 l 1
 164 831 l 1
 175 900 l 1
 398 900 l 1
EndSplineSet
PickledDataWithLists: "(dp0
Vcom.fontlab.hintData
p1
(dp2
Vvhints
p3
(lp4
(dp5
Vposition
p6
L61L
sVwidth
p7
L10L
sa(dp8
g6
L189L
sg7
L10L
sa(dp9
g6
L258L
sg7
L10L
sa(dp10
g6
L279L
sg7
L10L
sasVhhints
p11
(lp12
(dp13
g6
L-90L
sg7
L10L
sa(dp14
g6
L-42L
sg7
L10L
sa(dp15
g6
L829L
sg7
L10L
sa(dp16
g6
L879L
sg7
L10L
sass."
EndChar

StartChar: asciicircum
Encoding: 65 94 66
GlifName: asciicircum
Width: 630
VWidth: 0
Flags: MW
LayerCount: 2
Fore
SplineSet
63 589 m 1
 374 889 l 1
 418 889 l 1
 633 589 l 1
 569 549 l 1
 377 768 l 1
 115 549 l 1
 63 589 l 1
EndSplineSet
PickledDataWithLists: "(dp0
Vcom.fontlab.hintData
p1
(dp2
Vvhints
p3
(lp4
(dp5
Vposition
p6
L23L
sVwidth
p7
L10L
sasVhhints
p8
(lp9
(dp10
g6
L532L
sg7
L10L
sa(dp11
g6
L839L
sg7
L10L
sass."
EndChar

StartChar: underscore
Encoding: 66 95 67
GlifName: underscore
Width: 600
VWidth: 0
Flags: MW
LayerCount: 2
Fore
SplineSet
-60 0 m 25
 540 0 l 25
 526 -86 l 25
 -74 -86 l 25
 -60 0 l 25
EndSplineSet
PickledDataWithLists: "(dp0
Vcom.fontlab.hintData
p1
(dp2
Vvhints
p3
(lp4
(dp5
Vposition
p6
L30L
sVwidth
p7
L10L
sa(dp8
g6
L559L
sg7
L10L
sasVhhints
p9
(lp10
(dp11
g6
L-69L
sg7
L10L
sa(dp12
g6
L-6L
sg7
L10L
sa(dp13
g6
L1L
sg7
L10L
sass."
EndChar

StartChar: grave
Encoding: 67 96 68
GlifName: grave
Width: 390
VWidth: 0
Flags: MW
LayerCount: 2
Fore
SplineSet
71 824 m 1
 167 888 l 1
 393 589 l 1
 329 549 l 1
 71 824 l 1
EndSplineSet
PickledDataWithLists: "(dp0
Vcom.fontlab.hintData
p1
(dp2
Vvhints
p3
(lp4
(dp5
Vposition
p6
L20L
sVwidth
p7
L10L
sasVhhints
p8
(lp9
(dp10
g6
L541L
sg7
L10L
sa(dp11
g6
L838L
sg7
L10L
sass."
EndChar

StartChar: a
Encoding: 68 97 69
GlifName: a
Width: 625
VWidth: 0
Flags: MW
AnchorPoint: "LatinOgonek.mark" 455 0 basechar 0
AnchorPoint: "LatinBelow.mark" 270 0 basechar 0
AnchorPoint: "LatinAbove.mark" 250 0 basechar 0
LayerCount: 2
Fore
SplineSet
22 173 m 0
 34 249 109 323 243 323 c 0
 308 323 372 318 420 313 c 1
 436 419 l 2
 437 428 438 436 438 444 c 0
 438 510 390 537 325 537 c 0
 256 537 202 497 180 424 c 1
 69 433 l 1
 97 526 187 619 338 619 c 0
 471 619 549 550 549 451 c 0
 549 441 548 430 546 419 c 2
 503 143 l 2
 501 132 500 122 500 113 c 0
 500 79 515 65 555 60 c 1
 515 -14 l 1
 475 -9 415 9 405 75 c 1
 362 26 300 -14 211 -14 c 0
 90 -14 19 44 19 139 c 0
 19 150 20 161 22 173 c 0
415 245 m 1
 372 251 309 257 239 257 c 0
 191 257 141 228 132 171 c 0
 131 163 130 154 130 147 c 0
 130 81 179 55 236 55 c 0
 334 55 385 135 409 210 c 1
 415 245 l 1
EndSplineSet
PickledDataWithLists: "(dp0
Vcom.fontlab.hintData
p1
(dp2
Vvhints
p3
(lp4
(dp5
Vposition
p6
L60L
sVwidth
p7
L10L
sa(dp8
g6
L149L
sg7
L10L
sa(dp9
g6
L441L
sg7
L10L
sa(dp10
g6
L529L
sg7
L10L
sa(dp11
g6
L649L
sg7
L10L
sasVhhints
p12
(lp13
(dp14
g6
L-21L
sg7
L10L
sa(dp15
g6
L-11L
sg7
L10L
sa(dp16
g6
L41L
sg7
L10L
sa(dp17
g6
L362L
sg7
L10L
sa(dp18
g6
L432L
sg7
L10L
sa(dp19
g6
L549L
sg7
L10L
sa(dp20
g6
L611L
sg7
L10L
sass."
Substitution2: "Latin.ss20 subtable" uni0251
Substitution2: "Latin.ss19 subtable" uni0251
Colour: ff00
EndChar

StartChar: b
Encoding: 69 98 70
GlifName: b
Width: 675
VWidth: 0
Flags: MW
AnchorPoint: "LatinBelow.mark" 300 0 basechar 0
AnchorPoint: "LatinAbove.mark" 104 180 basechar 0
LayerCount: 2
Fore
SplineSet
609 311 m 2
 606 289 l 2
 584 151 493 -14 306 -14 c 0
 222 -14 173 33 145 92 c 1
 121 0 l 1
 25 0 l 1
 153 810 l 1
 263 810 l 1
 217 518 l 1
 264 572 326 614 405 614 c 0
 562 614 615 498 615 379 c 0
 615 356 613 333 609 311 c 2
194 374 m 1
 171 226 l 1
 178 145 216 69 306 69 c 0
 403 69 471 148 493 289 c 2
 496 311 l 2
 500 336 502 358 502 379 c 0
 502 477 459 531 379 531 c 0
 289 531 227 455 194 374 c 1
EndSplineSet
PickledDataWithLists: "(dp0
Vcom.fontlab.hintData
p1
(dp2
Vvhints
p3
(lp4
(dp5
Vposition
p6
L81L
sVwidth
p7
L10L
sa(dp8
g6
L91L
sg7
L10L
sa(dp9
g6
L179L
sg7
L10L
sa(dp10
g6
L211L
sg7
L10L
sa(dp11
g6
L504L
sg7
L10L
sa(dp12
g6
L593L
sg7
L10L
sasVhhints
p13
(lp14
(dp15
g6
L-21L
sg7
L10L
sa(dp16
g6
L41L
sg7
L10L
sa(dp17
g6
L524L
sg7
L10L
sa(dp18
g6
L546L
sg7
L10L
sa(dp19
g6
L607L
sg7
L10L
sa(dp20
g6
L836L
sg7
L10L
sass."
Colour: ff00
EndChar

StartChar: c
Encoding: 70 99 71
GlifName: c
Width: 605
VWidth: 0
Flags: MW
AnchorPoint: "LatinCedilla.mark" 270 0 basechar 0
AnchorPoint: "LatinBelow.mark" 270 0 basechar 0
AnchorPoint: "LatinAbove.mark" 270 0 basechar 0
LayerCount: 2
Fore
SplineSet
40 287 m 2
 45 313 l 2
 67 451 151 619 369 619 c 0
 529 619 581 515 582 452 c 1
 466 442 l 1
 465 484 430 536 356 536 c 0
 255 536 183 453 161 313 c 2
 156 287 l 2
 152 264 151 243 151 223 c 0
 151 122 197 64 281 64 c 0
 355 64 406 116 421 158 c 1
 533 148 l 1
 512 85 428 -19 268 -19 c 0
 87 -19 34 97 34 215 c 0
 34 239 36 264 40 287 c 2
EndSplineSet
PickledDataWithLists: "(dp0
Vcom.fontlab.hintData
p1
(dp2
Vvhints
p3
(lp4
(dp5
Vposition
p6
L58L
sVwidth
p7
L10L
sa(dp8
g6
L152L
sg7
L10L
sa(dp9
g6
L433L
sg7
L10L
sa(dp10
g6
L527L
sg7
L10L
sa(dp11
g6
L552L
sg7
L10L
sasVhhints
p12
(lp13
(dp14
g6
L-22L
sg7
L10L
sa(dp15
g6
L44L
sg7
L10L
sa(dp16
g6
L133L
sg7
L10L
sa(dp17
g6
L433L
sg7
L10L
sa(dp18
g6
L548L
sg7
L10L
sa(dp19
g6
L614L
sg7
L10L
sass."
Colour: ff00
EndChar

StartChar: d
Encoding: 71 100 72
GlifName: d
Width: 680
VWidth: 0
Flags: MW
AnchorPoint: "LatinBelow.mark" 300 0 basechar 0
AnchorPoint: "LatinAbove.mark" 494 180 basechar 0
LayerCount: 2
Fore
SplineSet
41 289 m 2
 44 311 l 2
 66 449 157 614 344 614 c 0
 424 614 474 570 502 515 c 1
 548 810 l 1
 658 810 l 1
 553 143 l 2
 551 132 550 122 550 113 c 0
 550 79 565 65 605 60 c 1
 565 -14 l 1
 521 -8 453 12 453 94 c 0
 453 99 453 105 454 110 c 1
 406 44 337 -14 245 -14 c 0
 88 -14 35 102 35 221 c 0
 35 244 37 267 41 289 c 2
479 374 m 1
 472 455 434 531 344 531 c 0
 247 531 179 452 157 311 c 2
 154 289 l 2
 150 264 148 242 148 221 c 0
 148 123 191 69 271 69 c 0
 361 69 423 145 456 226 c 1
 479 374 l 1
EndSplineSet
PickledDataWithLists: "(dp0
Vcom.fontlab.hintData
p1
(dp2
Vvhints
p3
(lp4
(dp5
Vposition
p6
L61L
sVwidth
p7
L10L
sa(dp8
g6
L149L
sg7
L10L
sa(dp9
g6
L476L
sg7
L10L
sa(dp10
g6
L564L
sg7
L10L
sa(dp11
g6
L679L
sg7
L10L
sasVhhints
p12
(lp13
(dp14
g6
L-21L
sg7
L10L
sa(dp15
g6
L41L
sg7
L10L
sa(dp16
g6
L544L
sg7
L10L
sa(dp17
g6
L606L
sg7
L10L
sa(dp18
g6
L836L
sg7
L10L
sass."
Colour: ff00
EndChar

StartChar: e
Encoding: 72 101 73
GlifName: e
Width: 640
VWidth: 0
Flags: MW
AnchorPoint: "LatinOgonek.mark" 350 0 basechar 0
AnchorPoint: "LatinBelow.mark" 270 0 basechar 0
AnchorPoint: "LatinAbove.mark" 270 0 basechar 0
LayerCount: 2
Fore
SplineSet
40 286 m 2
 45 314 l 2
 67 452 154 619 365 619 c 0
 517 619 586 521 586 407 c 0
 586 391 585 376 582 360 c 0
 578 333 570 306 561 279 c 1
 150 279 l 1
 147 258 146 239 146 221 c 0
 146 121 190 61 277 61 c 0
 357 61 410 115 424 158 c 1
 531 148 l 1
 510 83 422 -19 264 -19 c 0
 86 -19 34 95 34 213 c 0
 34 237 36 262 40 286 c 2
163 351 m 1
 475 351 l 2
 475 354 476 358 476 361 c 0
 479 377 480 392 480 406 c 0
 480 496 428 539 352 539 c 0
 257 539 191 468 163 351 c 1
EndSplineSet
PickledDataWithLists: "(dp0
Vcom.fontlab.hintData
p1
(dp2
Vvhints
p3
(lp4
(dp5
Vposition
p6
L45L
sVwidth
p7
L10L
sa(dp8
g6
L71L
sg7
L10L
sa(dp9
g6
L159L
sg7
L10L
sa(dp10
g6
L471L
sg7
L10L
sa(dp11
g6
L559L
sg7
L10L
sa(dp12
g6
L570L
sg7
L10L
sasVhhints
p13
(lp14
(dp15
g6
L-20L
sg7
L10L
sa(dp16
g6
L42L
sg7
L10L
sa(dp17
g6
L131L
sg7
L10L
sa(dp18
g6
L552L
sg7
L10L
sa(dp19
g6
L613L
sg7
L10L
sass."
Colour: ff00
EndChar

StartChar: f
Encoding: 73 102 74
GlifName: f
Width: 400
VWidth: 0
Flags: MW
AnchorPoint: "LatinBelow.mark" 120 0 basechar 0
AnchorPoint: "LatinAbove.mark" 239 180 basechar 0
LayerCount: 2
Fore
SplineSet
54 528 m 1
 65 600 l 1
 155 600 l 1
 167 677 l 2
 176 736 228 829 354 829 c 0
 433 829 477 794 489 783 c 1
 431 722 l 1
 419 731 393 750 350 750 c 0
 310 750 284 719 277 677 c 2
 265 600 l 1
 415 600 l 1
 404 528 l 1
 257 528 l 1
 173 0 l 1
 60 0 l 1
 144 528 l 1
 54 528 l 1
EndSplineSet
PickledDataWithLists: "(dp0
Vcom.fontlab.hintData
p1
(dp2
Vvhints
p3
(lp4
(dp5
Vposition
p6
L20L
sVwidth
p7
L10L
sa(dp8
g6
L132L
sg7
L10L
sa(dp9
g6
L166L
sg7
L10L
sa(dp10
g6
L219L
sg7
L9L
sa(dp11
g6
L255L
sg7
L10L
sa(dp12
g6
L399L
sg7
L10L
sa(dp13
g6
L469L
sg7
L10L
sasVhhints
p14
(lp15
(dp16
g6
L-20L
sg7
L10L
sa(dp17
g6
L521L
sg7
L10L
sa(dp18
g6
L586L
sg7
L10L
sa(dp19
g6
L591L
sg7
L10L
sa(dp20
g6
L759L
sg7
L10L
sa(dp21
g6
L803L
sg7
L10L
sa(dp22
g6
L864L
sg7
L10L
sass."
Colour: ff00
EndChar

StartChar: h
Encoding: 75 104 76
GlifName: h
Width: 665
VWidth: 0
Flags: MW
AnchorPoint: "LatinBelow.mark" 300 0 basechar 0
AnchorPoint: "LatinAbove.mark" 104 180 basechar 0
LayerCount: 2
Fore
SplineSet
25 0 m 1
 153 810 l 1
 263 810 l 1
 206 448 l 1
 262 534 346 614 459 614 c 0
 561 614 604 544 604 459 c 0
 604 445 603 431 601 416 c 2
 535 0 l 1
 422 0 l 1
 487 412 l 2
 489 423 490 434 490 443 c 0
 490 503 456 524 415 524 c 0
 319 524 219 407 185 298 c 1
 138 0 l 1
 25 0 l 1
EndSplineSet
PickledDataWithLists: "(dp0
Vcom.fontlab.hintData
p1
(dp2
Vvhints
p3
(lp4
(dp5
Vposition
p6
L65L
sVwidth
p7
L10L
sa(dp8
g6
L106L
sg7
L10L
sa(dp9
g6
L187L
sg7
L10L
sa(dp10
g6
L491L
sg7
L10L
sa(dp11
g6
L496L
sg7
L10L
sa(dp12
g6
L579L
sg7
L10L
sa(dp13
g6
L584L
sg7
L10L
sasVhhints
p14
(lp15
(dp16
g6
L-14L
sg7
L10L
sa(dp17
g6
L549L
sg7
L10L
sa(dp18
g6
L611L
sg7
L10L
sa(dp19
g6
L836L
sg7
L10L
sass."
Colour: ff00
EndChar

StartChar: i
Encoding: 76 105 77
GlifName: i
Width: 300
VWidth: 0
GlyphClass: 3
Flags: MW
AnchorPoint: "LatinOgonek.mark" 95 0 basechar 0
AnchorPoint: "LatinBelow.mark" 90 0 basechar 0
AnchorPoint: "LatinAbove.mark" 119 180 basechar 0
LayerCount: 2
Fore
SplineSet
33 0 m 1
 128 600 l 1
 242 600 l 1
 147 0 l 1
 33 0 l 1
225 854 m 0
 266 854 295 831 295 793 c 0
 295 789 295 784 294 780 c 0
 287 734 247 706 202 706 c 0
 161 706 133 729 133 767 c 0
 133 771 133 776 134 780 c 0
 141 826 180 854 225 854 c 0
EndSplineSet
PickledDataWithLists: "(dp0
Vcom.fontlab.hintData
p1
(dp2
Vvhints
p3
(lp4
(dp5
Vposition
p6
L86L
sVwidth
p7
L10L
sa(dp8
g6
L116L
sg7
L10L
sa(dp9
g6
L204L
sg7
L10L
sa(dp10
g6
L234L
sg7
L10L
sa(dp11
g6
L244L
sg7
L10L
sasVhhints
p12
(lp13
(dp14
g6
L-21L
sg7
L10L
sa(dp15
g6
L595L
sg7
L10L
sa(dp16
g6
L725L
sg7
L10L
sa(dp17
g6
L826L
sg7
L20L
sa(dp18
g6
L852L
sg7
L10L
sass."
Substitution2: "Latin.ij.dotless subtable" dotlessi
Ligature2: "Latin.ij subtable" dotlessi uni0307
EndChar

StartChar: j
Encoding: 77 106 78
GlifName: j
Width: 310
VWidth: 0
GlyphClass: 3
Flags: MW
AnchorPoint: "LatinBelow.mark" 61 -180 basechar 0
AnchorPoint: "LatinAbove.mark" 119 180 basechar 0
LayerCount: 2
Fore
SplineSet
-89 -151 m 1
 -18 -129 28 -95 41 -14 c 2
 138 600 l 1
 252 600 l 1
 154 -21 l 2
 136 -134 37 -198 -64 -224 c 1
 -89 -151 l 1
235 854 m 0
 276 854 305 831 305 793 c 0
 305 789 305 784 304 780 c 0
 297 734 257 706 212 706 c 0
 171 706 143 729 143 767 c 0
 143 771 143 776 144 780 c 0
 151 826 190 854 235 854 c 0
EndSplineSet
PickledDataWithLists: "(dp0
Vcom.fontlab.hintData
p1
(dp2
Vvhints
p3
(lp4
(dp5
Vposition
p6
L31L
sVwidth
p7
L10L
sa(dp8
g6
L86L
sg7
L10L
sa(dp9
g6
L126L
sg7
L10L
sa(dp10
g6
L146L
sg7
L10L
sa(dp11
g6
L234L
sg7
L10L
sa(dp12
g6
L244L
sg7
L10L
sasVhhints
p13
(lp14
(dp15
g6
L-246L
sg7
L10L
sa(dp16
g6
L596L
sg7
L10L
sa(dp17
g6
L725L
sg7
L10L
sa(dp18
g6
L826L
sg7
L20L
sa(dp19
g6
L852L
sg7
L10L
sass."
Substitution2: "Latin.ij.dotless subtable" uni0237
Ligature2: "Latin.ij subtable" uni0237 uni200D uni0307
Ligature2: "Latin.ij subtable" uni0237 uni0307
Ligature2: "Latin.ij subtable" dotlessi uni200D uni0307
EndChar

StartChar: k
Encoding: 78 107 79
GlifName: k
Width: 605
VWidth: 0
Flags: MW
AnchorPoint: "LatinBelow.mark" 300 0 basechar 0
AnchorPoint: "LatinAbove.mark" 104 180 basechar 0
LayerCount: 2
Fore
SplineSet
35 0 m 1
 163 810 l 1
 271 810 l 1
 195 329 l 1
 481 600 l 1
 604 593 l 1
 603 588 l 1
 327 344 l 1
 541 5 l 1
 540 0 l 1
 410 0 l 1
 245 271 l 1
 176 211 l 1
 143 0 l 1
 35 0 l 1
EndSplineSet
PickledDataWithLists: "(dp0
Vcom.fontlab.hintData
p1
(dp2
Vvhints
p3
(lp4
(dp5
Vposition
p6
L75L
sVwidth
p7
L10L
sa(dp8
g6
L105L
sg7
L10L
sa(dp9
g6
L194L
sg7
L10L
sa(dp10
g6
L539L
sg7
L10L
sa(dp11
g6
L580L
sg7
L10L
sasVhhints
p12
(lp13
(dp14
g6
L-11L
sg7
L10L
sa(dp15
g6
L596L
sg7
L10L
sa(dp16
g6
L836L
sg7
L10L
sass."
Colour: ff00
EndChar

StartChar: l
Encoding: 79 108 80
GlifName: l
Width: 315
VWidth: 0
Flags: MW
AnchorPoint: "LatinBelow.mark" 130 0 basechar 0
AnchorPoint: "LatinAbove.mark" 109 180 basechar 0
LayerCount: 2
Fore
SplineSet
50 128 m 2
 158 810 l 1
 271 810 l 1
 165 138 l 2
 164 132 164 127 164 122 c 0
 164 80 197 65 255 60 c 1
 221 -14 l 1
 147 -8 48 11 48 104 c 0
 48 111 49 120 50 128 c 2
EndSplineSet
PickledDataWithLists: "(dp0
Vcom.fontlab.hintData
p1
(dp2
Vvhints
p3
(lp4
(dp5
Vposition
p6
L106L
sVwidth
p7
L10L
sa(dp8
g6
L111L
sg7
L10L
sa(dp9
g6
L194L
sg7
L10L
sa(dp10
g6
L199L
sg7
L10L
sa(dp11
g6
L315L
sg7
L10L
sasVhhints
p12
(lp13
(dp14
g6
L-23L
sg7
L10L
sa(dp15
g6
L830L
sg7
L10L
sass."
EndChar

StartChar: m
Encoding: 80 109 81
GlifName: m
Width: 945
VWidth: 0
Flags: MW
AnchorPoint: "LatinBelow.mark" 420 0 basechar 0
AnchorPoint: "LatinAbove.mark" 420 0 basechar 0
LayerCount: 2
Fore
SplineSet
109 594 m 1
 214 603 l 1
 208 479 l 1
 252 550 317 610 409 610 c 0
 498 610 540 554 546 480 c 1
 590 551 655 610 747 610 c 0
 844 610 885 543 885 460 c 0
 885 446 883 431 881 416 c 2
 815 0 l 1
 702 0 l 1
 767 412 l 2
 769 425 770 436 770 446 c 0
 770 503 740 521 703 521 c 0
 624 521 560 421 528 322 c 1
 477 0 l 1
 363 0 l 1
 428 412 l 2
 430 425 431 437 431 447 c 0
 431 504 402 521 365 521 c 0
 286 521 221 420 189 321 c 1
 138 0 l 1
 25 0 l 1
 92 420 l 1
 109 594 l 1
EndSplineSet
PickledDataWithLists: "(dp0
Vcom.fontlab.hintData
p1
(dp2
Vvhints
p3
(lp4
(dp5
Vposition
p6
L76L
sVwidth
p7
L10L
sa(dp8
g6
L96L
sg7
L10L
sa(dp9
g6
L167L
sg7
L10L
sa(dp10
g6
L436L
sg7
L10L
sa(dp11
g6
L441L
sg7
L10L
sa(dp12
g6
L776L
sg7
L10L
sa(dp13
g6
L781L
sg7
L10L
sa(dp14
g6
L864L
sg7
L10L
sa(dp15
g6
L869L
sg7
L10L
sasVhhints
p16
(lp17
(dp18
g6
L-19L
sg7
L10L
sa(dp19
g6
L-10L
sg7
L10L
sa(dp20
g6
L549L
sg7
L10L
sa(dp21
g6
L606L
sg7
L10L
sa(dp22
g6
L611L
sg7
L10L
sass."
Colour: ff00
EndChar

StartChar: n
Encoding: 81 110 82
GlifName: n
Width: 655
VWidth: 0
Flags: MW
AnchorPoint: "LatinBelow.mark" 300 0 basechar 0
AnchorPoint: "LatinAbove.mark" 270 0 basechar 0
LayerCount: 2
Fore
SplineSet
25 0 m 1
 92 420 l 1
 109 594 l 1
 214 603 l 1
 206 453 l 1
 259 537 340 614 450 614 c 0
 551 614 594 545 594 459 c 0
 594 445 593 430 591 416 c 2
 525 0 l 1
 412 0 l 1
 477 412 l 2
 479 423 480 434 480 443 c 0
 480 503 446 524 406 524 c 0
 312 524 218 408 185 299 c 1
 138 0 l 1
 25 0 l 1
EndSplineSet
PickledDataWithLists: "(dp0
Vcom.fontlab.hintData
p1
(dp2
Vvhints
p3
(lp4
(dp5
Vposition
p6
L55L
sVwidth
p7
L10L
sa(dp8
g6
L96L
sg7
L10L
sa(dp9
g6
L481L
sg7
L10L
sa(dp10
g6
L486L
sg7
L10L
sa(dp11
g6
L569L
sg7
L10L
sa(dp12
g6
L574L
sg7
L10L
sasVhhints
p13
(lp14
(dp15
g6
L-15L
sg7
L10L
sa(dp16
g6
L-10L
sg7
L10L
sa(dp17
g6
L549L
sg7
L10L
sa(dp18
g6
L606L
sg7
L10L
sa(dp19
g6
L611L
sg7
L10L
sass."
Substitution2: "Latin.sups subtable" n.sups
Substitution2: "Latin.sups subtable" n.sups
Colour: ff00
EndChar

StartChar: o
Encoding: 82 111 83
GlifName: o
Width: 660
VWidth: 0
Flags: MW
AnchorPoint: "LatinOgonek.mark" 340 0 basechar 0
AnchorPoint: "LatinBelow.mark" 270 0 basechar 0
AnchorPoint: "LatinAbove.mark" 270 0 basechar 0
LayerCount: 2
Fore
SplineSet
40 286 m 2
 45 314 l 2
 67 452 151 619 368 619 c 0
 548 619 601 504 601 386 c 0
 601 362 599 337 595 314 c 2
 590 286 l 2
 568 148 484 -19 267 -19 c 0
 87 -19 34 96 34 214 c 0
 34 238 36 263 40 286 c 2
280 63 m 0
 385 63 455 146 477 286 c 2
 482 314 l 2
 486 337 488 360 488 380 c 0
 488 480 442 537 355 537 c 0
 250 537 180 454 158 314 c 2
 153 286 l 2
 149 263 147 240 147 220 c 0
 147 120 193 63 280 63 c 0
EndSplineSet
PickledDataWithLists: "(dp0
Vcom.fontlab.hintData
p1
(dp2
Vvhints
p3
(lp4
(dp5
Vposition
p6
L61L
sVwidth
p7
L10L
sa(dp8
g6
L149L
sg7
L10L
sa(dp9
g6
L441L
sg7
L10L
sa(dp10
g6
L506L
sg7
L10L
sa(dp11
g6
L594L
sg7
L10L
sasVhhints
p12
(lp13
(dp14
g6
L-21L
sg7
L10L
sa(dp15
g6
L42L
sg7
L9L
sa(dp16
g6
L552L
sg7
L10L
sa(dp17
g6
L614L
sg7
L10L
sass."
Colour: ff00
EndChar

StartChar: p
Encoding: 83 112 84
GlifName: p
Width: 675
VWidth: 0
Flags: MW
AnchorPoint: "LatinBelow.mark" 61 -180 basechar 0
AnchorPoint: "LatinAbove.mark" 270 0 basechar 0
LayerCount: 2
Fore
SplineSet
609 311 m 2
 606 289 l 2
 584 151 493 -14 306 -14 c 0
 228 -14 180 27 151 80 c 1
 105 -210 l 1
 -8 -210 l 1
 92 420 l 1
 109 594 l 1
 214 603 l 1
 208 508 l 1
 255 566 322 614 405 614 c 0
 562 614 615 498 615 379 c 0
 615 356 613 333 609 311 c 2
172 215 m 1
 181 138 220 69 306 69 c 0
 403 69 471 148 493 289 c 2
 496 311 l 2
 500 336 502 358 502 379 c 0
 502 477 459 531 379 531 c 0
 293 531 232 462 199 385 c 1
 172 215 l 1
EndSplineSet
PickledDataWithLists: "(dp0
Vcom.fontlab.hintData
p1
(dp2
Vvhints
p3
(lp4
(dp5
Vposition
p6
L41L
sVwidth
p7
L10L
sa(dp8
g6
L101L
sg7
L10L
sa(dp9
g6
L108L
sg7
L10L
sa(dp10
g6
L193L
sg7
L10L
sa(dp11
g6
L523L
sg7
L10L
sa(dp12
g6
L612L
sg7
L10L
sasVhhints
p13
(lp14
(dp15
g6
L-246L
sg7
L10L
sa(dp16
g6
L-16L
sg7
L10L
sa(dp17
g6
L46L
sg7
L10L
sa(dp18
g6
L549L
sg7
L10L
sa(dp19
g6
L610L
sg7
L10L
sass."
Colour: ff00
EndChar

StartChar: q
Encoding: 84 113 85
GlifName: q
Width: 675
VWidth: 0
Flags: MW
AnchorPoint: "LatinBelow.mark" 437 -240 basechar 0
AnchorPoint: "LatinAbove.mark" 300 0 basechar 0
LayerCount: 2
Fore
SplineSet
41 289 m 2
 44 311 l 2
 66 449 157 614 344 614 c 0
 428 614 477 567 505 508 c 1
 529 600 l 1
 625 600 l 1
 497 -210 l 1
 387 -210 l 1
 433 82 l 1
 386 28 324 -14 245 -14 c 0
 88 -14 35 102 35 221 c 0
 35 244 37 267 41 289 c 2
456 226 m 1
 479 374 l 1
 472 455 434 531 344 531 c 0
 247 531 179 452 157 311 c 2
 154 289 l 2
 150 264 148 242 148 221 c 0
 148 123 191 69 271 69 c 0
 361 69 423 145 456 226 c 1
EndSplineSet
PickledDataWithLists: "(dp0
Vcom.fontlab.hintData
p1
(dp2
Vvhints
p3
(lp4
(dp5
Vposition
p6
L59L
sVwidth
p7
L10L
sa(dp8
g6
L149L
sg7
L10L
sa(dp9
g6
L444L
sg7
L10L
sa(dp10
g6
L459L
sg7
L10L
sa(dp11
g6
L471L
sg7
L10L
sa(dp12
g6
L547L
sg7
L10L
sa(dp13
g6
L559L
sg7
L10L
sa(dp14
g6
L649L
sg7
L10L
sasVhhints
p15
(lp16
(dp17
g6
L-261L
sg7
L10L
sa(dp18
g6
L-184L
sg7
L10L
sa(dp19
g6
L-17L
sg7
L10L
sa(dp20
g6
L44L
sg7
L10L
sa(dp21
g6
L66L
sg7
L10L
sa(dp22
g6
L549L
sg7
L10L
sa(dp23
g6
L611L
sg7
L10L
sass."
Colour: ff00
EndChar

StartChar: r
Encoding: 85 114 86
GlifName: r
Width: 435
VWidth: 0
Flags: MW
AnchorPoint: "LatinBelow.mark" 110 0 basechar 0
AnchorPoint: "LatinAbove.mark" 180 0 basechar 0
LayerCount: 2
Fore
SplineSet
104 592 m 1
 201 603 l 1
 213 465 l 1
 250 543 308 614 401 614 c 0
 429 614 451 608 470 599 c 1
 412 505 l 1
 400 512 387 517 368 517 c 0
 293 517 236 418 208 318 c 1
 158 0 l 1
 45 0 l 1
 114 435 l 1
 104 592 l 1
EndSplineSet
PickledDataWithLists: "(dp0
Vcom.fontlab.hintData
p1
(dp2
Vvhints
p3
(lp4
(dp5
Vposition
p6
L20L
sVwidth
p7
L10L
sa(dp8
g6
L171L
sg7
L10L
sa(dp9
g6
L261L
sg7
L10L
sa(dp10
g6
L479L
sg7
L10L
sasVhhints
p11
(lp12
(dp13
g6
L-13L
sg7
L10L
sa(dp14
g6
L524L
sg7
L10L
sa(dp15
g6
L549L
sg7
L10L
sa(dp16
g6
L596L
sg7
L10L
sa(dp17
g6
L611L
sg7
L10L
sass."
Colour: ff00
EndChar

StartChar: s
Encoding: 86 115 87
GlifName: s
Width: 570
VWidth: 0
Flags: MW
AnchorPoint: "LatinCedilla.mark" 250 0 basechar 0
AnchorPoint: "LatinBelow.mark" 225 0 basechar 0
AnchorPoint: "LatinAbove.mark" 225 0 basechar 0
LayerCount: 2
Fore
SplineSet
7 139 m 1
 119 153 l 1
 119 109 156 61 239 61 c 0
 321 61 373 99 382 156 c 0
 383 161 383 166 383 171 c 0
 383 214 348 233 323 241 c 0
 280 254 220 272 179 288 c 0
 130 307 69 343 69 419 c 0
 69 427 70 435 71 444 c 0
 87 544 187 619 323 619 c 0
 469 619 522 528 523 465 c 1
 410 450 l 1
 410 494 381 539 310 539 c 0
 239 539 189 504 180 448 c 0
 179 444 179 440 179 437 c 0
 179 399 213 380 241 370 c 0
 282 356 344 337 379 326 c 0
 435 308 492 273 492 191 c 0
 492 181 492 171 490 160 c 0
 474 59 371 -19 222 -19 c 0
 65 -19 9 74 7 139 c 1
EndSplineSet
PickledDataWithLists: "(dp0
Vcom.fontlab.hintData
p1
(dp2
Vvhints
p3
(lp4
(dp5
Vposition
p6
L60L
sVwidth
p7
L10L
sa(dp8
g6
L139L
sg7
L10L
sa(dp9
g6
L381L
sg7
L10L
sa(dp10
g6
L431L
sg7
L10L
sa(dp11
g6
L470L
sg7
L10L
sa(dp12
g6
L516L
sg7
L10L
sasVhhints
p13
(lp14
(dp15
g6
L-20L
sg7
L10L
sa(dp16
g6
L42L
sg7
L10L
sa(dp17
g6
L151L
sg7
L10L
sa(dp18
g6
L434L
sg7
L10L
sa(dp19
g6
L554L
sg7
L10L
sa(dp20
g6
L616L
sg7
L10L
sass."
Colour: ff00
EndChar

StartChar: t
Encoding: 87 116 88
GlifName: t
Width: 415
VWidth: 0
Flags: MW
AnchorPoint: "LatinCedilla.mark" 210 0 basechar 0
AnchorPoint: "LatinBelow.mark" 220 0 basechar 0
AnchorPoint: "LatinAbove.mark" 139 120 basechar 0
LayerCount: 2
Fore
SplineSet
54 528 m 1
 65 600 l 1
 159 600 l 1
 179 726 l 1
 287 735 l 1
 266 600 l 1
 415 600 l 1
 404 528 l 1
 257 528 l 1
 196 144 l 2
 194 132 193 122 193 113 c 0
 193 77 209 67 239 67 c 0
 280 67 321 82 338 92 c 1
 353 18 l 1
 321 2 272 -14 212 -14 c 0
 131 -14 77 17 77 95 c 0
 77 105 78 116 80 128 c 2
 144 528 l 1
 54 528 l 1
EndSplineSet
PickledDataWithLists: "(dp0
Vcom.fontlab.hintData
p1
(dp2
Vvhints
p3
(lp4
(dp5
Vposition
p6
L20L
sVwidth
p7
L10L
sa(dp8
g6
L131L
sg7
L10L
sa(dp9
g6
L136L
sg7
L10L
sa(dp10
g6
L141L
sg7
L10L
sa(dp11
g6
L219L
sg7
L10L
sa(dp12
g6
L225L
sg7
L10L
sa(dp13
g6
L399L
sg7
L10L
sa(dp14
g6
L439L
sg7
L10L
sasVhhints
p15
(lp16
(dp17
g6
L-18L
sg7
L10L
sa(dp18
g6
L41L
sg7
L10L
sa(dp19
g6
L86L
sg7
L10L
sa(dp20
g6
L524L
sg7
L10L
sa(dp21
g6
L586L
sg7
L10L
sa(dp22
g6
L741L
sg7
L10L
sass."
Colour: ff00
EndChar

StartChar: u
Encoding: 88 117 89
GlifName: u
Width: 620
VWidth: 0
Flags: MW
AnchorPoint: "LatinOgonek.mark" 320 0 basechar 0
AnchorPoint: "LatinBelow.mark" 250 0 basechar 0
AnchorPoint: "LatinAbove.mark" 250 0 basechar 0
LayerCount: 2
Fore
SplineSet
35 187 m 2
 100 600 l 1
 213 600 l 1
 148 187 l 2
 146 177 146 168 146 160 c 0
 146 93 193 63 260 63 c 0
 335 63 398 101 412 187 c 2
 477 600 l 1
 590 600 l 1
 525 187 l 2
 507 72 398 -19 247 -19 c 0
 110 -19 32 55 32 155 c 0
 32 165 33 176 35 187 c 2
EndSplineSet
PickledDataWithLists: "(dp0
Vcom.fontlab.hintData
p1
(dp2
Vvhints
p3
(lp4
(dp5
Vposition
p6
L81L
sVwidth
p7
L10L
sa(dp8
g6
L86L
sg7
L10L
sa(dp9
g6
L174L
sg7
L10L
sa(dp10
g6
L471L
sg7
L10L
sa(dp11
g6
L649L
sg7
L10L
sasVhhints
p12
(lp13
(dp14
g6
L-21L
sg7
L10L
sa(dp15
g6
L-16L
sg7
L10L
sa(dp16
g6
L41L
sg7
L10L
sa(dp17
g6
L601L
sg7
L10L
sass."
EndChar

StartChar: v
Encoding: 89 118 90
GlifName: v
Width: 600
VWidth: 0
Flags: MW
AnchorPoint: "LatinBelow.mark" 240 0 basechar 0
AnchorPoint: "LatinAbove.mark" 240 0 basechar 0
LayerCount: 2
Fore
SplineSet
48 585 m 1
 49 591 l 1
 173 600 l 1
 261 133 l 1
 497 600 l 1
 619 591 l 1
 618 585 l 1
 286 0 l 1
 194 0 l 1
 48 585 l 1
EndSplineSet
PickledDataWithLists: "(dp0
Vcom.fontlab.hintData
p1
(dp2
Vvhints
p3
(lp4
(dp5
Vposition
p6
L35L
sVwidth
p7
L10L
sa(dp8
g6
L584L
sg7
L10L
sasVhhints
p9
(lp10
(dp11
g6
L-18L
sg7
L10L
sa(dp12
g6
L581L
sg7
L10L
sa(dp13
g6
L591L
sg7
L10L
sass."
Colour: ff00
EndChar

StartChar: w
Encoding: 90 119 91
GlifName: w
Width: 830
VWidth: 0
Flags: MW
AnchorPoint: "LatinBelow.mark" 355 0 basechar 0
AnchorPoint: "LatinAbove.mark" 355 0 basechar 0
LayerCount: 2
Fore
SplineSet
843 585 m 1
 575 0 l 1
 478 0 l 1
 423 428 l 1
 232 0 l 1
 135 0 l 1
 53 585 l 1
 54 591 l 1
 176 600 l 1
 217 159 l 1
 403 585 l 1
 493 585 l 1
 543 159 l 1
 724 600 l 1
 844 591 l 1
 843 585 l 1
EndSplineSet
PickledDataWithLists: "(dp0
Vcom.fontlab.hintData
p1
(dp2
Vvhints
p3
(lp4
(dp5
Vposition
p6
L41L
sVwidth
p7
L10L
sa(dp8
g6
L790L
sg7
L10L
sasVhhints
p9
(lp10
(dp11
g6
L-11L
sg7
L10L
sa(dp12
g6
L568L
sg7
L10L
sa(dp13
g6
L590L
sg7
L10L
sass."
Colour: ff00
EndChar

StartChar: x
Encoding: 91 120 92
GlifName: x
Width: 600
VWidth: 0
Flags: MW
AnchorPoint: "LatinBelow.mark" 240 0 basechar 0
AnchorPoint: "LatinAbove.mark" 240 0 basechar 0
LayerCount: 2
Fore
SplineSet
83 585 m 1
 84 591 l 1
 205 600 l 1
 302 394 l 1
 465 600 l 1
 584 591 l 1
 583 585 l 1
 353 323 l 1
 531 5 l 1
 530 0 l 1
 403 0 l 1
 277 234 l 1
 77 0 l 1
 -50 0 l 1
 -49 5 l 1
 229 323 l 1
 83 585 l 1
EndSplineSet
PickledDataWithLists: "(dp0
Vcom.fontlab.hintData
p1
(dp2
Vvhints
p3
(lp4
(dp5
Vposition
p6
L26L
sVwidth
p7
L10L
sa(dp8
g6
L71L
sg7
L10L
sa(dp9
g6
L524L
sg7
L10L
sa(dp10
g6
L559L
sg7
L10L
sasVhhints
p11
(lp12
(dp13
g6
L-6L
sg7
L10L
sa(dp14
g6
L5L
sg7
L10L
sa(dp15
g6
L591L
sg7
L10L
sass."
Colour: ff00
EndChar

StartChar: y
Encoding: 92 121 93
GlifName: y
Width: 600
VWidth: 0
Flags: MW
AnchorPoint: "LatinBelow.mark" 211 -180 basechar 0
AnchorPoint: "LatinAbove.mark" 240 0 basechar 0
LayerCount: 2
Fore
SplineSet
48 585 m 1
 49 591 l 1
 173 600 l 1
 261 132 l 1
 497 600 l 1
 619 591 l 1
 618 585 l 1
 276 -24 l 1
 219 -117 161 -229 43 -229 c 0
 -10 -229 -43 -207 -65 -187 c 1
 1 -119 l 1
 16 -134 29 -150 51 -150 c 0
 96 -150 136 -90 188 -3 c 2
 193 6 l 1
 48 585 l 1
EndSplineSet
PickledDataWithLists: "(dp0
Vcom.fontlab.hintData
p1
(dp2
Vvhints
p3
(lp4
(dp5
Vposition
p6
L56L
sVwidth
p7
L10L
sa(dp8
g6
L130L
sg7
L10L
sasVhhints
p9
(lp10
(dp11
g6
L-257L
sg7
L10L
sa(dp12
g6
L-195L
sg7
L10L
sa(dp13
g6
L-164L
sg7
L10L
sa(dp14
g6
L4L
sg7
L10L
sa(dp15
g6
L584L
sg7
L10L
sa(dp16
g6
L595L
sg7
L10L
sass."
Colour: ff00
EndChar

StartChar: z
Encoding: 93 122 94
GlifName: z
Width: 530
VWidth: 0
Flags: MW
AnchorPoint: "LatinBelow.mark" 205 0 basechar 0
AnchorPoint: "LatinAbove.mark" 205 0 basechar 0
LayerCount: 2
Fore
SplineSet
-21 57 m 1
 368 521 l 1
 75 521 l 1
 87 600 l 1
 522 600 l 1
 520 543 l 1
 132 79 l 1
 453 79 l 1
 440 0 l 1
 -23 0 l 1
 -21 57 l 1
EndSplineSet
PickledDataWithLists: "(dp0
Vcom.fontlab.hintData
p1
(dp2
Vvhints
p3
(lp4
(dp5
Vposition
p6
L46L
sVwidth
p7
L10L
sa(dp8
g6
L61L
sg7
L10L
sa(dp9
g6
L531L
sg7
L10L
sa(dp10
g6
L544L
sg7
L10L
sasVhhints
p11
(lp12
(dp13
g6
L-17L
sg7
L10L
sa(dp14
g6
L51L
sg7
L10L
sa(dp15
g6
L59L
sg7
L10L
sa(dp16
g6
L525L
sg7
L15L
sa(dp17
g6
L587L
sg7
L10L
sa(dp18
g6
L592L
sg7
L10L
sass."
Colour: ff00
EndChar

StartChar: braceleft
Encoding: 94 123 95
GlifName: braceleft
Width: 390
VWidth: 0
Flags: MW
LayerCount: 2
Fore
SplineSet
44 370 m 1
 47 390 l 1
 50 410 l 1
 95 419 154 453 167 538 c 0
 168 544 168 550 168 558 c 0
 168 593 161 646 161 692 c 0
 161 708 162 722 164 735 c 0
 179 828 247 900 348 900 c 2
 398 900 l 1
 388 841 l 1
 351 841 l 2
 321 841 278 823 263 728 c 0
 261 717 261 703 261 688 c 0
 261 651 264 605 264 568 c 0
 264 553 264 539 262 528 c 0
 250 454 206 410 154 390 c 1
 193 373 221 338 221 283 c 0
 221 273 220 263 218 252 c 0
 210 201 164 102 156 52 c 0
 154 37 153 23 153 12 c 0
 153 -49 183 -61 208 -61 c 2
 245 -61 l 1
 236 -120 l 1
 186 -120 l 2
 98 -120 52 -65 52 11 c 0
 52 22 53 33 55 45 c 0
 65 105 114 203 120 242 c 0
 122 252 122 261 122 270 c 0
 122 335 82 362 44 370 c 1
EndSplineSet
PickledDataWithLists: "(dp0
Vcom.fontlab.hintData
p1
(dp2
Vvhints
p3
(lp4
(dp5
Vposition
p6
L22L
sVwidth
p7
L10L
sa(dp8
g6
L112L
sg7
L10L
sa(dp9
g6
L128L
sg7
L10L
sa(dp10
g6
L182L
sg7
L10L
sa(dp11
g6
L197L
sg7
L10L
sa(dp12
g6
L205L
sg7
L10L
sa(dp13
g6
L289L
sg7
L10L
sasVhhints
p14
(lp15
(dp16
g6
L-89L
sg7
L10L
sa(dp17
g6
L-41L
sg7
L10L
sa(dp18
g6
L830L
sg7
L10L
sa(dp19
g6
L879L
sg7
L10L
sass."
EndChar

StartChar: bar
Encoding: 95 124 96
GlifName: bar
Width: 360
VWidth: 0
Flags: MW
LayerCount: 2
Fore
SplineSet
51 -120 m 1
 213 900 l 1
 313 900 l 1
 151 -120 l 1
 51 -120 l 1
EndSplineSet
PickledDataWithLists: "(dp0
Vcom.fontlab.hintData
p1
(dp2
Vvhints
p3
(lp4
(dp5
Vposition
p6
L131L
sVwidth
p7
L10L
sa(dp8
g6
L209L
sg7
L10L
sa(dp9
g6
L216L
sg7
L10L
sasVhhints
p10
(lp11
(dp12
g6
L-92L
sg7
L10L
sa(dp13
g6
L882L
sg7
L10L
sass."
EndChar

StartChar: braceright
Encoding: 96 125 97
GlifName: braceright
Width: 390
VWidth: 0
Flags: MW
LayerCount: 2
Fore
SplineSet
350 410 m 1
 347 390 l 1
 344 370 l 1
 299 361 239 327 226 242 c 0
 225 236 225 230 225 222 c 0
 225 187 232 134 232 88 c 0
 232 72 231 58 229 45 c 0
 214 -48 147 -120 46 -120 c 2
 -4 -120 l 1
 5 -61 l 1
 42 -61 l 2
 72 -61 115 -43 130 52 c 0
 132 64 133 79 133 95 c 0
 133 130 129 173 129 209 c 0
 129 225 130 240 132 252 c 0
 144 326 188 370 240 390 c 1
 201 407 173 442 173 497 c 0
 173 507 174 517 176 528 c 0
 184 579 229 678 237 728 c 0
 239 743 240 757 240 768 c 0
 240 829 210 841 185 841 c 2
 148 841 l 1
 158 900 l 1
 208 900 l 2
 296 900 341 845 341 769 c 0
 341 758 340 747 338 735 c 0
 328 675 279 577 273 538 c 0
 271 528 271 519 271 511 c 0
 271 446 312 418 350 410 c 1
EndSplineSet
PickledDataWithLists: "(dp0
Vcom.fontlab.hintData
p1
(dp2
Vvhints
p3
(lp4
(dp5
Vposition
p6
L61L
sVwidth
p7
L10L
sa(dp8
g6
L145L
sg7
L10L
sa(dp9
g6
L153L
sg7
L10L
sa(dp10
g6
L166L
sg7
L10L
sa(dp11
g6
L216L
sg7
L10L
sa(dp12
g6
L222L
sg7
L10L
sa(dp13
g6
L237L
sg7
L10L
sa(dp14
g6
L328L
sg7
L10L
sasVhhints
p15
(lp16
(dp17
g6
L-89L
sg7
L10L
sa(dp18
g6
L-41L
sg7
L10L
sa(dp19
g6
L831L
sg7
L10L
sa(dp20
g6
L879L
sg7
L10L
sass."
EndChar

StartChar: asciitilde
Encoding: 97 126 98
GlifName: asciitilde
Width: 600
VWidth: 0
Flags: MW
LayerCount: 2
Fore
SplineSet
36 324 m 1
 74 399 126 489 219 489 c 0
 281 489 315 447 338 420 c 0
 363 390 380 373 401 373 c 0
 439 373 476 426 498 478 c 1
 567 456 l 1
 529 380 476 291 384 291 c 0
 322 291 289 333 266 360 c 0
 241 390 223 407 202 407 c 0
 164 407 129 355 106 302 c 1
 36 324 l 1
EndSplineSet
PickledDataWithLists: "(dp0
Vcom.fontlab.hintData
p1
(dp2
Vvhints
p3
(lp4
(dp5
Vposition
p6
L51L
sVwidth
p7
L10L
sa(dp8
g6
L539L
sg7
L10L
sasVhhints
p9
(lp10
(dp11
g6
L249L
sg7
L10L
sa(dp12
g6
L260L
sg7
L10L
sa(dp13
g6
L311L
sg7
L10L
sa(dp14
g6
L359L
sg7
L10L
sa(dp15
g6
L411L
sg7
L10L
sa(dp16
g6
L421L
sg7
L10L
sass."
EndChar

StartChar: copyright
Encoding: 107 169 100
GlifName: copyright
Width: 1020
VWidth: 0
Flags: MW
LayerCount: 2
Fore
SplineSet
342 411 m 2
 356 501 413 608 553 608 c 0
 656 608 689 541 691 501 c 1
 615 494 l 1
 614 521 594 553 545 553 c 0
 478 553 432 501 418 411 c 2
 416 395 l 2
 414 380 412 366 412 353 c 0
 412 289 441 253 497 253 c 0
 546 253 577 285 586 312 c 1
 660 305 l 1
 646 265 591 198 488 198 c 0
 371 198 336 273 336 350 c 0
 336 365 338 380 340 395 c 2
 342 411 l 2
449 -9 m 0
 219 -9 85 133 85 331 c 0
 85 355 87 379 91 405 c 0
 128 641 322 819 580 819 c 0
 810 819 943 678 943 480 c 0
 943 456 941 431 937 405 c 0
 900 169 707 -9 449 -9 c 0
458 49 m 0
 674 49 837 193 871 405 c 0
 875 429 877 453 877 475 c 0
 877 648 762 761 571 761 c 0
 355 761 191 617 157 405 c 0
 153 381 151 358 151 336 c 0
 151 163 267 49 458 49 c 0
EndSplineSet
PickledDataWithLists: "(dp0
Vcom.fontlab.hintData
p1
(dp2
Vvhints
p3
(lp4
(dp5
Vposition
p6
L83L
sVwidth
p7
L10L
sa(dp8
g6
L147L
sg7
L10L
sa(dp9
g6
L315L
sg7
L10L
sa(dp10
g6
L395L
sg7
L10L
sa(dp11
g6
L565L
sg7
L10L
sa(dp12
g6
L645L
sg7
L10L
sa(dp13
g6
L661L
sg7
L10L
sa(dp14
g6
L798L
sg7
L10L
sa(dp15
g6
L863L
sg7
L10L
sa(dp16
g6
L927L
sg7
L10L
sasVhhints
p17
(lp18
(dp19
g6
L-27L
sg7
L10L
sa(dp20
g6
L17L
sg7
L10L
sa(dp21
g6
L170L
sg7
L10L
sa(dp22
g6
L224L
sg7
L10L
sa(dp23
g6
L283L
sg7
L10L
sa(dp24
g6
L472L
sg7
L10L
sa(dp25
g6
L549L
sg7
L10L
sa(dp26
g6
L603L
sg7
L10L
sa(dp27
g6
L773L
sg7
L10L
sa(dp28
g6
L817L
sg7
L10L
sass."
EndChar

StartChar: registered
Encoding: 112 174 101
GlifName: registered
Width: 870
VWidth: 0
Flags: MW
LayerCount: 2
Fore
SplineSet
417 266 m 0
 231 266 123 381 123 540 c 0
 123 559 125 579 128 600 c 0
 158 789 314 934 523 934 c 0
 709 934 817 819 817 660 c 0
 817 641 815 621 812 600 c 0
 782 411 626 266 417 266 c 0
424 312 m 0
 597 312 731 427 758 600 c 0
 761 619 763 638 763 656 c 0
 763 797 670 888 516 888 c 0
 343 888 209 773 182 600 c 0
 179 581 177 562 177 544 c 0
 177 403 270 312 424 312 c 0
434 555 m 1
 423 555 411 556 401 556 c 1
 376 400 l 1
 304 400 l 1
 330 560 l 1
 366 790 l 1
 370 790 437 794 501 794 c 0
 590 794 648 757 648 693 c 0
 648 687 647 681 646 675 c 0
 636 614 585 572 513 559 c 1
 617 404 l 1
 616 400 l 1
 534 400 l 1
 434 555 l 1
409 608 m 1
 423 607 443 606 463 606 c 0
 519 606 566 623 574 675 c 0
 575 679 575 683 575 687 c 0
 575 729 536 743 485 743 c 0
 465 743 444 742 430 741 c 1
 409 608 l 1
EndSplineSet
PickledDataWithLists: "(dp0
Vcom.fontlab.hintData
p1
(dp2
Vvhints
p3
(lp4
(dp5
Vposition
p6
L90L
sVwidth
p7
L10L
sa(dp8
g6
L140L
sg7
L10L
sa(dp9
g6
L263L
sg7
L10L
sa(dp10
g6
L301L
sg7
L10L
sa(dp11
g6
L303L
sg7
L10L
sa(dp12
g6
L363L
sg7
L10L
sa(dp13
g6
L480L
sg7
L10L
sa(dp14
g6
L544L
sg7
L10L
sa(dp15
g6
L557L
sg7
L10L
sa(dp16
g6
L628L
sg7
L10L
sa(dp17
g6
L677L
sg7
L10L
sa(dp18
g6
L727L
sg7
L10L
sasVhhints
p19
(lp20
(dp21
g6
L319L
sg7
L10L
sa(dp22
g6
L351L
sg7
L10L
sa(dp23
g6
L469L
sg7
L10L
sa(dp24
g6
L596L
sg7
L20L
sa(dp25
g6
L644L
sg7
L10L
sa(dp26
g6
L654L
sg7
L10L
sa(dp27
g6
L725L
sg7
L11L
sa(dp28
g6
L757L
sg7
L10L
sa(dp29
g6
L799L
sg7
L10L
sa(dp30
g6
L919L
sg7
L10L
sa(dp31
g6
L951L
sg7
L10L
sass."
EndChar

StartChar: guillemotleft
Encoding: 109 171 102
GlifName: guillemotleft
Width: 780
VWidth: 0
Flags: MW
LayerCount: 2
Fore
SplineSet
69 338 m 1
 76 382 l 1
 417 645 l 1
 448 588 l 1
 192 360 l 1
 376 132 l 1
 327 75 l 1
 69 338 l 1
359 338 m 1
 366 382 l 1
 707 645 l 1
 738 588 l 1
 482 360 l 1
 666 132 l 1
 617 75 l 1
 359 338 l 1
EndSplineSet
PickledDataWithLists: "(dp0
Vcom.fontlab.hintData
p1
(dp2
Vvhints
p3
(lp4
(dp5
Vposition
p6
L66L
sVwidth
p7
L10L
sa(dp8
g6
L336L
sg7
L10L
sa(dp9
g6
L356L
sg7
L10L
sa(dp10
g6
L368L
sg7
L10L
sa(dp11
g6
L626L
sg7
L10L
sa(dp12
g6
L638L
sg7
L10L
sasVhhints
p13
(lp14
(dp15
g6
L65L
sg7
L10L
sa(dp16
g6
L605L
sg7
L10L
sass."
EndChar

StartChar: guillemotright
Encoding: 125 187 103
GlifName: guillemotright
Width: 780
VWidth: 0
Flags: MW
LayerCount: 2
Fore
SplineSet
706 382 m 1
 699 338 l 1
 357 75 l 1
 326 132 l 1
 582 360 l 1
 398 588 l 1
 447 645 l 1
 706 382 l 1
416 382 m 1
 409 338 l 1
 67 75 l 1
 36 132 l 1
 292 360 l 1
 108 588 l 1
 157 645 l 1
 416 382 l 1
EndSplineSet
PickledDataWithLists: "(dp0
Vcom.fontlab.hintData
p1
(dp2
Vvhints
p3
(lp4
(dp5
Vposition
p6
L72L
sVwidth
p7
L10L
sa(dp8
g6
L84L
sg7
L10L
sa(dp9
g6
L342L
sg7
L10L
sa(dp10
g6
L354L
sg7
L10L
sa(dp11
g6
L374L
sg7
L10L
sa(dp12
g6
L644L
sg7
L10L
sasVhhints
p13
(lp14
(dp15
g6
L64L
sg7
L10L
sa(dp16
g6
L605L
sg7
L10L
sass."
EndChar

StartChar: uni2010
Encoding: 704 8208 111
GlifName: uni2010
Width: 600
VWidth: 0
Flags: MW
LayerCount: 2
Fore
SplineSet
94 403 m 1
 514 403 l 1
 500 317 l 1
 80 317 l 1
 94 403 l 1
EndSplineSet
PickledDataWithLists: "(dp0
Vcom.fontlab.hintData
p1
(dp2
Vvhints
p3
(lp4
(dp5
Vposition
p6
L75L
sVwidth
p7
L10L
sa(dp8
g6
L514L
sg7
L10L
sasVhhints
p9
(lp10
(dp11
g6
L301L
sg7
L10L
sa(dp12
g6
L363L
sg7
L10L
sa(dp13
g6
L371L
sg7
L10L
sass."
EndChar

StartChar: uni2011
Encoding: 705 8209 112
GlifName: uni2011
Width: 600
VWidth: 0
Flags: MW
LayerCount: 2
Fore
SplineSet
94 403 m 1
 514 403 l 1
 500 317 l 1
 80 317 l 1
 94 403 l 1
EndSplineSet
PickledDataWithLists: "(dp0
Vcom.fontlab.hintData
p1
(dp2
Vvhints
p3
(lp4
(dp5
Vposition
p6
L75L
sVwidth
p7
L10L
sa(dp8
g6
L514L
sg7
L10L
sasVhhints
p9
(lp10
(dp11
g6
L301L
sg7
L10L
sa(dp12
g6
L363L
sg7
L10L
sa(dp13
g6
L371L
sg7
L10L
sass."
EndChar

StartChar: figuredash
Encoding: 706 8210 113
GlifName: figuredash
Width: 660
VWidth: 0
Flags: MW
LayerCount: 2
Fore
SplineSet
94 403 m 1
 574 403 l 1
 560 317 l 1
 80 317 l 1
 94 403 l 1
EndSplineSet
PickledDataWithLists: "(dp0
Vcom.fontlab.hintData
p1
(dp2
Vvhints
p3
(lp4
(dp5
Vposition
p6
L105L
sVwidth
p7
L10L
sa(dp8
g6
L604L
sg7
L10L
sasVhhints
p9
(lp10
(dp11
g6
L301L
sg7
L10L
sa(dp12
g6
L364L
sg7
L10L
sa(dp13
g6
L371L
sg7
L10L
sass."
EndChar

StartChar: uni2015
Encoding: 709 8213 114
GlifName: uni2015
Width: 1200
VWidth: 0
Flags: MW
LayerCount: 2
Fore
SplineSet
94 403 m 1
 1114 403 l 1
 1100 317 l 1
 80 317 l 1
 94 403 l 1
EndSplineSet
PickledDataWithLists: "(dp0
Vcom.fontlab.hintData
p1
(dp2
Vvhints
p3
(lp4
(dp5
Vposition
p6
L90L
sVwidth
p7
L10L
sa(dp8
g6
L1099L
sg7
L10L
sasVhhints
p9
(lp10
(dp11
g6
L299L
sg7
L10L
sa(dp12
g6
L304L
sg7
L10L
sa(dp13
g6
L309L
sg7
L10L
sa(dp14
g6
L361L
sg7
L10L
sa(dp15
g6
L366L
sg7
L10L
sa(dp16
g6
L371L
sg7
L10L
sass."
EndChar

StartChar: endash
Encoding: 707 8211 115
GlifName: endash
Width: 660
VWidth: 0
Flags: MW
LayerCount: 2
Fore
SplineSet
94 403 m 1
 574 403 l 1
 560 317 l 1
 80 317 l 1
 94 403 l 1
EndSplineSet
PickledDataWithLists: "(dp0
Vcom.fontlab.hintData
p1
(dp2
Vvhints
p3
(lp4
(dp5
Vposition
p6
L75L
sVwidth
p7
L10L
sa(dp8
g6
L574L
sg7
L10L
sasVhhints
p9
(lp10
(dp11
g6
L301L
sg7
L10L
sa(dp12
g6
L364L
sg7
L10L
sa(dp13
g6
L371L
sg7
L10L
sass."
EndChar

StartChar: emdash
Encoding: 708 8212 116
GlifName: emdash
Width: 1200
VWidth: 0
Flags: MW
LayerCount: 2
Fore
SplineSet
94 403 m 1
 1114 403 l 1
 1100 317 l 1
 80 317 l 1
 94 403 l 1
EndSplineSet
PickledDataWithLists: "(dp0
Vcom.fontlab.hintData
p1
(dp2
Vvhints
p3
(lp4
(dp5
Vposition
p6
L90L
sVwidth
p7
L10L
sa(dp8
g6
L1099L
sg7
L10L
sasVhhints
p9
(lp10
(dp11
g6
L299L
sg7
L10L
sa(dp12
g6
L304L
sg7
L10L
sa(dp13
g6
L309L
sg7
L10L
sa(dp14
g6
L361L
sg7
L10L
sa(dp15
g6
L366L
sg7
L10L
sa(dp16
g6
L371L
sg7
L10L
sass."
EndChar

StartChar: quoteleft
Encoding: 710 8216 117
GlifName: quoteleft
Width: 330
VWidth: 0
Flags: MW
LayerCount: 2
Fore
SplineSet
287 642 m 0
 280 597 243 564 194 564 c 0
 137 564 115 604 115 651 c 0
 115 660 116 669 117 678 c 0
 134 788 220 867 294 910 c 1
 322 863 l 1
 270 833 222 783 201 712 c 1
 207 713 214 714 221 714 c 0
 260 714 288 691 288 654 c 0
 288 650 288 646 287 642 c 0
EndSplineSet
PickledDataWithLists: "(dp0
Vcom.fontlab.hintData
p1
(dp2
Vvhints
p3
(lp4
(dp5
Vposition
p6
L69L
sVwidth
p7
L10L
sa(dp8
g6
L150L
sg7
L10L
sa(dp9
g6
L255L
sg7
L10L
sasVhhints
p10
(lp11
(dp12
g6
L533L
sg7
L10L
sa(dp13
g6
L602L
sg7
L10L
sa(dp14
g6
L832L
sg7
L10L
sass."
EndChar

StartChar: quoteright
Encoding: 711 8217 118
GlifName: quoteright
Width: 330
VWidth: 0
Flags: MW
LayerCount: 2
Fore
SplineSet
153 808 m 0
 160 853 196 886 245 886 c 0
 302 886 324 846 324 799 c 0
 324 790 323 781 322 772 c 0
 305 662 220 583 146 540 c 1
 118 587 l 1
 170 617 218 667 239 738 c 1
 233 737 226 736 219 736 c 0
 180 736 152 759 152 796 c 0
 152 800 152 804 153 808 c 0
EndSplineSet
PickledDataWithLists: "(dp0
Vcom.fontlab.hintData
p1
(dp2
Vvhints
p3
(lp4
(dp5
Vposition
p6
L61L
sVwidth
p7
L10L
sa(dp8
g6
L170L
sg7
L10L
sa(dp9
g6
L251L
sg7
L10L
sasVhhints
p10
(lp11
(dp12
g6
L538L
sg7
L10L
sa(dp13
g6
L768L
sg7
L10L
sa(dp14
g6
L837L
sg7
L10L
sass."
EndChar

StartChar: quotedblleft
Encoding: 712 8220 119
GlifName: quotedblleft
Width: 570
VWidth: 0
Flags: MW
LayerCount: 2
Fore
SplineSet
297 642 m 0
 290 597 253 564 204 564 c 0
 147 564 125 604 125 651 c 0
 125 660 126 669 127 678 c 0
 144 788 230 867 304 910 c 1
 332 863 l 1
 280 833 232 783 211 712 c 1
 217 713 224 714 231 714 c 0
 270 714 298 691 298 654 c 0
 298 650 298 646 297 642 c 0
517 642 m 0
 510 597 473 564 424 564 c 0
 367 564 345 604 345 651 c 0
 345 660 346 669 347 678 c 0
 364 788 450 867 524 910 c 1
 552 863 l 1
 500 833 452 783 431 712 c 1
 437 713 444 714 451 714 c 0
 490 714 518 691 518 654 c 0
 518 650 518 646 517 642 c 0
EndSplineSet
PickledDataWithLists: "(dp0
Vcom.fontlab.hintData
p1
(dp2
Vvhints
p3
(lp4
(dp5
Vposition
p6
L69L
sVwidth
p7
L10L
sa(dp8
g6
L150L
sg7
L10L
sa(dp9
g6
L255L
sg7
L10L
sa(dp10
g6
L309L
sg7
L10L
sa(dp11
g6
L390L
sg7
L10L
sa(dp12
g6
L495L
sg7
L10L
sasVhhints
p13
(lp14
(dp15
g6
L533L
sg7
L10L
sa(dp16
g6
L602L
sg7
L10L
sa(dp17
g6
L832L
sg7
L10L
sass."
EndChar

StartChar: quotedblright
Encoding: 713 8221 120
GlifName: quotedblright
Width: 570
VWidth: 0
Flags: MW
LayerCount: 2
Fore
SplineSet
163 808 m 0
 170 853 206 886 255 886 c 0
 312 886 334 846 334 799 c 0
 334 790 333 781 332 772 c 0
 315 662 230 583 156 540 c 1
 128 587 l 1
 180 617 228 667 249 738 c 1
 243 737 236 736 229 736 c 0
 190 736 162 759 162 796 c 0
 162 800 162 804 163 808 c 0
383 808 m 0
 390 853 426 886 475 886 c 0
 532 886 554 846 554 799 c 0
 554 790 553 781 552 772 c 0
 535 662 450 583 376 540 c 1
 348 587 l 1
 400 617 448 667 469 738 c 1
 463 737 456 736 449 736 c 0
 410 736 382 759 382 796 c 0
 382 800 382 804 383 808 c 0
EndSplineSet
PickledDataWithLists: "(dp0
Vcom.fontlab.hintData
p1
(dp2
Vvhints
p3
(lp4
(dp5
Vposition
p6
L61L
sVwidth
p7
L10L
sa(dp8
g6
L170L
sg7
L10L
sa(dp9
g6
L251L
sg7
L10L
sa(dp10
g6
L301L
sg7
L10L
sa(dp11
g6
L410L
sg7
L10L
sa(dp12
g6
L491L
sg7
L10L
sasVhhints
p13
(lp14
(dp15
g6
L538L
sg7
L10L
sa(dp16
g6
L768L
sg7
L10L
sa(dp17
g6
L837L
sg7
L10L
sass."
EndChar

StartChar: bullet
Encoding: 718 8226 121
GlifName: bullet
Width: 660
VWidth: 0
Flags: MW
LayerCount: 2
Fore
SplineSet
197 360 m 0
 209 434 272 481 346 481 c 0
 412 481 459 443 459 382 c 0
 459 375 458 368 457 360 c 0
 445 286 382 239 308 239 c 0
 242 239 195 277 195 338 c 0
 195 345 196 352 197 360 c 0
EndSplineSet
PickledDataWithLists: "(dp0
Vcom.fontlab.hintData
p1
(dp2
Vvhints
p3
(lp4
(dp5
Vposition
p6
L231L
sVwidth
p7
L10L
sa(dp8
g6
L479L
sg7
L10L
sasVhhints
p9
(lp10
(dp11
g6
L234L
sg7
L10L
sa(dp12
g6
L456L
sg7
L10L
sass."
EndChar

StartChar: ellipsis
Encoding: 720 8230 122
GlifName: ellipsis
Width: 870
VWidth: 0
GlyphClass: 3
Flags: MW
LayerCount: 2
Fore
SplineSet
128 144 m 0
 169 144 197 121 197 83 c 0
 197 79 197 74 196 70 c 0
 189 24 149 -4 104 -4 c 0
 63 -4 35 19 35 57 c 0
 35 61 35 66 36 70 c 0
 43 116 83 144 128 144 c 0
398 144 m 0
 439 144 467 121 467 83 c 0
 467 79 467 74 466 70 c 0
 459 24 419 -4 374 -4 c 0
 333 -4 305 19 305 57 c 0
 305 61 305 66 306 70 c 0
 313 116 353 144 398 144 c 0
668 144 m 0
 709 144 737 121 737 83 c 0
 737 79 737 74 736 70 c 0
 729 24 689 -4 644 -4 c 0
 603 -4 575 19 575 57 c 0
 575 61 575 66 576 70 c 0
 583 116 623 144 668 144 c 0
EndSplineSet
PickledDataWithLists: "(dp0
Vcom.fontlab.hintData
p1
(dp2
Vvhints
p3
(lp4
(dp5
Vposition
p6
L60L
sVwidth
p7
L10L
sa(dp8
g6
L200L
sg7
L10L
sa(dp9
g6
L285L
sg7
L10L
sa(dp10
g6
L425L
sg7
L10L
sa(dp11
g6
L510L
sg7
L10L
sa(dp12
g6
L650L
sg7
L10L
sasVhhints
p13
(lp14
(dp15
g6
L2L
sg7
L10L
sa(dp16
g6
L115L
sg7
L10L
sass."
Ligature2: "Latin.liga subtable" period uni200D period uni200D period
Ligature2: "Latin.liga subtable" period period period
EndChar

StartChar: Euro
Encoding: 756 8364 124
GlifName: E_uro
Width: 660
VWidth: 0
Flags: MW
LayerCount: 2
Fore
SplineSet
23 432 m 1
 34 498 l 1
 113 498 l 1
 155 650 248 799 439 799 c 0
 608 799 652 665 652 591 c 0
 652 590 652 590 652 589 c 1
 538 579 l 1
 538 644 501 712 425 712 c 0
 337 712 266 634 226 498 c 1
 494 498 l 1
 483 432 l 1
 210 432 l 1
 209 424 207 415 206 407 c 2
 201 373 l 2
 200 365 198 356 197 348 c 1
 470 348 l 1
 460 282 l 1
 192 282 l 1
 192 277 192 271 192 266 c 0
 192 140 238 68 323 68 c 0
 399 68 458 136 478 201 c 1
 589 191 l 1
 566 118 480 -19 309 -19 c 0
 129 -19 78 114 78 257 c 0
 78 265 79 274 79 282 c 1
 -0 282 l 1
 10 348 l 1
 84 348 l 1
 85 356 87 365 88 373 c 2
 93 407 l 2
 94 415 96 424 97 432 c 1
 23 432 l 1
EndSplineSet
PickledDataWithLists: "(dp0
Vcom.fontlab.hintData
p1
(dp2
Vvhints
p3
(lp4
(dp5
Vposition
p6
L21L
sVwidth
p7
L10L
sa(dp8
g6
L115L
sg7
L10L
sa(dp9
g6
L203L
sg7
L10L
sa(dp10
g6
L484L
sg7
L10L
sa(dp11
g6
L659L
sg7
L10L
sasVhhints
p12
(lp13
(dp14
g6
L-15L
sg7
L10L
sa(dp15
g6
L48L
sg7
L9L
sa(dp16
g6
L165L
sg7
L10L
sa(dp17
g6
L268L
sg7
L10L
sa(dp18
g6
L323L
sg7
L10L
sa(dp19
g6
L448L
sg7
L10L
sa(dp20
g6
L453L
sg7
L10L
sa(dp21
g6
L503L
sg7
L10L
sa(dp22
g6
L590L
sg7
L10L
sa(dp23
g6
L745L
sg7
L10L
sa(dp24
g6
L806L
sg7
L10L
sass."
EndChar

StartChar: trademark
Encoding: 767 8482 125
GlifName: trademark
Width: 765
VWidth: 0
Flags: MW
LayerCount: 2
Fore
SplineSet
88 846 m 1
 97 900 l 1
 385 900 l 1
 376 846 l 1
 268 846 l 1
 215 510 l 1
 142 510 l 1
 195 846 l 1
 88 846 l 1
740 510 m 1
 669 510 l 1
 709 766 l 1
 593 608 l 1
 559 608 l 1
 493 766 l 1
 453 510 l 1
 382 510 l 1
 443 894 l 1
 504 900 l 1
 588 680 l 1
 742 900 l 1
 801 894 l 1
 740 510 l 1
EndSplineSet
PickledDataWithLists: "(dp0
Vcom.fontlab.hintData
p1
(dp2
Vvhints
p3
(lp4
(dp5
Vposition
p6
L39L
sVwidth
p7
L10L
sa(dp8
g6
L180L
sg7
L10L
sa(dp9
g6
L251L
sg7
L10L
sa(dp10
g6
L383L
sg7
L10L
sa(dp11
g6
L421L
sg7
L10L
sa(dp12
g6
L440L
sg7
L10L
sa(dp13
g6
L504L
sg7
L10L
sa(dp14
g6
L735L
sg7
L10L
sa(dp15
g6
L800L
sg7
L10L
sa(dp16
g6
L819L
sg7
L10L
sasVhhints
p17
(lp18
(dp19
g6
L381L
sg7
L10L
sa(dp20
g6
L390L
sg7
L10L
sa(dp21
g6
L395L
sg7
L10L
sa(dp22
g6
L473L
sg7
L10L
sa(dp23
g6
L745L
sg7
L10L
sa(dp24
g6
L751L
sg7
L10L
sa(dp25
g6
L803L
sg7
L10L
sass."
EndChar

StartChar: uni25CC
Encoding: 806 9676 126
GlifName: uni25C_C_
Width: 720
VWidth: 0
GlyphClass: 2
Flags: MW
AnchorPoint: "LatinCedilla.mark" 320 0 basechar 0
AnchorPoint: "LatinBelow.mark" 300 0 basechar 0
AnchorPoint: "LatinAbove.mark" 300 0 basechar 0
LayerCount: 2
Fore
SplineSet
332 15 m 0
 329 -2 315 -15 298 -15 c 0
 283 -15 272 -4 272 10 c 0
 272 12 272 13 272 15 c 0
 275 32 290 45 307 45 c 0
 322 45 332 34 332 20 c 0
 332 18 332 17 332 15 c 0
423 585 m 0
 420 568 405 555 388 555 c 0
 373 555 363 566 363 580 c 0
 363 582 363 583 363 585 c 0
 366 602 380 615 397 615 c 0
 412 615 423 604 423 590 c 0
 423 588 423 587 423 585 c 0
637 330 m 0
 652 330 663 319 663 305 c 0
 663 303 663 302 663 300 c 0
 660 283 645 270 628 270 c 0
 613 270 603 281 603 295 c 0
 603 297 603 298 603 300 c 0
 606 317 620 330 637 330 c 0
67 330 m 0
 82 330 93 319 93 305 c 0
 93 303 93 302 93 300 c 0
 90 283 75 270 58 270 c 0
 43 270 33 281 33 295 c 0
 33 297 33 298 33 300 c 0
 36 317 50 330 67 330 c 0
107 439 m 0
 122 439 132 428 132 414 c 0
 132 412 132 411 132 409 c 0
 129 392 114 379 97 379 c 0
 82 379 72 390 72 404 c 0
 72 406 72 407 72 409 c 0
 75 426 90 439 107 439 c 0
72 221 m 0
 87 221 97 210 97 196 c 0
 97 194 97 193 97 191 c 0
 94 174 79 161 62 161 c 0
 47 161 37 172 37 186 c 0
 37 188 37 189 37 191 c 0
 40 208 55 221 72 221 c 0
633 439 m 0
 648 439 658 428 658 414 c 0
 658 412 658 411 658 409 c 0
 655 392 640 379 623 379 c 0
 608 379 598 390 598 404 c 0
 598 406 598 407 598 409 c 0
 601 426 616 439 633 439 c 0
598 221 m 0
 613 221 623 210 623 196 c 0
 623 194 623 193 623 191 c 0
 620 174 605 161 588 161 c 0
 573 161 563 172 563 186 c 0
 563 188 563 189 563 191 c 0
 566 208 581 221 598 221 c 0
182 531 m 0
 197 531 207 520 207 506 c 0
 207 504 207 503 207 501 c 0
 204 484 190 471 173 471 c 0
 158 471 147 482 147 496 c 0
 147 498 147 499 147 501 c 0
 150 518 165 531 182 531 c 0
585 531 m 0
 600 531 610 520 610 506 c 0
 610 504 610 503 610 501 c 0
 607 484 593 471 576 471 c 0
 561 471 550 482 550 496 c 0
 550 498 550 499 550 501 c 0
 553 518 568 531 585 531 c 0
118 128 m 0
 133 128 144 117 144 103 c 0
 144 101 144 100 144 98 c 0
 141 81 126 68 109 68 c 0
 94 68 84 79 84 93 c 0
 84 95 84 96 84 98 c 0
 87 115 101 128 118 128 c 0
521 128 m 0
 536 128 547 117 547 103 c 0
 547 101 547 100 547 98 c 0
 544 81 529 68 512 68 c 0
 497 68 487 79 487 93 c 0
 487 95 487 96 487 98 c 0
 490 115 504 128 521 128 c 0
420 67 m 0
 435 67 445 56 445 42 c 0
 445 40 445 39 445 37 c 0
 442 20 427 7 410 7 c 0
 395 7 385 18 385 32 c 0
 385 34 385 35 385 37 c 0
 388 54 403 67 420 67 c 0
202 67 m 0
 217 67 227 56 227 42 c 0
 227 40 227 39 227 37 c 0
 224 20 209 7 192 7 c 0
 177 7 167 18 167 32 c 0
 167 34 167 35 167 37 c 0
 170 54 185 67 202 67 c 0
503 593 m 0
 518 593 528 582 528 568 c 0
 528 566 528 565 528 563 c 0
 525 546 510 533 493 533 c 0
 478 533 468 544 468 558 c 0
 468 560 468 561 468 563 c 0
 471 580 486 593 503 593 c 0
285 593 m 0
 300 593 310 582 310 568 c 0
 310 566 310 565 310 563 c 0
 307 546 292 533 275 533 c 0
 260 533 250 544 250 558 c 0
 250 560 250 561 250 563 c 0
 253 580 268 593 285 593 c 0
EndSplineSet
PickledDataWithLists: "(dp0
Vcom.fontlab.hintData
p1
(dp2
Vvhints
p3
(lp4
(dp5
Vposition
p6
L40L
sVwidth
p7
L10L
sa(dp8
g6
L76L
sg7
L10L
sa(dp9
g6
L90L
sg7
L10L
sa(dp10
g6
L132L
sg7
L10L
sa(dp11
g6
L180L
sg7
L10L
sa(dp12
g6
L238L
sg7
L10L
sa(dp13
g6
L325L
sg7
L10L
sa(dp14
g6
L385L
sg7
L10L
sa(dp15
g6
L472L
sg7
L10L
sa(dp16
g6
L528L
sg7
L10L
sa(dp17
g6
L581L
sg7
L10L
sa(dp18
g6
L620L
sg7
L10L
sa(dp19
g6
L631L
sg7
L10L
sa(dp20
g6
L670L
sg7
L10L
sasVhhints
p21
(lp22
(dp23
g6
L-20L
sg7
L10L
sa(dp24
g6
L16L
sg7
L10L
sa(dp25
g6
L30L
sg7
L10L
sa(dp26
g6
L69L
sg7
L10L
sa(dp27
g6
L122L
sg7
L10L
sa(dp28
g6
L178L
sg7
L10L
sa(dp29
g6
L265L
sg7
L10L
sa(dp30
g6
L325L
sg7
L10L
sa(dp31
g6
L410L
sg7
L10L
sa(dp32
g6
L468L
sg7
L10L
sa(dp33
g6
L518L
sg7
L10L
sa(dp34
g6
L560L
sg7
L10L
sa(dp35
g6
L574L
sg7
L10L
sa(dp36
g6
L610L
sg7
L10L
sass."
Colour: ff00
EndChar

StartChar: uni0E01
Encoding: 401 3585 127
GlifName: uni0E_01
Width: 655
VWidth: 0
GlyphClass: 2
Flags: MW
LayerCount: 2
Fore
SplineSet
41 0 m 9
 88 294 l 2
 96 344 127 378 172 392 c 1
 56 416 l 1
 87 520 190 619 353 619 c 0
 498 619 586 544 586 434 c 0
 586 423 585 411 583 399 c 2
 520 0 l 1
 413 0 l 1
 476 399 l 2
 478 409 478 419 478 428 c 0
 478 503 425 540 341 540 c 0
 263 540 206 502 175 440 c 1
 313 410 l 1
 295 366 l 2
 293 366 275 369 263 369 c 0
 223 369 202 344 196 304 c 2
 148 0 l 17
 41 0 l 9
EndSplineSet
PickledDataWithLists: "(dp0
Vcom.fontlab.hintData
p1
(dp2
Vvhints
p3
(lp4
(dp5
Vposition
p6
L91L
sVwidth
p7
L10L
sa(dp8
g6
L105L
sg7
L10L
sa(dp9
g6
L179L
sg7
L10L
sa(dp10
g6
L193L
sg7
L10L
sa(dp11
g6
L467L
sg7
L10L
sa(dp12
g6
L476L
sg7
L10L
sa(dp13
g6
L559L
sg7
L10L
sa(dp14
g6
L564L
sg7
L10L
sasVhhints
p15
(lp16
(dp17
g6
L-16L
sg7
L10L
sa(dp18
g6
L4L
sg7
L10L
sa(dp19
g6
L544L
sg7
L10L
sa(dp20
g6
L606L
sg7
L10L
sass."
EndChar

StartChar: uni0E02
Encoding: 402 3586 128
GlifName: uni0E_02
Width: 635
VWidth: 0
GlyphClass: 2
Flags: MW
LayerCount: 2
Fore
SplineSet
144 520 m 0
 117 520 96 501 92 474 c 0
 92 471 91 469 91 466 c 0
 91 444 106 428 130 428 c 0
 157 428 178 447 182 474 c 0
 182 477 183 479 183 482 c 0
 183 504 168 520 144 520 c 0
30 474 m 0
 42 547 116 613 231 613 c 0
 334 613 390 563 390 489 c 0
 390 481 389 473 388 464 c 0
 365 321 206 285 186 158 c 0
 185 152 185 146 185 141 c 0
 185 88 227 60 285 60 c 0
 348 60 403 94 416 177 c 2
 483 600 l 1
 590 600 l 1
 523 177 l 2
 506 68 409 -19 272 -19 c 0
 148 -19 77 41 77 125 c 0
 77 133 78 142 79 150 c 0
 106 321 289 345 309 470 c 0
 310 476 310 481 310 486 c 0
 310 532 275 557 212 557 c 2
 211 557 l 1
 232 543 245 520 245 491 c 0
 245 486 245 480 244 474 c 0
 234 414 182 375 121 375 c 0
 66 375 28 406 28 456 c 0
 28 462 29 468 30 474 c 0
EndSplineSet
PickledDataWithLists: "(dp0
Vcom.fontlab.hintData
p1
(dp2
Vvhints
p3
(lp4
(dp5
Vposition
p6
L14L
sVwidth
p7
L10L
sa(dp8
g6
L547L
sg7
L10L
sasVhhints
p9
(lp10
(dp11
g6
L-19L
sg7
L10L
sa(dp12
g6
L432L
sg7
L10L
sa(dp13
g6
L584L
sg7
L10L
sa(dp14
g6
L594L
sg7
L10L
sass."
EndChar

StartChar: uni0E03
Encoding: 403 3587 129
GlifName: uni0E_03
Width: 635
VWidth: 0
GlyphClass: 2
Flags: MW
LayerCount: 2
Fore
SplineSet
150 556 m 0
 123 556 102 537 98 510 c 0
 98 507 97 504 97 501 c 0
 97 479 111 464 135 464 c 0
 162 464 184 483 188 510 c 0
 188 513 189 515 189 518 c 0
 189 540 174 556 150 556 c 0
158 609 m 0
 213 609 252 578 252 528 c 0
 252 522 251 516 250 510 c 0
 248 495 242 482 235 470 c 1
 277 500 309 549 328 599 c 1
 367 604 l 1
 380 584 394 555 394 512 c 0
 394 501 393 489 391 477 c 0
 368 334 206 286 186 159 c 0
 185 153 185 147 185 142 c 0
 185 89 227 61 285 61 c 0
 348 61 403 94 416 177 c 2
 483 600 l 1
 590 600 l 1
 523 177 l 2
 506 68 409 -19 272 -19 c 0
 148 -19 77 42 77 126 c 0
 77 134 78 143 79 151 c 0
 106 322 293 351 316 489 c 1
 280 438 227 400 145 400 c 0
 72 400 34 437 34 490 c 0
 34 496 35 503 36 510 c 0
 46 570 97 609 158 609 c 0
EndSplineSet
PickledDataWithLists: "(dp0
Vcom.fontlab.hintData
p1
(dp2
Vvhints
p3
(lp4
(dp5
Vposition
p6
L11L
sVwidth
p7
L10L
sa(dp8
g6
L224L
sg7
L10L
sa(dp9
g6
L230L
sg7
L10L
sa(dp10
g6
L297L
sg7
L10L
sasVhhints
p11
(lp12
(dp13
g6
L-24L
sg7
L10L
sa(dp14
g6
L400L
sg7
L10L
sa(dp15
g6
L584L
sg7
L10L
sa(dp16
g6
L603L
sg7
L10L
sass."
EndChar

StartChar: uni0E04
Encoding: 404 3588 130
GlifName: uni0E_04
Width: 665
VWidth: 0
GlyphClass: 2
Flags: MW
LayerCount: 2
Fore
SplineSet
328 365 m 0
 301 365 280 346 276 319 c 0
 276 316 275 313 275 310 c 0
 275 288 289 273 313 273 c 0
 340 273 362 292 366 319 c 0
 366 322 367 324 367 327 c 0
 367 349 352 365 328 365 c 0
336 418 m 0
 391 418 430 387 430 337 c 0
 430 331 429 325 428 319 c 0
 418 259 366 220 305 220 c 0
 267 220 237 235 222 261 c 1
 197 224 174 172 159 100 c 2
 140 0 l 1
 25 0 l 1
 25 0 47 71 54 118 c 0
 60 154 61 181 61 207 c 0
 61 221 60 234 60 249 c 0
 60 285 62 329 73 399 c 0
 93 526 210 619 368 619 c 0
 511 619 596 543 596 434 c 0
 596 423 595 411 593 399 c 2
 530 0 l 1
 423 0 l 1
 439 100 l 2
 447 153 470 271 490 399 c 0
 492 410 492 420 492 429 c 0
 492 505 440 540 356 540 c 0
 262 540 191 495 176 399 c 0
 164 326 160 277 157 241 c 1
 181 301 214 357 257 390 c 0
 279 407 306 418 336 418 c 0
EndSplineSet
PickledDataWithLists: "(dp0
Vcom.fontlab.hintData
p1
(dp2
Vvhints
p3
(lp4
(dp5
Vposition
p6
L59L
sVwidth
p7
L10L
sa(dp8
g6
L142L
sg7
L10L
sa(dp9
g6
L381L
sg7
L10L
sa(dp10
g6
L439L
sg7
L10L
sa(dp11
g6
L508L
sg7
L10L
sa(dp12
g6
L590L
sg7
L10L
sasVhhints
p13
(lp14
(dp15
g6
L-19L
sg7
L10L
sa(dp16
g6
L-4L
sg7
L10L
sa(dp17
g6
L363L
sg7
L10L
sa(dp18
g6
L551L
sg7
L10L
sa(dp19
g6
L608L
sg7
L10L
sass."
EndChar

StartChar: uni0E05
Encoding: 405 3589 131
GlifName: uni0E_05
Width: 665
VWidth: 0
GlyphClass: 2
Flags: MW
LayerCount: 2
Fore
SplineSet
328 365 m 0
 301 365 280 346 276 319 c 0
 276 316 275 313 275 310 c 0
 275 288 289 273 313 273 c 0
 340 273 362 292 366 319 c 0
 366 322 367 324 367 327 c 0
 367 349 352 365 328 365 c 0
336 418 m 0
 391 418 430 387 430 337 c 0
 430 331 429 325 428 319 c 0
 418 259 366 220 305 220 c 0
 267 220 237 235 222 261 c 1
 197 224 174 172 159 100 c 2
 140 0 l 1
 25 0 l 1
 25 0 47 71 54 118 c 0
 60 154 61 181 61 207 c 0
 61 221 60 234 60 249 c 0
 60 285 62 329 73 399 c 0
 86 480 132 613 276 613 c 1
 354 533 l 1
 458 613 l 1
 571 613 598 531 598 457 c 0
 598 437 596 416 593 399 c 2
 530 0 l 1
 423 0 l 1
 439 100 l 2
 447 153 470 271 490 399 c 0
 494 422 495 441 495 458 c 0
 495 507 480 533 452 537 c 1
 356 468 l 1
 344 468 l 1
 332 468 l 1
 258 537 l 1
 218 532 186 488 172 399 c 0
 160 322 157 273 155 236 c 1
 179 298 213 356 257 390 c 0
 279 407 306 418 336 418 c 0
EndSplineSet
PickledDataWithLists: "(dp0
Vcom.fontlab.hintData
p1
(dp2
Vvhints
p3
(lp4
(dp5
Vposition
p6
L60L
sVwidth
p7
L10L
sa(dp8
g6
L142L
sg7
L10L
sa(dp9
g6
L444L
sg7
L10L
sa(dp10
g6
L508L
sg7
L10L
sa(dp11
g6
L590L
sg7
L10L
sasVhhints
p12
(lp13
(dp14
g6
L-18L
sg7
L10L
sa(dp15
g6
L-4L
sg7
L10L
sa(dp16
g6
L363L
sg7
L10L
sa(dp17
g6
L469L
sg7
L10L
sa(dp18
g6
L549L
sg7
L10L
sa(dp19
g6
L606L
sg7
L10L
sass."
EndChar

StartChar: uni0E06
Encoding: 406 3590 132
GlifName: uni0E_06
Width: 650
VWidth: 0
GlyphClass: 2
Flags: MW
LayerCount: 2
Fore
SplineSet
124 136 m 0
 97 136 75 117 71 90 c 0
 71 87 70 85 70 82 c 0
 70 60 85 44 109 44 c 0
 136 44 157 63 161 90 c 0
 161 93 162 96 162 99 c 0
 162 121 148 136 124 136 c 0
160 556 m 0
 133 556 112 537 108 510 c 0
 108 507 107 504 107 501 c 0
 107 479 121 464 145 464 c 0
 172 464 194 483 198 510 c 0
 198 513 199 515 199 518 c 0
 199 540 184 556 160 556 c 0
168 609 m 0
 223 609 262 578 262 528 c 0
 262 522 261 516 260 510 c 0
 258 495 252 482 245 470 c 1
 287 500 319 549 338 599 c 1
 378 604 l 1
 391 584 404 555 404 513 c 0
 404 502 403 490 401 477 c 0
 380 346 242 293 205 189 c 1
 306 179 372 138 416 93 c 1
 419 124 423 159 428 190 c 2
 493 600 l 1
 600 600 l 1
 505 0 l 1
 407 0 l 1
 373 54 314 107 224 124 c 1
 226 114 225 102 223 90 c 0
 213 30 162 -9 101 -9 c 0
 46 -9 7 22 7 72 c 0
 7 78 8 84 9 90 c 0
 17 138 51 172 96 184 c 1
 140 325 305 361 326 489 c 1
 290 438 237 400 155 400 c 0
 82 400 44 437 44 490 c 0
 44 496 45 503 46 510 c 0
 56 570 107 609 168 609 c 0
EndSplineSet
PickledDataWithLists: "(dp0
Vcom.fontlab.hintData
p1
(dp2
Vvhints
p3
(lp4
(dp5
Vposition
p6
L11L
sVwidth
p7
L10L
sa(dp8
g6
L35L
sg7
L10L
sa(dp9
g6
L110L
sg7
L10L
sa(dp10
g6
L239L
sg7
L10L
sa(dp11
g6
L251L
sg7
L10L
sa(dp12
g6
L317L
sg7
L10L
sa(dp13
g6
L325L
sg7
L10L
sa(dp14
g6
L486L
sg7
L10L
sa(dp15
g6
L494L
sg7
L10L
sa(dp16
g6
L566L
sg7
L10L
sa(dp17
g6
L576L
sg7
L10L
sasVhhints
p18
(lp19
(dp20
g6
L-27L
sg7
L10L
sa(dp21
g6
L223L
sg7
L10L
sa(dp22
g6
L277L
sg7
L10L
sa(dp23
g6
L403L
sg7
L10L
sa(dp24
g6
L598L
sg7
L10L
sa(dp25
g6
L608L
sg7
L10L
sass."
EndChar

StartChar: uni0E07
Encoding: 407 3591 133
GlifName: uni0E_07
Width: 525
VWidth: 0
GlyphClass: 2
Flags: MW
AnchorPoint: "ThaiAbove.mark" 485 0 basechar 0
LayerCount: 2
Fore
SplineSet
334 556 m 0
 307 556 286 537 282 510 c 0
 282 507 281 504 281 501 c 0
 281 479 295 464 319 464 c 0
 346 464 368 483 372 510 c 0
 372 513 373 515 373 518 c 0
 373 540 358 556 334 556 c 0
2 328 m 1
 76 388 l 1
 307 86 l 1
 304 99 302 115 302 134 c 0
 302 145 303 157 305 170 c 2
 326 300 l 2
 335 359 352 382 364 421 c 1
 348 414 330 411 311 411 c 0
 256 411 218 442 218 492 c 0
 218 498 219 504 220 510 c 0
 230 570 281 609 342 609 c 0
 426 609 467 566 467 497 c 0
 467 487 466 476 464 465 c 0
 455 409 439 362 428 290 c 2
 382 0 l 1
 268 0 l 1
 2 328 l 1
EndSplineSet
PickledDataWithLists: "(dp0
Vcom.fontlab.hintData
p1
(dp2
Vvhints
p3
(lp4
(dp5
Vposition
p6
L41L
sVwidth
p7
L10L
sa(dp8
g6
L151L
sg7
L10L
sa(dp9
g6
L381L
sg7
L10L
sa(dp10
g6
L469L
sg7
L10L
sasVhhints
p11
(lp12
(dp13
g6
L-26L
sg7
L10L
sa(dp14
g6
L355L
sg7
L10L
sa(dp15
g6
L504L
sg7
L10L
sa(dp16
g6
L549L
sg7
L10L
sa(dp17
g6
L611L
sg7
L10L
sass."
EndChar

StartChar: uni0E08
Encoding: 408 3592 134
GlifName: uni0E_08
Width: 590
VWidth: 0
GlyphClass: 2
Flags: MW
AnchorPoint: "ThaiBelow.mark" 500 0 basechar 0
LayerCount: 2
Fore
SplineSet
38 431 m 1
 66 527 162 619 313 619 c 0
 447 619 529 550 529 449 c 0
 529 439 528 428 526 417 c 0
 502 268 431 197 414 90 c 2
 400 0 l 1
 286 0 l 1
 288 19 289 39 289 58 c 0
 289 116 279 170 262 208 c 1
 239 179 203 162 163 162 c 0
 108 162 69 193 69 243 c 0
 69 249 70 255 71 261 c 0
 81 321 133 360 194 360 c 0
 300 360 335 251 341 146 c 1
 360 245 400 293 420 417 c 0
 421 426 422 434 422 442 c 0
 422 509 374 540 301 540 c 0
 222 540 166 498 144 424 c 1
 38 431 l 1
171 215 m 0
 198 215 219 234 223 261 c 0
 223 264 224 267 224 270 c 0
 224 292 210 307 186 307 c 0
 159 307 137 288 133 261 c 0
 133 258 132 256 132 253 c 0
 132 231 147 215 171 215 c 0
EndSplineSet
PickledDataWithLists: "(dp0
Vcom.fontlab.hintData
p1
(dp2
Vvhints
p3
(lp4
(dp5
Vposition
p6
L31L
sVwidth
p7
L10L
sa(dp8
g6
L101L
sg7
L10L
sa(dp9
g6
L444L
sg7
L10L
sa(dp10
g6
L529L
sg7
L10L
sasVhhints
p11
(lp12
(dp13
g6
L-11L
sg7
L10L
sa(dp14
g6
L229L
sg7
L10L
sa(dp15
g6
L307L
sg7
L10L
sa(dp16
g6
L429L
sg7
L10L
sa(dp17
g6
L552L
sg7
L9L
sa(dp18
g6
L614L
sg7
L10L
sass."
EndChar

StartChar: uni0E09
Encoding: 409 3593 135
GlifName: uni0E_09
Width: 645
VWidth: 0
GlyphClass: 2
Flags: MW
LayerCount: 2
Fore
SplineSet
77 0 m 1
 95 112 l 2
 98 132 107 149 117 162 c 1
 65 164 29 195 29 244 c 0
 29 249 29 255 30 261 c 0
 40 321 92 360 153 360 c 0
 208 360 246 329 246 279 c 0
 246 273 245 267 244 261 c 0
 236 209 209 187 201 136 c 2
 193 89 l 1
 248 137 320 185 418 192 c 1
 422 199 426 206 427 215 c 2
 458 409 l 2
 460 419 460 428 460 437 c 0
 460 508 410 540 331 540 c 0
 246 540 186 493 163 415 c 1
 57 423 l 1
 87 523 186 619 343 619 c 0
 483 619 568 547 568 442 c 0
 568 431 567 420 565 409 c 2
 537 235 l 2
 533 212 518 196 500 183 c 1
 534 172 555 145 555 107 c 0
 555 102 555 96 554 90 c 0
 544 30 493 -9 432 -9 c 0
 377 -9 338 22 338 72 c 0
 338 78 339 84 340 90 c 0
 342 100 345 110 349 119 c 1
 279 97 221 49 175 0 c 1
 77 0 l 1
455 136 m 0
 428 136 406 117 402 90 c 0
 402 87 401 85 401 82 c 0
 401 60 416 44 440 44 c 0
 467 44 488 63 492 90 c 0
 492 93 493 96 493 99 c 0
 493 121 479 136 455 136 c 0
145 307 m 0
 118 307 96 288 92 261 c 0
 92 258 91 256 91 253 c 0
 91 231 106 215 130 215 c 0
 157 215 178 234 182 261 c 0
 182 264 183 267 183 270 c 0
 183 292 169 307 145 307 c 0
EndSplineSet
PickledDataWithLists: "(dp0
Vcom.fontlab.hintData
p1
(dp2
Vvhints
p3
(lp4
(dp5
Vposition
p6
L33L
sVwidth
p7
L10L
sa(dp8
g6
L87L
sg7
L10L
sa(dp9
g6
L156L
sg7
L10L
sa(dp10
g6
L410L
sg7
L10L
sa(dp11
g6
L426L
sg7
L10L
sa(dp12
g6
L480L
sg7
L10L
sa(dp13
g6
L498L
sg7
L10L
sa(dp14
g6
L570L
sg7
L10L
sa(dp15
g6
L640L
sg7
L10L
sasVhhints
p16
(lp17
(dp18
g6
L-19L
sg7
L10L
sa(dp19
g6
L29L
sg7
L10L
sa(dp20
g6
L231L
sg7
L10L
sa(dp21
g6
L279L
sg7
L10L
sa(dp22
g6
L318L
sg7
L10L
sa(dp23
g6
L431L
sg7
L10L
sa(dp24
g6
L557L
sg7
L10L
sa(dp25
g6
L616L
sg7
L10L
sass."
EndChar

StartChar: uni0E0A
Encoding: 410 3594 136
GlifName: uni0E_0A_
Width: 640
VWidth: 0
GlyphClass: 2
Flags: MW
LayerCount: 2
Fore
SplineSet
144 520 m 0
 117 520 96 501 92 474 c 0
 92 471 91 469 91 466 c 0
 91 444 106 428 130 428 c 0
 157 428 178 447 182 474 c 0
 182 477 183 479 183 482 c 0
 183 504 168 520 144 520 c 0
391 484 m 1
 473 495 521 544 537 623 c 1
 642 614 l 1
 628 539 565 480 480 455 c 1
 524 441 553 415 553 375 c 0
 553 370 553 365 552 360 c 2
 523 177 l 2
 506 68 409 -19 272 -19 c 0
 148 -19 77 41 77 125 c 0
 77 133 78 142 79 150 c 0
 106 321 289 345 309 470 c 0
 310 476 310 481 310 486 c 0
 310 532 275 557 212 557 c 2
 211 557 l 1
 232 543 245 520 245 491 c 0
 245 486 245 480 244 474 c 0
 234 414 182 375 121 375 c 0
 66 375 28 406 28 456 c 0
 28 462 29 468 30 474 c 0
 42 547 116 613 231 613 c 0
 333 613 391 564 391 490 c 0
 391 488 391 486 391 484 c 1
379 427 m 1
 338 313 204 273 186 158 c 0
 185 152 185 146 185 141 c 0
 185 88 227 60 285 60 c 0
 348 60 403 94 416 177 c 2
 445 360 l 2
 446 365 446 370 446 374 c 0
 446 404 428 422 379 427 c 1
EndSplineSet
PickledDataWithLists: "(dp0
Vcom.fontlab.hintData
p1
(dp2
Vvhints
p3
(lp4
(dp5
Vposition
p6
L44L
sVwidth
p7
L10L
sa(dp8
g6
L186L
sg7
L10L
sa(dp9
g6
L197L
sg7
L10L
sa(dp10
g6
L268L
sg7
L10L
sa(dp11
g6
L279L
sg7
L10L
sa(dp12
g6
L473L
sg7
L10L
sa(dp13
g6
L555L
sg7
L10L
sa(dp14
g6
L586L
sg7
L10L
sasVhhints
p15
(lp16
(dp17
g6
L-29L
sg7
L10L
sa(dp18
g6
L29L
sg7
L10L
sa(dp19
g6
L437L
sg7
L10L
sa(dp20
g6
L599L
sg7
L10L
sa(dp21
g6
L644L
sg7
L10L
sass."
EndChar

StartChar: uni0E0B
Encoding: 411 3595 137
GlifName: uni0E_0B_
Width: 640
VWidth: 0
GlyphClass: 2
Flags: MW
LayerCount: 2
Fore
SplineSet
150 556 m 0
 123 556 102 537 98 510 c 0
 98 507 97 504 97 501 c 0
 97 479 111 464 135 464 c 0
 162 464 184 483 188 510 c 0
 188 513 189 515 189 518 c 0
 189 540 174 556 150 556 c 0
158 609 m 0
 213 609 252 578 252 528 c 0
 252 522 251 516 250 510 c 0
 248 495 242 482 235 470 c 1
 277 500 309 549 328 599 c 1
 367 604 l 1
 380 584 394 554 394 510 c 0
 394 502 393 493 392 484 c 1
 474 496 521 544 537 623 c 1
 642 614 l 1
 628 539 565 480 480 455 c 1
 524 441 553 415 553 375 c 0
 553 370 553 365 552 360 c 2
 523 177 l 2
 506 68 409 -19 272 -19 c 0
 148 -19 77 42 77 126 c 0
 77 134 78 143 79 151 c 0
 106 322 293 351 316 489 c 1
 280 438 227 400 145 400 c 0
 72 400 34 437 34 490 c 0
 34 496 35 503 36 510 c 0
 46 570 97 609 158 609 c 0
445 360 m 2
 446 365 446 370 446 374 c 0
 446 404 427 423 376 428 c 1
 330 321 204 270 186 159 c 0
 185 153 185 147 185 142 c 0
 185 89 227 61 285 61 c 0
 348 61 403 94 416 177 c 2
 445 360 l 2
EndSplineSet
PickledDataWithLists: "(dp0
Vcom.fontlab.hintData
p1
(dp2
Vvhints
p3
(lp4
(dp5
Vposition
p6
L11L
sVwidth
p7
L10L
sa(dp8
g6
L199L
sg7
L10L
sa(dp9
g6
L226L
sg7
L10L
sa(dp10
g6
L278L
sg7
L10L
sa(dp11
g6
L296L
sg7
L10L
sa(dp12
g6
L474L
sg7
L10L
sa(dp13
g6
L556L
sg7
L10L
sa(dp14
g6
L586L
sg7
L10L
sasVhhints
p15
(lp16
(dp17
g6
L-24L
sg7
L10L
sa(dp18
g6
L34L
sg7
L10L
sa(dp19
g6
L398L
sg7
L10L
sa(dp20
g6
L603L
sg7
L10L
sa(dp21
g6
L608L
sg7
L10L
sa(dp22
g6
L644L
sg7
L10L
sass."
EndChar

StartChar: uni0E0C
Encoding: 412 3596 138
GlifName: uni0E_0C_
Width: 950
VWidth: 0
GlyphClass: 2
Flags: MW
LayerCount: 2
Fore
SplineSet
453 136 m 0
 426 136 404 117 400 90 c 0
 400 87 399 85 399 82 c 0
 399 60 414 44 438 44 c 0
 465 44 486 63 490 90 c 0
 490 93 491 96 491 99 c 0
 491 121 477 136 453 136 c 0
353 619 m 0
 498 619 586 544 586 434 c 0
 586 423 585 411 583 399 c 2
 554 215 l 2
 552 205 552 196 552 187 c 1
 633 177 683 138 716 95 c 1
 719 126 723 160 728 190 c 2
 793 600 l 1
 900 600 l 1
 805 0 l 1
 707 0 l 1
 675 56 632 109 554 123 c 1
 554 113 554 103 552 90 c 0
 542 30 491 -9 430 -9 c 0
 375 -9 336 22 336 72 c 0
 336 78 337 84 338 90 c 0
 347 148 397 187 456 189 c 1
 452 198 450 209 450 222 c 0
 450 228 450 233 451 240 c 2
 476 399 l 2
 478 409 478 419 478 428 c 0
 478 503 425 540 341 540 c 0
 263 540 206 502 175 440 c 1
 313 410 l 1
 295 366 l 2
 293 366 275 369 263 369 c 0
 223 369 202 344 196 304 c 2
 186 240 l 2
 183 220 176 203 167 189 c 1
 222 189 259 158 259 108 c 0
 259 102 258 96 257 90 c 0
 247 30 196 -9 135 -9 c 0
 80 -9 41 22 41 72 c 0
 41 78 42 84 43 90 c 0
 50 136 67 165 74 210 c 2
 88 294 l 2
 96 344 127 378 172 392 c 1
 56 416 l 1
 87 520 190 619 353 619 c 0
158 136 m 0
 131 136 109 117 105 90 c 0
 105 87 104 85 104 82 c 0
 104 60 119 44 143 44 c 0
 170 44 191 63 195 90 c 0
 195 93 196 96 196 99 c 0
 196 121 182 136 158 136 c 0
EndSplineSet
PickledDataWithLists: "(dp0
Vcom.fontlab.hintData
p1
(dp2
Vvhints
p3
(lp4
(dp5
Vposition
p6
L84L
sVwidth
p7
L10L
sa(dp8
g6
L93L
sg7
L10L
sa(dp9
g6
L114L
sg7
L10L
sa(dp10
g6
L166L
sg7
L10L
sa(dp11
g6
L196L
sg7
L10L
sa(dp12
g6
L343L
sg7
L10L
sa(dp13
g6
L414L
sg7
L10L
sa(dp14
g6
L502L
sg7
L10L
sa(dp15
g6
L507L
sg7
L10L
sa(dp16
g6
L576L
sg7
L10L
sa(dp17
g6
L780L
sg7
L10L
sa(dp18
g6
L789L
sg7
L10L
sa(dp19
g6
L861L
sg7
L10L
sa(dp20
g6
L871L
sg7
L10L
sasVhhints
p21
(lp22
(dp23
g6
L-26L
sg7
L10L
sa(dp24
g6
L-17L
sg7
L10L
sa(dp25
g6
L41L
sg7
L10L
sa(dp26
g6
L234L
sg7
L10L
sa(dp27
g6
L286L
sg7
L10L
sa(dp28
g6
L546L
sg7
L10L
sa(dp29
g6
L593L
sg7
L10L
sa(dp30
g6
L604L
sg7
L10L
sass."
EndChar

StartChar: uni0E0D
Encoding: 413 3597 139
GlifName: uni0E_0D_
Width: 950
VWidth: 0
GlyphClass: 2
Flags: MW
LayerCount: 2
Fore
SplineSet
158 136 m 0
 131 136 109 117 105 90 c 0
 105 87 104 85 104 82 c 0
 104 60 119 44 143 44 c 0
 170 44 191 63 195 90 c 0
 195 93 196 96 196 99 c 0
 196 121 182 136 158 136 c 0
353 619 m 0
 498 619 586 544 586 434 c 0
 586 423 585 411 583 399 c 2
 545 157 l 2
 544 149 543 141 543 134 c 0
 543 81 578 60 622 60 c 0
 672 60 717 87 728 157 c 2
 798 600 l 1
 905 600 l 1
 835 157 l 2
 820 61 733 -19 609 -19 c 0
 497 -19 436 46 436 129 c 0
 436 138 437 148 438 157 c 2
 476 399 l 2
 478 409 478 419 478 428 c 0
 478 503 425 540 341 540 c 0
 263 540 206 502 175 440 c 1
 313 410 l 1
 295 366 l 2
 293 366 275 369 263 369 c 0
 223 369 202 344 196 304 c 2
 186 240 l 2
 183 220 176 203 167 189 c 1
 222 189 259 158 259 108 c 0
 259 102 258 96 257 90 c 0
 247 30 196 -9 135 -9 c 0
 80 -9 41 22 41 72 c 0
 41 78 42 84 43 90 c 0
 50 136 67 165 74 210 c 2
 88 294 l 2
 96 344 127 378 172 392 c 1
 56 416 l 1
 87 520 190 619 353 619 c 0
494 -113 m 0
 472 -113 455 -128 452 -150 c 0
 452 -152 452 -155 452 -157 c 0
 452 -175 462 -187 482 -187 c 0
 504 -187 521 -172 524 -150 c 0
 524 -148 524 -145 524 -143 c 0
 524 -125 514 -113 494 -113 c 0
502 -66 m 0
 549 -66 579 -93 579 -135 c 0
 579 -140 579 -145 578 -150 c 0
 574 -173 563 -192 548 -206 c 1
 552 -206 557 -206 561 -206 c 2
 581 -206 l 2
 642 -206 694 -176 709 -81 c 1
 788 -90 l 1
 771 -195 689 -258 586 -258 c 2
 526 -258 l 2
 446 -258 397 -225 397 -168 c 0
 397 -162 397 -156 398 -150 c 0
 406 -99 450 -66 502 -66 c 0
EndSplineSet
PickledDataWithLists: "(dp0
Vcom.fontlab.hintData
p1
(dp2
Vvhints
p3
(lp4
(dp5
Vposition
p6
L81L
sVwidth
p7
L10L
sa(dp8
g6
L101L
sg7
L10L
sa(dp9
g6
L169L
sg7
L10L
sa(dp10
g6
L189L
sg7
L10L
sa(dp11
g6
L315L
sg7
L10L
sa(dp12
g6
L471L
sg7
L10L
sa(dp13
g6
L476L
sg7
L10L
sa(dp14
g6
L513L
sg7
L10L
sa(dp15
g6
L559L
sg7
L10L
sa(dp16
g6
L564L
sg7
L10L
sa(dp17
g6
L591L
sg7
L10L
sa(dp18
g6
L771L
sg7
L10L
sa(dp19
g6
L781L
sg7
L10L
sa(dp20
g6
L859L
sg7
L10L
sa(dp21
g6
L869L
sg7
L10L
sa(dp22
g6
L879L
sg7
L10L
sasVhhints
p23
(lp24
(dp25
g6
L-252L
sg7
L10L
sa(dp26
g6
L-197L
sg7
L10L
sa(dp27
g6
L-98L
sg7
L10L
sa(dp28
g6
L-19L
sg7
L10L
sa(dp29
g6
L43L
sg7
L10L
sa(dp30
g6
L56L
sg7
L10L
sa(dp31
g6
L544L
sg7
L10L
sa(dp32
g6
L595L
sg7
L10L
sa(dp33
g6
L606L
sg7
L10L
sass."
Substitution2: "ThaiRC.rd subtable" uni0E0D.rd
Colour: ff00ff
EndChar

StartChar: uni0E0D.rd
Encoding: 832 63642 140
GlifName: uni0E_0D_.rd
Width: 950
VWidth: 0
GlyphClass: 2
Flags: MW
LayerCount: 2
Fore
SplineSet
158 136 m 0
 131 136 109 117 105 90 c 0
 105 87 104 85 104 82 c 0
 104 60 119 44 143 44 c 0
 170 44 191 63 195 90 c 0
 195 93 196 96 196 99 c 0
 196 121 182 136 158 136 c 0
353 619 m 0
 498 619 586 544 586 434 c 0
 586 423 585 411 583 399 c 2
 545 157 l 2
 544 149 543 141 543 134 c 0
 543 81 578 60 622 60 c 0
 672 60 717 87 728 157 c 2
 798 600 l 1
 905 600 l 1
 835 157 l 2
 820 61 733 -19 609 -19 c 0
 497 -19 436 46 436 129 c 0
 436 138 437 148 438 157 c 2
 476 399 l 2
 478 409 478 419 478 428 c 0
 478 503 425 540 341 540 c 0
 263 540 206 502 175 440 c 1
 313 410 l 1
 295 366 l 2
 293 366 275 369 263 369 c 0
 223 369 202 344 196 304 c 2
 186 240 l 2
 183 220 176 203 167 189 c 1
 222 189 259 158 259 108 c 0
 259 102 258 96 257 90 c 0
 247 30 196 -9 135 -9 c 0
 80 -9 41 22 41 72 c 0
 41 78 42 84 43 90 c 0
 50 136 67 165 74 210 c 2
 88 294 l 2
 96 344 127 378 172 392 c 1
 56 416 l 1
 87 520 190 619 353 619 c 0
EndSplineSet
PickledDataWithLists: "(dp0
Vcom.fontlab.hintData
p1
(dp2
Vvhints
p3
(lp4
(dp5
Vposition
p6
L81L
sVwidth
p7
L10L
sa(dp8
g6
L101L
sg7
L10L
sa(dp9
g6
L169L
sg7
L10L
sa(dp10
g6
L189L
sg7
L10L
sa(dp11
g6
L315L
sg7
L10L
sa(dp12
g6
L471L
sg7
L10L
sa(dp13
g6
L476L
sg7
L10L
sa(dp14
g6
L559L
sg7
L10L
sa(dp15
g6
L564L
sg7
L10L
sa(dp16
g6
L771L
sg7
L10L
sa(dp17
g6
L781L
sg7
L10L
sa(dp18
g6
L859L
sg7
L10L
sa(dp19
g6
L869L
sg7
L10L
sasVhhints
p20
(lp21
(dp22
g6
L-19L
sg7
L10L
sa(dp23
g6
L43L
sg7
L10L
sa(dp24
g6
L56L
sg7
L10L
sa(dp25
g6
L544L
sg7
L10L
sa(dp26
g6
L595L
sg7
L10L
sa(dp27
g6
L606L
sg7
L10L
sass."
EndChar

StartChar: uni0E0E
Encoding: 414 3598 141
GlifName: uni0E_0E_
Width: 665
VWidth: 0
GlyphClass: 2
Flags: MW
LayerCount: 2
Fore
SplineSet
109 136 m 0
 82 136 60 117 56 90 c 0
 56 87 55 85 55 82 c 0
 55 60 70 44 94 44 c 0
 121 44 142 63 146 90 c 0
 146 93 147 96 147 99 c 0
 147 121 133 136 109 136 c 0
363 619 m 0
 508 619 596 544 596 434 c 0
 596 423 595 411 593 399 c 2
 518 -75 l 1
 493 -235 l 1
 397 -235 l 1
 351 -199 288 -160 232 -135 c 1
 233 -141 232 -148 231 -155 c 0
 224 -197 182 -247 115 -247 c 0
 59 -247 26 -215 26 -170 c 0
 26 -165 26 -160 27 -155 c 0
 36 -100 84 -62 147 -62 c 0
 222 -62 321 -112 400 -165 c 1
 402 -141 405 -110 411 -75 c 2
 486 399 l 2
 488 409 488 419 488 428 c 0
 488 503 435 540 351 540 c 0
 274 540 216 503 185 441 c 1
 343 410 l 1
 325 366 l 2
 323 366 305 369 293 369 c 0
 253 369 232 344 226 304 c 2
 211 210 l 2
 209 198 209 187 209 177 c 0
 209 159 210 143 210 124 c 0
 210 114 210 102 208 90 c 0
 198 30 147 -9 86 -9 c 0
 31 -9 -8 22 -8 72 c 0
 -8 78 -7 84 -6 90 c 0
 3 149 54 187 113 189 c 1
 110 199 108 210 108 222 c 0
 108 228 108 234 109 240 c 2
 118 294 l 2
 126 344 155 377 200 392 c 1
 66 415 l 1
 66 416 l 1
 97 520 200 619 363 619 c 0
171 -114 m 1
 160 -112 152 -110 143 -110 c 0
 121 -110 95 -123 90 -155 c 0
 89 -158 89 -161 89 -164 c 0
 89 -188 106 -199 125 -199 c 0
 153 -199 175 -180 179 -155 c 0
 180 -151 180 -147 180 -144 c 0
 180 -131 176 -122 171 -114 c 1
EndSplineSet
PickledDataWithLists: "(dp0
Vcom.fontlab.hintData
p1
(dp2
Vvhints
p3
(lp4
(dp5
Vposition
p6
L26L
sVwidth
p7
L10L
sa(dp8
g6
L81L
sg7
L10L
sa(dp9
g6
L126L
sg7
L10L
sa(dp10
g6
L219L
sg7
L10L
sa(dp11
g6
L470L
sg7
L10L
sa(dp12
g6
L476L
sg7
L10L
sa(dp13
g6
L556L
sg7
L10L
sa(dp14
g6
L564L
sg7
L10L
sasVhhints
p15
(lp16
(dp17
g6
L-242L
sg7
L10L
sa(dp18
g6
L-235L
sg7
L10L
sa(dp19
g6
L-137L
sg7
L10L
sa(dp20
g6
L-87L
sg7
L10L
sa(dp21
g6
L-16L
sg7
L10L
sa(dp22
g6
L66L
sg7
L10L
sa(dp23
g6
L544L
sg7
L10L
sa(dp24
g6
L606L
sg7
L10L
sass."
EndChar

StartChar: uni0E0F
Encoding: 415 3599 142
GlifName: uni0E_0F_
Width: 665
VWidth: 0
GlyphClass: 2
Flags: MW
LayerCount: 2
Fore
SplineSet
109 136 m 0
 82 136 60 117 56 90 c 0
 56 87 55 85 55 82 c 0
 55 60 70 44 94 44 c 0
 121 44 142 63 146 90 c 0
 146 93 147 96 147 99 c 0
 147 121 133 136 109 136 c 0
363 619 m 0
 508 619 596 544 596 434 c 0
 596 423 595 411 593 399 c 2
 518 -75 l 1
 493 -235 l 1
 397 -235 l 1
 288 -138 l 1
 274 -156 256 -178 231 -197 c 0
 197 -223 151 -247 102 -247 c 0
 45 -247 11 -216 11 -170 c 0
 11 -165 11 -160 12 -154 c 0
 20 -101 66 -62 128 -62 c 0
 189 -62 216 -104 216 -143 c 0
 216 -146 216 -148 216 -151 c 1
 245 -122 266 -85 271 -75 c 1
 304 -75 l 1
 400 -165 l 1
 402 -141 405 -110 411 -75 c 2
 486 399 l 2
 488 409 488 419 488 428 c 0
 488 503 435 540 351 540 c 0
 274 540 216 503 185 441 c 1
 343 410 l 1
 325 366 l 2
 323 366 305 369 293 369 c 0
 253 369 232 344 226 304 c 2
 211 210 l 2
 209 198 209 187 209 177 c 0
 209 159 210 143 210 124 c 0
 210 114 210 102 208 90 c 0
 198 30 147 -9 86 -9 c 0
 31 -9 -8 22 -8 72 c 0
 -8 78 -7 84 -6 90 c 0
 3 149 54 187 113 189 c 1
 110 199 108 210 108 222 c 0
 108 228 108 234 109 240 c 2
 118 294 l 2
 126 344 155 377 200 392 c 1
 66 415 l 1
 66 416 l 1
 97 520 200 619 363 619 c 0
75 -154 m 0
 74 -157 74 -160 74 -163 c 0
 74 -188 93 -198 113 -198 c 0
 123 -198 133 -197 143 -194 c 1
 152 -185 161 -172 164 -154 c 0
 164 -151 165 -149 165 -147 c 0
 165 -126 149 -110 124 -110 c 0
 103 -110 80 -124 75 -154 c 0
EndSplineSet
PickledDataWithLists: "(dp0
Vcom.fontlab.hintData
p1
(dp2
Vvhints
p3
(lp4
(dp5
Vposition
p6
L26L
sVwidth
p7
L10L
sa(dp8
g6
L81L
sg7
L10L
sa(dp9
g6
L97L
sg7
L10L
sa(dp10
g6
L131L
sg7
L10L
sa(dp11
g6
L166L
sg7
L10L
sa(dp12
g6
L179L
sg7
L10L
sa(dp13
g6
L221L
sg7
L10L
sa(dp14
g6
L470L
sg7
L10L
sa(dp15
g6
L476L
sg7
L10L
sa(dp16
g6
L553L
sg7
L10L
sa(dp17
g6
L564L
sg7
L10L
sasVhhints
p18
(lp19
(dp20
g6
L-240L
sg7
L10L
sa(dp21
g6
L-234L
sg7
L10L
sa(dp22
g6
L-191L
sg7
L10L
sa(dp23
g6
L-88L
sg7
L10L
sa(dp24
g6
L-83L
sg7
L10L
sa(dp25
g6
L-16L
sg7
L10L
sa(dp26
g6
L66L
sg7
L10L
sa(dp27
g6
L544L
sg7
L10L
sa(dp28
g6
L606L
sg7
L10L
sass."
EndChar

StartChar: uni0E10
Encoding: 416 3600 143
GlifName: uni0E_10
Width: 555
VWidth: 0
GlyphClass: 2
Flags: MW
AnchorPoint: "ThaiTone.mark" 475 0 basechar 0
AnchorPoint: "ThaiAbove.mark" 515 0 basechar 0
LayerCount: 2
Fore
SplineSet
141 277 m 0
 114 277 93 258 89 231 c 0
 89 228 88 225 88 222 c 0
 88 200 102 185 126 185 c 0
 153 185 175 204 179 231 c 0
 179 234 180 236 180 239 c 0
 180 261 165 277 141 277 c 0
149 330 m 0
 260 330 294 217 300 116 c 1
 313 172 344 234 353 293 c 0
 354 297 354 302 354 306 c 0
 354 373 261 399 53 399 c 1
 57 424 l 2
 76 541 176 619 302 619 c 0
 379 619 425 589 450 560 c 1
 453 565 456 569 458 572 c 2
 488 613 l 1
 565 598 l 1
 564 593 l 1
 463 485 l 1
 430 485 l 1
 417 507 383 547 307 547 c 0
 246 547 185 520 163 450 c 1
 348 443 459 412 459 324 c 0
 459 318 459 312 458 306 c 0
 445 226 383 139 370 60 c 2
 360 0 l 1
 246 0 l 1
 248 17 249 36 249 53 c 0
 249 104 241 153 225 189 c 1
 203 154 163 132 118 132 c 0
 63 132 25 163 25 213 c 0
 25 219 26 225 27 231 c 0
 37 291 88 330 149 330 c 0
49 -154 m 0
 48 -157 48 -160 48 -163 c 0
 48 -188 67 -198 87 -198 c 0
 97 -198 107 -197 117 -194 c 1
 126 -185 135 -172 138 -154 c 0
 138 -151 139 -149 139 -147 c 0
 139 -126 123 -110 98 -110 c 0
 77 -110 54 -124 49 -154 c 0
190 -151 m 1
 219 -122 240 -85 245 -75 c 1
 278 -75 l 1
 344 -156 l 1
 347 -133 350 -106 355 -75 c 1
 435 -75 l 1
 410 -235 l 1
 341 -235 l 1
 260 -141 l 1
 246 -159 228 -179 205 -197 c 0
 171 -223 125 -247 76 -247 c 0
 19 -247 -15 -216 -15 -170 c 0
 -15 -165 -15 -160 -14 -154 c 0
 -6 -101 40 -62 102 -62 c 0
 163 -62 190 -104 190 -143 c 0
 190 -146 190 -148 190 -151 c 1
EndSplineSet
PickledDataWithLists: "(dp0
Vcom.fontlab.hintData
p1
(dp2
Vvhints
p3
(lp4
(dp5
Vposition
p6
L30L
sVwidth
p7
L10L
sa(dp8
g6
L80L
sg7
L10L
sa(dp9
g6
L89L
sg7
L10L
sa(dp10
g6
L110L
sg7
L10L
sa(dp11
g6
L149L
sg7
L10L
sa(dp12
g6
L160L
sg7
L10L
sa(dp13
g6
L434L
sg7
L10L
sa(dp14
g6
L504L
sg7
L10L
sa(dp15
g6
L510L
sg7
L10L
sa(dp16
g6
L516L
sg7
L10L
sa(dp17
g6
L569L
sg7
L10L
sasVhhints
p18
(lp19
(dp20
g6
L-237L
sg7
L10L
sa(dp21
g6
L-229L
sg7
L10L
sa(dp22
g6
L-189L
sg7
L10L
sa(dp23
g6
L-92L
sg7
L10L
sa(dp24
g6
L-87L
sg7
L10L
sa(dp25
g6
L-72L
sg7
L10L
sa(dp26
g6
L-9L
sg7
L10L
sa(dp27
g6
L197L
sg7
L10L
sa(dp28
g6
L215L
sg7
L10L
sa(dp29
g6
L272L
sg7
L10L
sa(dp30
g6
L366L
sg7
L10L
sa(dp31
g6
L420L
sg7
L10L
sa(dp32
g6
L558L
sg7
L10L
sa(dp33
g6
L612L
sg7
L10L
sa(dp34
g6
L652L
sg7
L10L
sass."
Substitution2: "ThaiRC.rd subtable" uni0E10.rd
Colour: ff00ff
EndChar

StartChar: uni0E10.rd
Encoding: 836 63646 144
GlifName: uni0E_10.rd
Width: 555
VWidth: 0
GlyphClass: 2
Flags: MW
AnchorPoint: "ThaiBelow.mark" 450 0 basechar 0
AnchorPoint: "ThaiTone.mark" 475 0 basechar 0
AnchorPoint: "ThaiAbove.mark" 515 0 basechar 0
LayerCount: 2
Fore
SplineSet
141 277 m 0
 114 277 93 258 89 231 c 0
 89 228 88 225 88 222 c 0
 88 200 102 185 126 185 c 0
 153 185 175 204 179 231 c 0
 179 234 180 236 180 239 c 0
 180 261 165 277 141 277 c 0
149 330 m 0
 260 330 294 217 300 116 c 1
 313 172 344 234 353 293 c 0
 354 297 354 302 354 306 c 0
 354 373 261 399 53 399 c 1
 57 424 l 2
 76 541 176 619 302 619 c 0
 379 619 425 589 450 560 c 1
 453 565 456 569 458 572 c 2
 488 613 l 1
 565 598 l 1
 564 593 l 1
 463 485 l 1
 430 485 l 1
 417 507 383 547 307 547 c 0
 246 547 185 520 163 450 c 1
 348 443 459 412 459 324 c 0
 459 318 459 312 458 306 c 0
 445 226 383 139 370 60 c 2
 360 0 l 1
 246 0 l 1
 248 17 249 36 249 53 c 0
 249 104 241 153 225 189 c 1
 203 154 163 132 118 132 c 0
 63 132 25 163 25 213 c 0
 25 219 26 225 27 231 c 0
 37 291 88 330 149 330 c 0
EndSplineSet
PickledDataWithLists: "(dp0
Vcom.fontlab.hintData
p1
(dp2
Vvhints
p3
(lp4
(dp5
Vposition
p6
L30L
sVwidth
p7
L10L
sa(dp8
g6
L89L
sg7
L10L
sa(dp9
g6
L110L
sg7
L10L
sa(dp10
g6
L430L
sg7
L10L
sa(dp11
g6
L510L
sg7
L10L
sa(dp12
g6
L569L
sg7
L10L
sasVhhints
p13
(lp14
(dp15
g6
L-9L
sg7
L10L
sa(dp16
g6
L197L
sg7
L10L
sa(dp17
g6
L215L
sg7
L10L
sa(dp18
g6
L272L
sg7
L10L
sa(dp19
g6
L366L
sg7
L10L
sa(dp20
g6
L420L
sg7
L10L
sa(dp21
g6
L558L
sg7
L10L
sa(dp22
g6
L612L
sg7
L10L
sa(dp23
g6
L652L
sg7
L10L
sass."
EndChar

StartChar: uni0E11
Encoding: 417 3601 145
GlifName: uni0E_11
Width: 665
VWidth: 0
GlyphClass: 2
Flags: MW
LayerCount: 2
Fore
SplineSet
150 556 m 0
 123 556 102 537 98 510 c 0
 98 507 97 504 97 501 c 0
 97 479 111 464 135 464 c 0
 162 464 184 483 188 510 c 0
 188 513 189 515 189 518 c 0
 189 540 174 556 150 556 c 0
158 609 m 0
 213 609 252 578 252 528 c 0
 252 522 251 516 250 510 c 0
 248 495 242 482 235 470 c 1
 277 500 309 549 328 599 c 1
 368 604 l 1
 380 585 393 557 394 517 c 1
 437 568 486 609 531 609 c 0
 592 609 605 566 605 525 c 0
 605 512 604 498 602 487 c 2
 525 0 l 1
 418 0 l 1
 492 468 l 2
 493 476 494 483 494 490 c 0
 494 506 490 518 477 520 c 1
 450 512 406 464 375 423 c 1
 331 319 219 269 202 159 c 2
 177 0 l 1
 70 0 l 1
 94 151 l 2
 121 322 293 351 316 489 c 1
 280 438 227 400 145 400 c 0
 72 400 34 437 34 490 c 0
 34 496 35 503 36 510 c 0
 46 570 97 609 158 609 c 0
EndSplineSet
PickledDataWithLists: "(dp0
Vcom.fontlab.hintData
p1
(dp2
Vvhints
p3
(lp4
(dp5
Vposition
p6
L11L
sVwidth
p7
L10L
sa(dp8
g6
L161L
sg7
L10L
sa(dp9
g6
L235L
sg7
L10L
sa(dp10
g6
L283L
sg7
L10L
sa(dp11
g6
L524L
sg7
L10L
sa(dp12
g6
L529L
sg7
L10L
sa(dp13
g6
L606L
sg7
L10L
sa(dp14
g6
L608L
sg7
L10L
sasVhhints
p15
(lp16
(dp17
g6
L-15L
sg7
L10L
sa(dp18
g6
L-8L
sg7
L10L
sa(dp19
g6
L398L
sg7
L10L
sa(dp20
g6
L602L
sg7
L10L
sa(dp21
g6
L611L
sg7
L10L
sass."
EndChar

StartChar: uni0E12
Encoding: 418 3602 146
GlifName: uni0E_12
Width: 960
VWidth: 0
GlyphClass: 2
Flags: MW
LayerCount: 2
Fore
SplineSet
328 365 m 0
 301 365 280 346 276 319 c 0
 276 316 275 313 275 310 c 0
 275 288 289 273 313 273 c 0
 340 273 362 292 366 319 c 0
 366 322 367 324 367 327 c 0
 367 349 352 365 328 365 c 0
463 136 m 0
 436 136 414 117 410 90 c 0
 410 87 409 85 409 82 c 0
 409 60 424 44 448 44 c 0
 475 44 496 63 500 90 c 0
 500 93 501 96 501 99 c 0
 501 121 487 136 463 136 c 0
276 613 m 1
 354 533 l 1
 458 613 l 1
 571 613 598 531 598 457 c 0
 598 437 596 416 593 399 c 2
 564 215 l 2
 562 205 562 196 562 187 c 1
 643 177 693 138 726 95 c 1
 729 126 733 160 738 190 c 2
 803 600 l 1
 910 600 l 1
 815 0 l 1
 717 0 l 1
 685 56 642 109 564 123 c 1
 564 113 564 103 562 90 c 0
 552 30 501 -9 440 -9 c 0
 385 -9 346 22 346 72 c 0
 346 78 347 84 348 90 c 0
 358 150 410 188 470 189 c 1
 466 198 464 210 464 224 c 0
 464 229 464 234 465 240 c 2
 490 399 l 2
 494 422 495 441 495 458 c 0
 495 507 480 533 452 537 c 1
 356 468 l 1
 344 468 l 1
 332 468 l 1
 258 537 l 1
 218 532 186 488 172 399 c 0
 159 318 158 273 158 237 c 0
 158 234 158 230 158 227 c 0
 158 203 158 183 154 157 c 0
 150 134 145 108 140 92 c 1
 194 147 263 178 314 220 c 1
 311 220 308 220 305 220 c 0
 250 220 212 251 212 301 c 0
 212 307 213 313 214 319 c 0
 224 379 275 418 336 418 c 0
 391 418 430 387 430 337 c 0
 430 331 429 325 428 319 c 0
 403 162 199 121 146 0 c 1
 25 0 l 1
 25 0 47 71 54 118 c 0
 60 154 61 181 61 207 c 0
 61 221 60 234 60 249 c 0
 60 285 62 329 73 399 c 0
 86 480 132 613 276 613 c 1
EndSplineSet
PickledDataWithLists: "(dp0
Vcom.fontlab.hintData
p1
(dp2
Vvhints
p3
(lp4
(dp5
Vposition
p6
L64L
sVwidth
p7
L10L
sa(dp8
g6
L146L
sg7
L10L
sa(dp9
g6
L322L
sg7
L10L
sa(dp10
g6
L328L
sg7
L10L
sa(dp11
g6
L375L
sg7
L10L
sa(dp12
g6
L445L
sg7
L10L
sa(dp13
g6
L535L
sg7
L10L
sa(dp14
g6
L605L
sg7
L10L
sa(dp15
g6
L781L
sg7
L10L
sa(dp16
g6
L789L
sg7
L10L
sa(dp17
g6
L861L
sg7
L10L
sa(dp18
g6
L871L
sg7
L10L
sasVhhints
p19
(lp20
(dp21
g6
L-19L
sg7
L10L
sa(dp22
g6
L-15L
sg7
L10L
sa(dp23
g6
L37L
sg7
L10L
sa(dp24
g6
L241L
sg7
L10L
sa(dp25
g6
L289L
sg7
L10L
sa(dp26
g6
L412L
sg7
L10L
sa(dp27
g6
L546L
sg7
L10L
sa(dp28
g6
L587L
sg7
L10L
sa(dp29
g6
L593L
sg7
L10L
sa(dp30
g6
L603L
sg7
L10L
sass."
EndChar

StartChar: uni0E13
Encoding: 419 3603 147
GlifName: uni0E_13
Width: 960
VWidth: 0
GlyphClass: 2
Flags: MW
LayerCount: 2
Fore
SplineSet
158 136 m 0
 131 136 109 117 105 90 c 0
 105 87 104 85 104 82 c 0
 104 60 119 44 143 44 c 0
 170 44 191 63 195 90 c 0
 195 93 196 96 196 99 c 0
 196 121 182 136 158 136 c 0
766 136 m 0
 739 136 717 117 713 90 c 0
 713 87 712 85 712 82 c 0
 712 60 727 44 751 44 c 0
 778 44 799 63 803 90 c 0
 803 93 804 96 804 99 c 0
 804 121 790 136 766 136 c 0
175 440 m 1
 313 410 l 1
 295 366 l 2
 293 366 275 369 263 369 c 0
 223 369 202 344 196 304 c 2
 186 240 l 2
 183 220 176 203 167 189 c 1
 222 189 259 158 259 108 c 0
 259 102 258 96 257 90 c 0
 247 30 196 -9 135 -9 c 0
 80 -9 41 22 41 72 c 0
 41 78 42 84 43 90 c 0
 50 136 67 165 74 210 c 2
 88 294 l 2
 96 344 127 378 172 392 c 1
 56 416 l 1
 87 520 190 619 353 619 c 0
 498 619 586 544 586 434 c 0
 586 423 585 411 583 399 c 2
 550 190 l 2
 546 162 539 129 533 100 c 1
 581 145 645 185 729 192 c 1
 733 199 737 206 738 215 c 2
 799 600 l 1
 905 600 l 1
 847 235 l 2
 844 213 829 196 811 183 c 1
 845 172 866 145 866 107 c 0
 866 102 866 96 865 90 c 0
 855 30 804 -9 743 -9 c 0
 688 -9 649 22 649 72 c 0
 649 78 650 84 651 90 c 0
 653 100 657 109 660 118 c 1
 600 96 551 51 511 0 c 1
 413 0 l 1
 476 399 l 2
 478 409 478 419 478 428 c 0
 478 503 425 540 341 540 c 0
 263 540 206 502 175 440 c 1
EndSplineSet
PickledDataWithLists: "(dp0
Vcom.fontlab.hintData
p1
(dp2
Vvhints
p3
(lp4
(dp5
Vposition
p6
L84L
sVwidth
p7
L10L
sa(dp8
g6
L104L
sg7
L10L
sa(dp9
g6
L166L
sg7
L10L
sa(dp10
g6
L186L
sg7
L10L
sa(dp11
g6
L311L
sg7
L10L
sa(dp12
g6
L454L
sg7
L10L
sa(dp13
g6
L469L
sg7
L10L
sa(dp14
g6
L540L
sg7
L10L
sa(dp15
g6
L551L
sg7
L10L
sa(dp16
g6
L709L
sg7
L10L
sa(dp17
g6
L780L
sg7
L10L
sa(dp18
g6
L816L
sg7
L10L
sa(dp19
g6
L865L
sg7
L10L
sa(dp20
g6
L935L
sg7
L10L
sasVhhints
p21
(lp22
(dp23
g6
L-17L
sg7
L10L
sa(dp24
g6
L29L
sg7
L10L
sa(dp25
g6
L41L
sg7
L10L
sa(dp26
g6
L54L
sg7
L10L
sa(dp27
g6
L241L
sg7
L10L
sa(dp28
g6
L289L
sg7
L10L
sa(dp29
g6
L546L
sg7
L10L
sa(dp30
g6
L594L
sg7
L10L
sa(dp31
g6
L604L
sg7
L10L
sass."
EndChar

StartChar: uni0E14
Encoding: 420 3604 148
GlifName: uni0E_14
Width: 665
VWidth: 0
GlyphClass: 2
Flags: MW
LayerCount: 2
Fore
SplineSet
423 0 m 1
 439 100 l 2
 447 153 470 271 490 399 c 0
 492 410 492 420 492 429 c 0
 492 505 440 540 356 540 c 0
 262 540 187 495 172 399 c 0
 159 318 158 273 158 237 c 0
 158 234 158 230 158 227 c 0
 158 203 158 183 154 157 c 0
 150 134 145 108 140 92 c 1
 194 147 263 178 314 220 c 1
 311 220 308 220 305 220 c 0
 250 220 212 251 212 301 c 0
 212 307 213 313 214 319 c 0
 224 379 275 418 336 418 c 0
 391 418 430 387 430 337 c 0
 430 331 429 325 428 319 c 0
 403 162 199 121 146 0 c 1
 25 0 l 1
 25 0 47 71 54 118 c 0
 60 154 61 181 61 207 c 0
 61 221 60 234 60 249 c 0
 60 285 62 329 73 399 c 0
 93 526 210 619 368 619 c 0
 511 619 596 543 596 434 c 0
 596 423 595 411 593 399 c 2
 530 0 l 1
 423 0 l 1
328 365 m 0
 301 365 280 346 276 319 c 0
 276 316 275 313 275 310 c 0
 275 288 289 273 313 273 c 0
 340 273 362 292 366 319 c 0
 366 322 367 324 367 327 c 0
 367 349 352 365 328 365 c 0
EndSplineSet
PickledDataWithLists: "(dp0
Vcom.fontlab.hintData
p1
(dp2
Vvhints
p3
(lp4
(dp5
Vposition
p6
L60L
sVwidth
p7
L10L
sa(dp8
g6
L149L
sg7
L10L
sa(dp9
g6
L306L
sg7
L10L
sa(dp10
g6
L394L
sg7
L10L
sa(dp11
g6
L495L
sg7
L10L
sa(dp12
g6
L501L
sg7
L10L
sa(dp13
g6
L584L
sg7
L10L
sa(dp14
g6
L589L
sg7
L10L
sasVhhints
p15
(lp16
(dp17
g6
L-23L
sg7
L10L
sa(dp18
g6
L-15L
sg7
L10L
sa(dp19
g6
L40L
sg7
L10L
sa(dp20
g6
L140L
sg7
L10L
sa(dp21
g6
L547L
sg7
L10L
sa(dp22
g6
L609L
sg7
L10L
sass."
EndChar

StartChar: uni0E15
Encoding: 421 3605 149
GlifName: uni0E_15
Width: 665
VWidth: 0
GlyphClass: 2
Flags: MW
LayerCount: 2
Fore
SplineSet
423 0 m 1
 439 100 l 2
 447 153 470 271 490 399 c 0
 494 422 495 441 495 458 c 0
 495 507 480 533 452 537 c 1
 356 468 l 1
 344 468 l 1
 332 468 l 1
 258 537 l 1
 218 532 186 488 172 399 c 0
 159 318 158 273 158 237 c 0
 158 234 158 230 158 227 c 0
 158 203 158 183 154 157 c 0
 150 134 145 108 140 92 c 1
 194 147 263 178 314 220 c 1
 311 220 308 220 305 220 c 0
 250 220 212 251 212 301 c 0
 212 307 213 313 214 319 c 0
 224 379 275 418 336 418 c 0
 391 418 430 387 430 337 c 0
 430 331 429 325 428 319 c 0
 403 162 199 121 146 0 c 1
 25 0 l 1
 25 0 47 71 54 118 c 0
 60 154 61 181 61 207 c 0
 61 221 60 234 60 249 c 0
 60 285 62 329 73 399 c 0
 86 480 132 613 276 613 c 1
 354 533 l 1
 458 613 l 1
 571 613 598 531 598 457 c 0
 598 437 596 416 593 399 c 2
 530 0 l 1
 423 0 l 1
328 365 m 0
 301 365 280 346 276 319 c 0
 276 316 275 313 275 310 c 0
 275 288 289 273 313 273 c 0
 340 273 362 292 366 319 c 0
 366 322 367 324 367 327 c 0
 367 349 352 365 328 365 c 0
EndSplineSet
PickledDataWithLists: "(dp0
Vcom.fontlab.hintData
p1
(dp2
Vvhints
p3
(lp4
(dp5
Vposition
p6
L64L
sVwidth
p7
L10L
sa(dp8
g6
L146L
sg7
L10L
sa(dp9
g6
L309L
sg7
L10L
sa(dp10
g6
L332L
sg7
L10L
sa(dp11
g6
L337L
sg7
L10L
sa(dp12
g6
L391L
sg7
L10L
sa(dp13
g6
L405L
sg7
L10L
sa(dp14
g6
L513L
sg7
L10L
sa(dp15
g6
L597L
sg7
L10L
sa(dp16
g6
L602L
sg7
L10L
sasVhhints
p17
(lp18
(dp19
g6
L-21L
sg7
L10L
sa(dp20
g6
L-13L
sg7
L10L
sa(dp21
g6
L36L
sg7
L10L
sa(dp22
g6
L133L
sg7
L10L
sa(dp23
g6
L412L
sg7
L10L
sa(dp24
g6
L546L
sg7
L10L
sa(dp25
g6
L590L
sg7
L10L
sa(dp26
g6
L603L
sg7
L10L
sass."
EndChar

StartChar: uni0E16
Encoding: 422 3606 150
GlifName: uni0E_16
Width: 655
VWidth: 0
GlyphClass: 2
Flags: MW
LayerCount: 2
Fore
SplineSet
353 619 m 0
 498 619 586 544 586 434 c 0
 586 423 585 411 583 399 c 2
 520 0 l 1
 413 0 l 1
 476 399 l 2
 478 409 478 419 478 428 c 0
 478 503 425 540 341 540 c 0
 263 540 206 502 175 440 c 1
 313 410 l 1
 295 366 l 2
 293 366 275 369 263 369 c 0
 223 369 202 344 196 304 c 2
 186 240 l 2
 183 220 176 203 167 189 c 1
 222 189 259 158 259 108 c 0
 259 102 258 96 257 90 c 0
 247 30 196 -9 135 -9 c 0
 80 -9 41 22 41 72 c 0
 41 78 42 84 43 90 c 0
 50 136 67 165 74 210 c 2
 88 294 l 2
 96 344 127 378 172 392 c 1
 56 416 l 1
 87 520 190 619 353 619 c 0
158 136 m 0
 131 136 109 117 105 90 c 0
 105 87 104 85 104 82 c 0
 104 60 119 44 143 44 c 0
 170 44 191 63 195 90 c 0
 195 93 196 96 196 99 c 0
 196 121 182 136 158 136 c 0
EndSplineSet
PickledDataWithLists: "(dp0
Vcom.fontlab.hintData
p1
(dp2
Vvhints
p3
(lp4
(dp5
Vposition
p6
L81L
sVwidth
p7
L10L
sa(dp8
g6
L86L
sg7
L10L
sa(dp9
g6
L111L
sg7
L10L
sa(dp10
g6
L169L
sg7
L10L
sa(dp11
g6
L199L
sg7
L10L
sa(dp12
g6
L315L
sg7
L10L
sa(dp13
g6
L465L
sg7
L10L
sa(dp14
g6
L476L
sg7
L10L
sa(dp15
g6
L556L
sg7
L10L
sa(dp16
g6
L564L
sg7
L10L
sasVhhints
p17
(lp18
(dp19
g6
L-19L
sg7
L10L
sa(dp20
g6
L43L
sg7
L10L
sa(dp21
g6
L56L
sg7
L10L
sa(dp22
g6
L544L
sg7
L10L
sa(dp23
g6
L606L
sg7
L10L
sass."
EndChar

StartChar: uni0E17
Encoding: 423 3607 151
GlifName: uni0E_17
Width: 660
VWidth: 0
GlyphClass: 2
Flags: MW
LayerCount: 2
Fore
SplineSet
151 464 m 0
 178 464 200 483 204 510 c 0
 204 513 205 515 205 518 c 0
 205 540 190 556 166 556 c 0
 139 556 118 537 114 510 c 0
 114 507 113 504 113 501 c 0
 113 479 127 464 151 464 c 0
212 282 m 1
 279 428 383 609 500 609 c 0
 578 609 599 553 599 507 c 0
 599 499 598 492 597 485 c 2
 520 0 l 1
 414 0 l 1
 488 467 l 2
 489 472 489 477 489 482 c 0
 489 501 483 517 466 519 c 1
 368 488 225 209 183 99 c 1
 167 0 l 1
 60 0 l 1
 117 360 l 2
 120 380 129 397 138 411 c 1
 86 413 51 444 51 493 c 0
 51 498 51 504 52 510 c 0
 62 570 113 609 174 609 c 0
 229 609 268 578 268 528 c 0
 268 522 267 516 266 510 c 0
 259 464 236 435 229 390 c 2
 212 282 l 1
EndSplineSet
PickledDataWithLists: "(dp0
Vcom.fontlab.hintData
p1
(dp2
Vvhints
p3
(lp4
(dp5
Vposition
p6
L58L
sVwidth
p7
L10L
sa(dp8
g6
L104L
sg7
L10L
sa(dp9
g6
L479L
sg7
L10L
sa(dp10
g6
L484L
sg7
L10L
sa(dp11
g6
L561L
sg7
L10L
sa(dp12
g6
L566L
sg7
L10L
sasVhhints
p13
(lp14
(dp15
g6
L-13L
sg7
L10L
sa(dp16
g6
L-8L
sg7
L10L
sa(dp17
g6
L546L
sg7
L10L
sa(dp18
g6
L604L
sg7
L10L
sass."
EndChar

StartChar: uni0E18
Encoding: 424 3608 152
GlifName: uni0E_18
Width: 585
VWidth: 0
GlyphClass: 2
Flags: MW
AnchorPoint: "ThaiTone.mark" 505 0 basechar 0
LayerCount: 2
Fore
SplineSet
43 177 m 2
 63 300 l 1
 170 300 l 1
 150 177 l 2
 148 167 148 158 148 150 c 0
 148 87 189 61 245 61 c 0
 308 61 363 94 376 177 c 2
 393 284 l 2
 394 288 394 292 394 296 c 0
 394 366 283 392 67 392 c 1
 72 424 l 2
 91 541 191 619 317 619 c 0
 394 619 440 589 465 560 c 1
 468 565 471 569 473 572 c 2
 503 613 l 1
 580 598 l 1
 579 593 l 1
 478 485 l 1
 445 485 l 1
 432 507 398 547 322 547 c 0
 260 547 198 519 177 446 c 1
 373 439 503 404 503 313 c 0
 503 308 503 303 502 297 c 2
 483 177 l 2
 466 68 369 -19 232 -19 c 0
 109 -19 40 51 40 145 c 0
 40 155 41 166 43 177 c 2
EndSplineSet
PickledDataWithLists: "(dp0
Vcom.fontlab.hintData
p1
(dp2
Vvhints
p3
(lp4
(dp5
Vposition
p6
L64L
sVwidth
p7
L10L
sa(dp8
g6
L109L
sg7
L10L
sa(dp9
g6
L146L
sg7
L10L
sa(dp10
g6
L195L
sg7
L10L
sa(dp11
g6
L430L
sg7
L10L
sa(dp12
g6
L513L
sg7
L10L
sasVhhints
p13
(lp14
(dp15
g6
L-14L
sg7
L10L
sa(dp16
g6
L44L
sg7
L10L
sa(dp17
g6
L294L
sg7
L10L
sa(dp18
g6
L496L
sg7
L10L
sa(dp19
g6
L555L
sg7
L10L
sa(dp20
g6
L612L
sg7
L10L
sass."
EndChar

StartChar: uni0E19
Encoding: 425 3609 153
GlifName: uni0E_19
Width: 650
VWidth: 0
GlyphClass: 2
Flags: MW
LayerCount: 2
Fore
SplineSet
60 0 m 1
 117 360 l 2
 120 381 128 398 138 411 c 1
 85 413 51 445 51 493 c 0
 51 499 51 504 52 510 c 0
 62 570 113 609 174 609 c 0
 229 609 268 578 268 528 c 0
 268 522 267 516 266 510 c 0
 258 458 236 436 228 385 c 2
 197 190 l 2
 192 159 186 125 179 94 c 1
 237 141 315 185 419 192 c 1
 423 199 427 206 428 215 c 2
 489 600 l 1
 595 600 l 1
 537 235 l 2
 534 213 519 196 501 183 c 1
 535 172 556 145 556 107 c 0
 556 102 556 96 555 90 c 0
 545 30 494 -9 433 -9 c 0
 378 -9 339 22 339 72 c 0
 339 78 340 84 341 90 c 0
 343 101 346 112 351 122 c 1
 270 101 206 51 158 0 c 1
 60 0 l 1
456 136 m 0
 429 136 407 117 403 90 c 0
 403 87 402 85 402 82 c 0
 402 60 417 44 441 44 c 0
 468 44 489 63 493 90 c 0
 493 93 494 96 494 99 c 0
 494 121 480 136 456 136 c 0
151 464 m 0
 178 464 200 483 204 510 c 0
 204 513 205 515 205 518 c 0
 205 540 190 556 166 556 c 0
 139 556 118 537 114 510 c 0
 114 507 113 504 113 501 c 0
 113 479 127 464 151 464 c 0
EndSplineSet
PickledDataWithLists: "(dp0
Vcom.fontlab.hintData
p1
(dp2
Vvhints
p3
(lp4
(dp5
Vposition
p6
L64L
sVwidth
p7
L10L
sa(dp8
g6
L84L
sg7
L10L
sa(dp9
g6
L168L
sg7
L10L
sa(dp10
g6
L387L
sg7
L10L
sa(dp11
g6
L457L
sg7
L10L
sa(dp12
g6
L491L
sg7
L10L
sa(dp13
g6
L550L
sg7
L10L
sa(dp14
g6
L625L
sg7
L10L
sasVhhints
p15
(lp16
(dp17
g6
L-27L
sg7
L10L
sa(dp18
g6
L-20L
sg7
L10L
sa(dp19
g6
L22L
sg7
L10L
sa(dp20
g6
L248L
sg7
L10L
sa(dp21
g6
L307L
sg7
L10L
sa(dp22
g6
L589L
sg7
L10L
sa(dp23
g6
L598L
sg7
L10L
sass."
EndChar

StartChar: uni0E1A
Encoding: 426 3610 154
GlifName: uni0E_1A_
Width: 700
VWidth: 0
GlyphClass: 2
Flags: MW
LayerCount: 2
Fore
SplineSet
146 464 m 0
 173 464 195 483 199 510 c 0
 199 513 200 515 200 518 c 0
 200 540 185 556 161 556 c 0
 134 556 113 537 109 510 c 0
 109 507 108 504 108 501 c 0
 108 479 122 464 146 464 c 0
261 510 m 0
 254 464 231 435 224 390 c 2
 192 188 l 2
 190 179 190 169 190 161 c 0
 190 92 239 60 315 60 c 0
 400 60 464 101 478 188 c 2
 543 600 l 1
 650 600 l 1
 585 188 l 2
 566 68 453 -19 302 -19 c 0
 165 -19 82 52 82 155 c 0
 82 166 83 177 85 188 c 2
 112 360 l 2
 115 380 124 397 133 411 c 1
 81 413 46 444 46 493 c 0
 46 498 46 504 47 510 c 0
 57 570 108 609 169 609 c 0
 224 609 263 578 263 528 c 0
 263 522 262 516 261 510 c 0
EndSplineSet
PickledDataWithLists: "(dp0
Vcom.fontlab.hintData
p1
(dp2
Vvhints
p3
(lp4
(dp5
Vposition
p6
L81L
sVwidth
p7
L10L
sa(dp8
g6
L106L
sg7
L10L
sa(dp9
g6
L194L
sg7
L10L
sa(dp10
g6
L511L
sg7
L10L
sa(dp11
g6
L516L
sg7
L10L
sa(dp12
g6
L599L
sg7
L10L
sa(dp13
g6
L604L
sg7
L10L
sasVhhints
p14
(lp15
(dp16
g6
L-26L
sg7
L10L
sa(dp17
g6
L36L
sg7
L10L
sa(dp18
g6
L596L
sg7
L10L
sass."
EndChar

StartChar: uni0E1B
Encoding: 427 3611 155
GlifName: uni0E_1B_
Width: 700
VWidth: 0
GlyphClass: 2
Flags: MW
LayerCount: 2
Fore
SplineSet
146 464 m 0
 173 464 195 483 199 510 c 0
 199 513 200 515 200 518 c 0
 200 540 185 556 161 556 c 0
 134 556 113 537 109 510 c 0
 109 507 108 504 108 501 c 0
 108 479 122 464 146 464 c 0
261 510 m 0
 254 464 231 435 224 390 c 2
 192 188 l 2
 190 179 190 169 190 161 c 0
 190 92 239 60 315 60 c 0
 400 60 464 101 478 188 c 2
 576 810 l 1
 683 810 l 1
 585 188 l 2
 566 68 453 -19 302 -19 c 0
 165 -19 82 52 82 155 c 0
 82 166 83 177 85 188 c 2
 112 360 l 2
 115 380 124 397 133 411 c 1
 81 413 46 444 46 493 c 0
 46 498 46 504 47 510 c 0
 57 570 108 609 169 609 c 0
 224 609 263 578 263 528 c 0
 263 522 262 516 261 510 c 0
EndSplineSet
PickledDataWithLists: "(dp0
Vcom.fontlab.hintData
p1
(dp2
Vvhints
p3
(lp4
(dp5
Vposition
p6
L81L
sVwidth
p7
L10L
sa(dp8
g6
L106L
sg7
L10L
sa(dp9
g6
L194L
sg7
L10L
sa(dp10
g6
L521L
sg7
L10L
sa(dp11
g6
L526L
sg7
L10L
sa(dp12
g6
L609L
sg7
L10L
sa(dp13
g6
L614L
sg7
L10L
sasVhhints
p14
(lp15
(dp16
g6
L-26L
sg7
L10L
sa(dp17
g6
L36L
sg7
L10L
sa(dp18
g6
L600L
sg7
L10L
sa(dp19
g6
L836L
sg7
L10L
sass."
EndChar

StartChar: uni0E1C
Encoding: 428 3612 156
GlifName: uni0E_1C_
Width: 715
VWidth: 0
GlyphClass: 2
Flags: MW
LayerCount: 2
Fore
SplineSet
497 187 m 2
 562 600 l 1
 665 600 l 1
 570 0 l 1
 470 0 l 1
 343 283 l 1
 126 0 l 1
 26 0 l 1
 72 290 l 2
 84 363 75 409 84 465 c 0
 98 552 160 609 256 609 c 0
 311 609 350 578 350 528 c 0
 350 522 349 516 348 510 c 0
 338 450 286 411 225 411 c 0
 204 411 185 416 170 425 c 1
 172 394 180 373 180 339 c 0
 180 328 179 315 177 300 c 2
 159 187 l 2
 156 165 148 142 142 123 c 1
 323 360 l 1
 355 360 l 1
 387 360 l 1
 492 123 l 1
 492 142 494 165 497 187 c 2
233 464 m 0
 260 464 282 483 286 510 c 0
 286 513 287 515 287 518 c 0
 287 540 272 556 248 556 c 0
 221 556 200 537 196 510 c 0
 196 507 195 504 195 501 c 0
 195 479 209 464 233 464 c 0
EndSplineSet
PickledDataWithLists: "(dp0
Vcom.fontlab.hintData
p1
(dp2
Vvhints
p3
(lp4
(dp5
Vposition
p6
L64L
sVwidth
p7
L10L
sa(dp8
g6
L148L
sg7
L10L
sa(dp9
g6
L372L
sg7
L10L
sa(dp10
g6
L559L
sg7
L10L
sa(dp11
g6
L643L
sg7
L10L
sa(dp12
g6
L653L
sg7
L10L
sasVhhints
p13
(lp14
(dp15
g6
L-14L
sg7
L10L
sa(dp16
g6
L-8L
sg7
L10L
sa(dp17
g6
L318L
sg7
L10L
sa(dp18
g6
L514L
sg7
L10L
sa(dp19
g6
L544L
sg7
L10L
sa(dp20
g6
L599L
sg7
L10L
sa(dp21
g6
L604L
sg7
L10L
sass."
EndChar

StartChar: uni0E1D
Encoding: 429 3613 157
GlifName: uni0E_1D_
Width: 715
VWidth: 0
GlyphClass: 2
Flags: MW
LayerCount: 2
Fore
SplineSet
497 187 m 2
 595 810 l 1
 698 810 l 1
 570 0 l 1
 470 0 l 1
 343 283 l 1
 126 0 l 1
 26 0 l 1
 72 290 l 2
 84 363 75 409 84 465 c 0
 98 552 160 609 256 609 c 0
 311 609 350 578 350 528 c 0
 350 522 349 516 348 510 c 0
 338 450 286 411 225 411 c 0
 204 411 185 416 170 425 c 1
 172 394 180 373 180 339 c 0
 180 328 179 315 177 300 c 2
 159 187 l 2
 156 165 148 142 142 123 c 1
 323 360 l 1
 355 360 l 1
 387 360 l 1
 492 123 l 1
 492 142 494 165 497 187 c 2
233 464 m 0
 260 464 282 483 286 510 c 0
 286 513 287 515 287 518 c 0
 287 540 272 556 248 556 c 0
 221 556 200 537 196 510 c 0
 196 507 195 504 195 501 c 0
 195 479 209 464 233 464 c 0
EndSplineSet
PickledDataWithLists: "(dp0
Vcom.fontlab.hintData
p1
(dp2
Vvhints
p3
(lp4
(dp5
Vposition
p6
L64L
sVwidth
p7
L10L
sa(dp8
g6
L148L
sg7
L10L
sa(dp9
g6
L372L
sg7
L10L
sa(dp10
g6
L559L
sg7
L10L
sa(dp11
g6
L643L
sg7
L10L
sa(dp12
g6
L653L
sg7
L10L
sasVhhints
p13
(lp14
(dp15
g6
L-14L
sg7
L10L
sa(dp16
g6
L-8L
sg7
L10L
sa(dp17
g6
L318L
sg7
L10L
sa(dp18
g6
L514L
sg7
L10L
sa(dp19
g6
L544L
sg7
L10L
sa(dp20
g6
L604L
sg7
L10L
sa(dp21
g6
L834L
sg7
L10L
sass."
EndChar

StartChar: uni0E1E
Encoding: 430 3614 158
GlifName: uni0E_1E_
Width: 735
VWidth: 0
GlyphClass: 2
Flags: MW
LayerCount: 2
Fore
SplineSet
685 600 m 1
 590 0 l 1
 498 0 l 1
 386 388 l 1
 152 0 l 1
 60 0 l 1
 117 360 l 2
 120 381 128 398 138 411 c 1
 85 413 50 444 50 493 c 0
 50 498 50 504 51 510 c 0
 61 570 112 609 173 609 c 0
 228 609 267 578 267 528 c 0
 267 522 266 516 265 510 c 0
 257 461 232 435 224 387 c 2
 199 230 l 2
 196 213 192 193 187 175 c 1
 377 495 l 1
 403 495 l 1
 429 495 l 1
 518 173 l 1
 519 191 520 213 523 230 c 2
 582 600 l 1
 685 600 l 1
150 464 m 0
 177 464 199 483 203 510 c 0
 203 513 204 515 204 518 c 0
 204 540 189 556 165 556 c 0
 138 556 117 537 113 510 c 0
 113 507 112 504 112 501 c 0
 112 479 126 464 150 464 c 0
EndSplineSet
PickledDataWithLists: "(dp0
Vcom.fontlab.hintData
p1
(dp2
Vvhints
p3
(lp4
(dp5
Vposition
p6
L58L
sVwidth
p7
L10L
sa(dp8
g6
L104L
sg7
L10L
sa(dp9
g6
L182L
sg7
L10L
sa(dp10
g6
L556L
sg7
L10L
sa(dp11
g6
L656L
sg7
L10L
sasVhhints
p12
(lp13
(dp14
g6
L-12L
sg7
L10L
sa(dp15
g6
L540L
sg7
L10L
sa(dp16
g6
L604L
sg7
L10L
sass."
EndChar

StartChar: uni0E1F
Encoding: 431 3615 159
GlifName: uni0E_1F_
Width: 735
VWidth: 0
GlyphClass: 2
Flags: MW
LayerCount: 2
Fore
SplineSet
718 810 m 1
 590 0 l 1
 498 0 l 1
 386 388 l 1
 152 0 l 1
 60 0 l 1
 117 360 l 2
 120 381 128 398 138 411 c 1
 85 413 50 444 50 493 c 0
 50 498 50 504 51 510 c 0
 61 570 112 609 173 609 c 0
 228 609 267 578 267 528 c 0
 267 522 266 516 265 510 c 0
 257 461 232 435 224 387 c 2
 199 230 l 2
 196 213 192 193 187 175 c 1
 377 495 l 1
 403 495 l 1
 429 495 l 1
 518 173 l 1
 519 191 520 213 523 230 c 2
 615 810 l 1
 718 810 l 1
150 464 m 0
 177 464 199 483 203 510 c 0
 203 513 204 515 204 518 c 0
 204 540 189 556 165 556 c 0
 138 556 117 537 113 510 c 0
 113 507 112 504 112 501 c 0
 112 479 126 464 150 464 c 0
EndSplineSet
PickledDataWithLists: "(dp0
Vcom.fontlab.hintData
p1
(dp2
Vvhints
p3
(lp4
(dp5
Vposition
p6
L58L
sVwidth
p7
L10L
sa(dp8
g6
L104L
sg7
L10L
sa(dp9
g6
L182L
sg7
L10L
sa(dp10
g6
L565L
sg7
L10L
sa(dp11
g6
L641L
sg7
L9L
sa(dp12
g6
L686L
sg7
L11L
sasVhhints
p13
(lp14
(dp15
g6
L-12L
sg7
L10L
sa(dp16
g6
L540L
sg7
L10L
sa(dp17
g6
L604L
sg7
L10L
sa(dp18
g6
L834L
sg7
L10L
sass."
EndChar

StartChar: uni0E20
Encoding: 432 3616 160
GlifName: uni0E_20
Width: 665
VWidth: 0
GlyphClass: 2
Flags: MW
LayerCount: 2
Fore
SplineSet
109 136 m 0
 82 136 60 117 56 90 c 0
 56 87 55 85 55 82 c 0
 55 60 70 44 94 44 c 0
 121 44 142 63 146 90 c 0
 146 93 147 96 147 99 c 0
 147 121 133 136 109 136 c 0
363 619 m 0
 508 619 596 544 596 434 c 0
 596 423 595 411 593 399 c 2
 530 0 l 1
 423 0 l 1
 486 399 l 2
 488 409 488 419 488 428 c 0
 488 503 435 540 351 540 c 0
 274 540 216 503 185 441 c 1
 343 410 l 1
 325 366 l 2
 323 366 305 369 293 369 c 0
 253 369 232 344 226 304 c 2
 211 210 l 2
 209 198 209 187 209 177 c 0
 209 159 210 143 210 124 c 0
 210 114 210 102 208 90 c 0
 198 30 147 -9 86 -9 c 0
 31 -9 -8 22 -8 72 c 0
 -8 78 -7 84 -6 90 c 0
 3 149 54 187 113 189 c 1
 110 199 108 210 108 222 c 0
 108 228 108 234 109 240 c 2
 118 294 l 2
 126 344 156 377 201 392 c 1
 66 416 l 1
 97 520 200 619 363 619 c 0
EndSplineSet
PickledDataWithLists: "(dp0
Vcom.fontlab.hintData
p1
(dp2
Vvhints
p3
(lp4
(dp5
Vposition
p6
L26L
sVwidth
p7
L10L
sa(dp8
g6
L81L
sg7
L10L
sa(dp9
g6
L131L
sg7
L10L
sa(dp10
g6
L219L
sg7
L10L
sa(dp11
g6
L465L
sg7
L10L
sa(dp12
g6
L476L
sg7
L10L
sa(dp13
g6
L556L
sg7
L10L
sa(dp14
g6
L564L
sg7
L10L
sasVhhints
p15
(lp16
(dp17
g6
L-16L
sg7
L10L
sa(dp18
g6
L66L
sg7
L10L
sa(dp19
g6
L544L
sg7
L10L
sa(dp20
g6
L606L
sg7
L10L
sass."
EndChar

StartChar: uni0E21
Encoding: 433 3617 161
GlifName: uni0E_21
Width: 645
VWidth: 0
GlyphClass: 2
Flags: MW
LayerCount: 2
Fore
SplineSet
120 136 m 0
 93 136 71 117 67 90 c 0
 67 87 66 85 66 82 c 0
 66 60 81 44 105 44 c 0
 132 44 153 63 157 90 c 0
 157 93 158 96 158 99 c 0
 158 121 144 136 120 136 c 0
161 464 m 0
 188 464 210 483 214 510 c 0
 214 513 215 515 215 518 c 0
 215 540 200 556 176 556 c 0
 149 556 128 537 124 510 c 0
 124 507 123 504 123 501 c 0
 123 479 137 464 161 464 c 0
116 188 m 1
 111 198 107 211 107 226 c 0
 107 230 107 235 108 240 c 2
 127 360 l 2
 130 381 138 398 148 411 c 1
 95 413 61 445 61 493 c 0
 61 499 61 504 62 510 c 0
 72 570 123 609 184 609 c 0
 239 609 278 578 278 528 c 0
 278 522 277 516 276 510 c 0
 268 458 246 436 238 385 c 2
 211 215 l 2
 209 205 209 196 210 188 c 1
 305 177 369 136 411 93 c 1
 414 124 418 159 423 190 c 2
 488 600 l 1
 595 600 l 1
 500 0 l 1
 402 0 l 1
 368 53 310 106 220 123 c 1
 220 113 221 102 219 90 c 0
 209 30 158 -9 97 -9 c 0
 42 -9 3 22 3 72 c 0
 3 78 4 84 5 90 c 0
 14 146 60 183 116 188 c 1
EndSplineSet
PickledDataWithLists: "(dp0
Vcom.fontlab.hintData
p1
(dp2
Vvhints
p3
(lp4
(dp5
Vposition
p6
L25L
sVwidth
p7
L10L
sa(dp8
g6
L56L
sg7
L10L
sa(dp9
g6
L100L
sg7
L10L
sa(dp10
g6
L200L
sg7
L10L
sa(dp11
g6
L280L
sg7
L10L
sa(dp12
g6
L476L
sg7
L10L
sa(dp13
g6
L484L
sg7
L10L
sa(dp14
g6
L556L
sg7
L10L
sa(dp15
g6
L566L
sg7
L10L
sasVhhints
p16
(lp17
(dp18
g6
L-27L
sg7
L10L
sa(dp19
g6
L243L
sg7
L10L
sa(dp20
g6
L297L
sg7
L10L
sa(dp21
g6
L528L
sg7
L10L
sa(dp22
g6
L548L
sg7
L10L
sa(dp23
g6
L588L
sg7
L10L
sa(dp24
g6
L602L
sg7
L10L
sass."
EndChar

StartChar: uni0E22
Encoding: 434 3618 162
GlifName: uni0E_22
Width: 645
VWidth: 0
GlyphClass: 2
Flags: MW
LayerCount: 2
Fore
SplineSet
238 464 m 0
 265 464 287 483 291 510 c 0
 291 513 292 515 292 518 c 0
 292 540 277 556 253 556 c 0
 226 556 205 537 201 510 c 0
 201 507 200 504 200 501 c 0
 200 479 214 464 238 464 c 0
493 600 m 1
 600 600 l 1
 535 188 l 2
 516 68 403 -19 252 -19 c 0
 114 -19 31 49 31 148 c 0
 31 158 31 168 33 178 c 0
 45 253 96 293 157 312 c 1
 110 335 77 377 77 437 c 0
 77 446 77 455 79 465 c 0
 93 551 161 609 261 609 c 0
 316 609 355 578 355 528 c 0
 355 522 354 516 353 510 c 0
 343 450 291 411 230 411 c 0
 194 411 165 425 150 448 c 1
 150 447 150 447 150 446 c 0
 150 372 217 346 323 346 c 1
 313 284 l 1
 219 284 152 254 141 182 c 0
 140 174 139 166 139 158 c 0
 139 92 189 60 265 60 c 0
 350 60 414 101 428 188 c 2
 493 600 l 1
EndSplineSet
PickledDataWithLists: "(dp0
Vcom.fontlab.hintData
p1
(dp2
Vvhints
p3
(lp4
(dp5
Vposition
p6
L44L
sVwidth
p7
L10L
sa(dp8
g6
L114L
sg7
L10L
sa(dp9
g6
L126L
sg7
L10L
sa(dp10
g6
L196L
sg7
L10L
sa(dp11
g6
L335L
sg7
L10L
sa(dp12
g6
L352L
sg7
L10L
sa(dp13
g6
L474L
sg7
L10L
sa(dp14
g6
L562L
sg7
L10L
sasVhhints
p15
(lp16
(dp17
g6
L-26L
sg7
L10L
sa(dp18
g6
L36L
sg7
L10L
sa(dp19
g6
L517L
sg7
L10L
sa(dp20
g6
L546L
sg7
L10L
sa(dp21
g6
L596L
sg7
L10L
sa(dp22
g6
L604L
sg7
L10L
sass."
EndChar

StartChar: uni0E23
Encoding: 435 3619 163
GlifName: uni0E_23
Width: 530
VWidth: 0
GlyphClass: 2
Flags: MW
AnchorPoint: "ThaiBelow.mark" 440 0 basechar 0
AnchorPoint: "ThaiTone.mark" 450 0 basechar 0
AnchorPoint: "ThaiAbove.mark" 500 0 basechar 0
LayerCount: 2
Fore
SplineSet
415 560 m 1
 418 565 421 570 423 573 c 2
 452 613 l 1
 530 598 l 1
 529 593 l 1
 427 485 l 1
 394 485 l 1
 381 507 352 547 277 547 c 0
 216 547 157 518 137 446 c 1
 295 439 405 410 405 324 c 0
 405 318 404 312 403 306 c 2
 384 185 l 1
 373 114 l 2
 361 41 305 -9 224 -9 c 0
 169 -9 130 22 130 72 c 0
 130 78 131 84 132 90 c 0
 142 150 194 189 255 189 c 0
 264 189 272 188 281 186 c 1
 281 196 280 207 282 217 c 2
 294 293 l 2
 295 297 295 302 295 306 c 0
 295 373 204 393 27 393 c 1
 32 424 l 2
 51 541 147 619 271 619 c 0
 347 619 391 589 415 560 c 1
247 136 m 0
 220 136 198 117 194 90 c 0
 194 87 193 85 193 82 c 0
 193 60 208 44 232 44 c 0
 259 44 280 63 284 90 c 0
 284 93 285 96 285 99 c 0
 285 121 271 136 247 136 c 0
EndSplineSet
PickledDataWithLists: "(dp0
Vcom.fontlab.hintData
p1
(dp2
Vvhints
p3
(lp4
(dp5
Vposition
p6
L31L
sVwidth
p7
L10L
sa(dp8
g6
L111L
sg7
L10L
sa(dp9
g6
L116L
sg7
L10L
sa(dp10
g6
L362L
sg7
L10L
sa(dp11
g6
L446L
sg7
L10L
sa(dp12
g6
L479L
sg7
L10L
sasVhhints
p13
(lp14
(dp15
g6
L-16L
sg7
L10L
sa(dp16
g6
L46L
sg7
L10L
sa(dp17
g6
L91L
sg7
L10L
sa(dp18
g6
L494L
sg7
L10L
sa(dp19
g6
L548L
sg7
L10L
sa(dp20
g6
L610L
sg7
L10L
sass."
EndChar

StartChar: uni0E24
Encoding: 436 3620 164
GlifName: uni0E_24
Width: 655
VWidth: 0
GlyphClass: 2
Flags: MW
LayerCount: 2
Fore
SplineSet
353 619 m 0
 498 619 586 544 586 434 c 0
 586 423 585 411 583 399 c 2
 487 -210 l 1
 380 -210 l 1
 476 399 l 2
 478 409 478 419 478 428 c 0
 478 503 425 540 341 540 c 0
 263 540 206 502 175 440 c 1
 313 410 l 1
 295 366 l 2
 293 366 275 369 263 369 c 0
 223 369 202 344 196 304 c 2
 186 240 l 2
 183 220 176 203 167 189 c 1
 222 189 259 158 259 108 c 0
 259 102 258 96 257 90 c 0
 247 30 196 -9 135 -9 c 0
 80 -9 41 22 41 72 c 0
 41 78 42 84 43 90 c 0
 50 136 67 165 74 210 c 2
 88 294 l 2
 96 344 127 378 172 392 c 1
 56 416 l 1
 87 520 190 619 353 619 c 0
158 136 m 0
 131 136 109 117 105 90 c 0
 105 87 104 85 104 82 c 0
 104 60 119 44 143 44 c 0
 170 44 191 63 195 90 c 0
 195 93 196 96 196 99 c 0
 196 121 182 136 158 136 c 0
EndSplineSet
PickledDataWithLists: "(dp0
Vcom.fontlab.hintData
p1
(dp2
Vvhints
p3
(lp4
(dp5
Vposition
p6
L81L
sVwidth
p7
L10L
sa(dp8
g6
L86L
sg7
L10L
sa(dp9
g6
L111L
sg7
L10L
sa(dp10
g6
L169L
sg7
L10L
sa(dp11
g6
L199L
sg7
L10L
sa(dp12
g6
L315L
sg7
L10L
sa(dp13
g6
L465L
sg7
L10L
sa(dp14
g6
L476L
sg7
L10L
sa(dp15
g6
L556L
sg7
L10L
sa(dp16
g6
L564L
sg7
L10L
sasVhhints
p17
(lp18
(dp19
g6
L-246L
sg7
L10L
sa(dp20
g6
L-19L
sg7
L10L
sa(dp21
g6
L43L
sg7
L10L
sa(dp22
g6
L56L
sg7
L10L
sa(dp23
g6
L544L
sg7
L10L
sa(dp24
g6
L606L
sg7
L10L
sass."
EndChar

StartChar: uni0E240E45.liga
Encoding: 808 63617 165
GlifName: uni0E_240E_45.liga
Width: 950
VWidth: 0
GlyphClass: 3
Flags: MW
LayerCount: 2
Fore
SplineSet
158 136 m 0
 131 136 109 117 105 90 c 0
 105 87 104 85 104 82 c 0
 104 60 119 44 143 44 c 0
 170 44 191 63 195 90 c 0
 195 93 196 96 196 99 c 0
 196 121 182 136 158 136 c 0
553 537 m 1
 589 579 643 613 717 613 c 0
 826 613 881 549 881 467 c 0
 881 457 881 447 879 437 c 2
 777 -210 l 1
 671 -210 l 1
 773 437 l 2
 774 446 775 454 775 461 c 0
 775 514 742 534 702 534 c 0
 643 534 606 487 586 436 c 1
 586 424 585 412 583 399 c 2
 487 -210 l 1
 380 -210 l 1
 476 399 l 2
 478 409 478 419 478 428 c 0
 478 503 425 540 341 540 c 0
 263 540 206 502 175 440 c 1
 313 410 l 1
 295 366 l 2
 293 366 275 369 263 369 c 0
 223 369 202 344 196 304 c 2
 186 240 l 2
 183 220 176 203 167 189 c 1
 222 189 259 158 259 108 c 0
 259 102 258 96 257 90 c 0
 247 30 196 -9 135 -9 c 0
 80 -9 41 22 41 72 c 0
 41 78 42 84 43 90 c 0
 50 136 67 165 74 210 c 2
 88 294 l 2
 96 344 127 378 172 392 c 1
 56 416 l 1
 87 520 190 619 353 619 c 0
 446 619 515 588 553 537 c 1
EndSplineSet
PickledDataWithLists: "(dp0
Vcom.fontlab.hintData
p1
(dp2
Vvhints
p3
(lp4
(dp5
Vposition
p6
L81L
sVwidth
p7
L10L
sa(dp8
g6
L86L
sg7
L10L
sa(dp9
g6
L111L
sg7
L10L
sa(dp10
g6
L169L
sg7
L10L
sa(dp11
g6
L199L
sg7
L10L
sa(dp12
g6
L315L
sg7
L10L
sa(dp13
g6
L465L
sg7
L10L
sa(dp14
g6
L476L
sg7
L10L
sa(dp15
g6
L556L
sg7
L10L
sa(dp16
g6
L563L
sg7
L10L
sa(dp17
g6
L756L
sg7
L10L
sa(dp18
g6
L782L
sg7
L10L
sa(dp19
g6
L844L
sg7
L10L
sa(dp20
g6
L870L
sg7
L10L
sasVhhints
p21
(lp22
(dp23
g6
L-245L
sg7
L10L
sa(dp24
g6
L-19L
sg7
L10L
sa(dp25
g6
L43L
sg7
L10L
sa(dp26
g6
L56L
sg7
L10L
sa(dp27
g6
L544L
sg7
L10L
sa(dp28
g6
L606L
sg7
L10L
sass."
Ligature2: "Thai.liga subtable" uni0E24 uni200D uni0E45
Ligature2: "Thai.liga subtable" uni0E24 uni0E45
Colour: ff00ff
EndChar

StartChar: uni0E25
Encoding: 437 3621 166
GlifName: uni0E_25
Width: 635
VWidth: 0
GlyphClass: 2
Flags: MW
LayerCount: 2
Fore
SplineSet
27 107 m 2
 42 202 l 2
 53 273 98 356 223 356 c 0
 326 356 392 293 429 226 c 1
 458 409 l 2
 460 419 460 428 460 437 c 0
 460 508 410 540 331 540 c 0
 246 540 186 493 163 415 c 1
 57 423 l 1
 87 523 186 619 343 619 c 0
 483 619 568 547 568 442 c 0
 568 431 567 420 565 409 c 2
 500 0 l 1
 393 0 l 1
 410 105 l 1
 399 172 331 284 219 284 c 0
 176 284 151 257 145 219 c 0
 143 207 137 195 133 186 c 1
 142 188 153 189 163 189 c 0
 218 189 256 158 256 108 c 0
 256 102 255 96 254 90 c 0
 244 30 193 -9 132 -9 c 0
 66 -9 26 32 26 88 c 0
 26 94 26 101 27 107 c 2
155 136 m 0
 128 136 106 117 102 90 c 0
 102 87 101 85 101 82 c 0
 101 60 116 44 140 44 c 0
 167 44 188 63 192 90 c 0
 192 93 193 96 193 99 c 0
 193 121 179 136 155 136 c 0
EndSplineSet
PickledDataWithLists: "(dp0
Vcom.fontlab.hintData
p1
(dp2
Vvhints
p3
(lp4
(dp5
Vposition
p6
L41L
sVwidth
p7
L10L
sa(dp8
g6
L91L
sg7
L10L
sa(dp9
g6
L179L
sg7
L10L
sa(dp10
g6
L504L
sg7
L10L
sa(dp11
g6
L589L
sg7
L10L
sasVhhints
p12
(lp13
(dp14
g6
L-16L
sg7
L10L
sa(dp15
g6
L-6L
sg7
L10L
sa(dp16
g6
L296L
sg7
L10L
sa(dp17
g6
L414L
sg7
L10L
sa(dp18
g6
L549L
sg7
L10L
sa(dp19
g6
L610L
sg7
L10L
sass."
EndChar

StartChar: uni0E26
Encoding: 438 3622 167
GlifName: uni0E_26
Width: 670
VWidth: 0
GlyphClass: 2
Flags: MW
LayerCount: 2
Fore
SplineSet
109 136 m 0
 82 136 60 117 56 90 c 0
 56 87 55 85 55 82 c 0
 55 60 70 44 94 44 c 0
 121 44 142 63 146 90 c 0
 146 93 147 96 147 99 c 0
 147 121 133 136 109 136 c 0
363 619 m 0
 508 619 596 544 596 434 c 0
 596 423 595 411 593 399 c 2
 497 -210 l 1
 390 -210 l 1
 486 399 l 2
 488 409 488 419 488 428 c 0
 488 503 435 540 351 540 c 0
 274 540 216 503 185 441 c 1
 343 410 l 1
 325 366 l 2
 323 366 305 369 293 369 c 0
 253 369 232 344 226 304 c 2
 211 210 l 2
 209 198 209 187 209 177 c 0
 209 159 210 143 210 124 c 0
 210 114 210 102 208 90 c 0
 198 30 147 -9 86 -9 c 0
 31 -9 -8 22 -8 72 c 0
 -8 78 -7 84 -6 90 c 0
 3 149 54 187 113 189 c 1
 110 199 108 210 108 222 c 0
 108 228 108 234 109 240 c 2
 118 294 l 2
 126 344 156 377 201 392 c 1
 66 416 l 1
 97 520 200 619 363 619 c 0
EndSplineSet
PickledDataWithLists: "(dp0
Vcom.fontlab.hintData
p1
(dp2
Vvhints
p3
(lp4
(dp5
Vposition
p6
L26L
sVwidth
p7
L10L
sa(dp8
g6
L81L
sg7
L10L
sa(dp9
g6
L131L
sg7
L10L
sa(dp10
g6
L219L
sg7
L10L
sa(dp11
g6
L465L
sg7
L10L
sa(dp12
g6
L476L
sg7
L10L
sa(dp13
g6
L556L
sg7
L10L
sa(dp14
g6
L564L
sg7
L10L
sasVhhints
p15
(lp16
(dp17
g6
L-246L
sg7
L10L
sa(dp18
g6
L-16L
sg7
L10L
sa(dp19
g6
L66L
sg7
L10L
sa(dp20
g6
L544L
sg7
L10L
sa(dp21
g6
L606L
sg7
L10L
sass."
EndChar

StartChar: uni0E260E45.liga
Encoding: 809 63618 168
GlifName: uni0E_260E_45.liga
Width: 960
VWidth: 0
GlyphClass: 3
Flags: MW
LayerCount: 2
Fore
SplineSet
109 136 m 0
 82 136 60 117 56 90 c 0
 56 87 55 85 55 82 c 0
 55 60 70 44 94 44 c 0
 121 44 142 63 146 90 c 0
 146 93 147 96 147 99 c 0
 147 121 133 136 109 136 c 0
563 537 m 1
 599 579 653 613 727 613 c 0
 836 613 891 549 891 467 c 0
 891 457 891 447 889 437 c 2
 787 -210 l 1
 681 -210 l 1
 783 437 l 2
 784 446 785 454 785 461 c 0
 785 514 752 534 712 534 c 0
 653 534 616 487 596 436 c 1
 596 424 595 412 593 399 c 2
 497 -210 l 1
 390 -210 l 1
 486 399 l 2
 488 409 488 419 488 428 c 0
 488 503 435 540 351 540 c 0
 274 540 216 503 185 441 c 1
 343 410 l 1
 325 366 l 2
 323 366 305 369 293 369 c 0
 253 369 232 344 226 304 c 2
 211 210 l 2
 209 198 209 187 209 177 c 0
 209 159 210 143 210 124 c 0
 210 114 210 102 208 90 c 0
 198 30 147 -9 86 -9 c 0
 31 -9 -8 22 -8 72 c 0
 -8 78 -7 84 -6 90 c 0
 3 149 54 187 113 189 c 1
 110 199 108 210 108 222 c 0
 108 228 108 234 109 240 c 2
 118 294 l 2
 126 344 156 377 201 392 c 1
 66 416 l 1
 97 520 200 619 363 619 c 0
 456 619 525 588 563 537 c 1
EndSplineSet
PickledDataWithLists: "(dp0
Vcom.fontlab.hintData
p1
(dp2
Vvhints
p3
(lp4
(dp5
Vposition
p6
L26L
sVwidth
p7
L10L
sa(dp8
g6
L81L
sg7
L10L
sa(dp9
g6
L131L
sg7
L10L
sa(dp10
g6
L219L
sg7
L10L
sa(dp11
g6
L465L
sg7
L10L
sa(dp12
g6
L476L
sg7
L10L
sa(dp13
g6
L556L
sg7
L10L
sa(dp14
g6
L563L
sg7
L10L
sa(dp15
g6
L756L
sg7
L10L
sa(dp16
g6
L782L
sg7
L10L
sa(dp17
g6
L844L
sg7
L10L
sa(dp18
g6
L870L
sg7
L10L
sasVhhints
p19
(lp20
(dp21
g6
L-245L
sg7
L10L
sa(dp22
g6
L-16L
sg7
L10L
sa(dp23
g6
L66L
sg7
L10L
sa(dp24
g6
L544L
sg7
L10L
sa(dp25
g6
L606L
sg7
L10L
sass."
Ligature2: "Thai.liga subtable" uni0E26 uni200D uni0E45
Ligature2: "Thai.liga subtable" uni0E26 uni0E45
Colour: ff00ff
EndChar

StartChar: uni0E27
Encoding: 439 3623 169
GlifName: uni0E_27
Width: 535
VWidth: 0
GlyphClass: 2
Flags: MW
AnchorPoint: "ThaiAbove.mark" 485 0 basechar 0
LayerCount: 2
Fore
SplineSet
26 451 m 1
 52 533 136 619 273 619 c 0
 396 619 465 549 465 455 c 0
 465 445 464 434 462 423 c 2
 424 185 l 1
 413 114 l 2
 401 41 345 -9 264 -9 c 0
 209 -9 170 22 170 72 c 0
 170 78 171 84 172 90 c 0
 182 150 234 189 295 189 c 0
 304 189 312 188 321 186 c 1
 321 196 320 207 322 217 c 2
 355 423 l 2
 357 433 357 443 357 451 c 0
 357 514 317 540 261 540 c 0
 198 540 151 505 131 443 c 1
 26 451 l 1
287 136 m 0
 260 136 238 117 234 90 c 0
 234 87 233 85 233 82 c 0
 233 60 248 44 272 44 c 0
 299 44 320 63 324 90 c 0
 324 93 325 96 325 99 c 0
 325 121 311 136 287 136 c 0
EndSplineSet
PickledDataWithLists: "(dp0
Vcom.fontlab.hintData
p1
(dp2
Vvhints
p3
(lp4
(dp5
Vposition
p6
L21L
sVwidth
p7
L10L
sa(dp8
g6
L168L
sg7
L10L
sa(dp9
g6
L255L
sg7
L10L
sa(dp10
g6
L411L
sg7
L10L
sa(dp11
g6
L499L
sg7
L10L
sasVhhints
p12
(lp13
(dp14
g6
L-15L
sg7
L10L
sa(dp15
g6
L46L
sg7
L10L
sa(dp16
g6
L136L
sg7
L10L
sa(dp17
g6
L394L
sg7
L10L
sa(dp18
g6
L552L
sg7
L9L
sa(dp19
g6
L614L
sg7
L10L
sass."
EndChar

StartChar: uni0E28
Encoding: 440 3624 170
GlifName: uni0E_28
Width: 680
VWidth: 0
GlyphClass: 2
Flags: MW
LayerCount: 2
Fore
SplineSet
328 365 m 0
 301 365 280 346 276 319 c 0
 276 316 275 313 275 310 c 0
 275 288 289 273 313 273 c 0
 340 273 362 292 366 319 c 0
 366 322 367 324 367 327 c 0
 367 349 352 365 328 365 c 0
423 0 m 1
 439 100 l 2
 447 153 470 271 490 399 c 0
 492 409 492 418 492 427 c 0
 492 445 489 462 483 476 c 1
 450 454 417 431 385 408 c 1
 413 395 430 370 430 337 c 0
 430 331 429 325 428 319 c 0
 418 259 366 220 305 220 c 0
 267 220 237 235 222 261 c 1
 197 224 174 172 159 100 c 2
 140 0 l 1
 25 0 l 1
 25 0 47 71 54 118 c 0
 60 154 61 181 61 207 c 0
 61 221 60 234 60 249 c 0
 60 285 62 329 73 399 c 0
 93 526 210 619 368 619 c 0
 433 619 485 603 524 576 c 1
 560 607 606 638 664 643 c 1
 667 550 l 1
 631 549 600 541 571 526 c 1
 587 500 596 468 596 433 c 0
 596 422 595 411 593 399 c 2
 530 0 l 1
 423 0 l 1
453 515 m 1
 430 532 396 540 356 540 c 0
 262 540 191 495 176 399 c 0
 164 326 160 277 157 241 c 1
 181 301 214 357 257 390 c 0
 274 404 297 414 320 417 c 1
 361 449 408 484 453 515 c 1
EndSplineSet
PickledDataWithLists: "(dp0
Vcom.fontlab.hintData
p1
(dp2
Vvhints
p3
(lp4
(dp5
Vposition
p6
L59L
sVwidth
p7
L10L
sa(dp8
g6
L142L
sg7
L10L
sa(dp9
g6
L439L
sg7
L10L
sa(dp10
g6
L508L
sg7
L10L
sa(dp11
g6
L590L
sg7
L10L
sa(dp12
g6
L637L
sg7
L10L
sasVhhints
p13
(lp14
(dp15
g6
L-18L
sg7
L10L
sa(dp16
g6
L-4L
sg7
L10L
sa(dp17
g6
L551L
sg7
L10L
sa(dp18
g6
L608L
sg7
L10L
sa(dp19
g6
L654L
sg7
L10L
sass."
EndChar

StartChar: uni0E29
Encoding: 441 3625 171
GlifName: uni0E_29
Width: 710
VWidth: 0
GlyphClass: 2
Flags: MW
LayerCount: 2
Fore
SplineSet
146 464 m 0
 173 464 195 483 199 510 c 0
 199 513 200 515 200 518 c 0
 200 540 185 556 161 556 c 0
 134 556 113 537 109 510 c 0
 109 507 108 504 108 501 c 0
 108 479 122 464 146 464 c 0
375 380 m 0
 354 380 338 365 335 345 c 0
 335 343 335 341 335 339 c 0
 335 322 345 310 364 310 c 0
 385 310 402 325 405 345 c 0
 405 347 405 349 405 351 c 0
 405 368 394 380 375 380 c 0
382 422 m 0
 425 422 455 398 455 358 c 0
 455 354 455 349 454 345 c 0
 451 325 441 308 428 295 c 1
 434 296 439 296 443 296 c 0
 460 296 479 297 496 300 c 1
 543 600 l 1
 650 600 l 1
 607 329 l 1
 635 339 660 350 681 360 c 1
 691 304 l 1
 664 292 633 281 598 272 c 1
 585 188 l 2
 566 68 453 -19 302 -19 c 0
 165 -19 82 52 82 155 c 0
 82 166 83 177 85 188 c 2
 112 360 l 2
 115 380 124 397 133 411 c 1
 81 413 46 444 46 493 c 0
 46 498 46 504 47 510 c 0
 57 570 108 609 169 609 c 0
 224 609 263 578 263 528 c 0
 263 522 262 516 261 510 c 0
 254 464 231 435 224 390 c 2
 192 188 l 2
 190 179 190 169 190 161 c 0
 190 92 239 60 315 60 c 0
 400 60 464 101 478 188 c 2
 488 252 l 1
 462 249 433 248 405 248 c 0
 330 248 285 276 285 329 c 0
 285 334 285 339 286 345 c 0
 293 392 334 422 382 422 c 0
EndSplineSet
PickledDataWithLists: "(dp0
Vcom.fontlab.hintData
p1
(dp2
Vvhints
p3
(lp4
(dp5
Vposition
p6
L84L
sVwidth
p7
L10L
sa(dp8
g6
L109L
sg7
L10L
sa(dp9
g6
L191L
sg7
L10L
sa(dp10
g6
L312L
sg7
L10L
sa(dp11
g6
L375L
sg7
L10L
sa(dp12
g6
L524L
sg7
L10L
sa(dp13
g6
L529L
sg7
L10L
sa(dp14
g6
L606L
sg7
L10L
sa(dp15
g6
L708L
sg7
L10L
sasVhhints
p16
(lp17
(dp18
g6
L-24L
sg7
L10L
sa(dp19
g6
L34L
sg7
L10L
sa(dp20
g6
L391L
sg7
L10L
sa(dp21
g6
L439L
sg7
L10L
sa(dp22
g6
L561L
sg7
L10L
sa(dp23
g6
L599L
sg7
L10L
sa(dp24
g6
L609L
sg7
L10L
sa(dp25
g6
L629L
sg7
L10L
sass."
EndChar

StartChar: uni0E2A
Encoding: 442 3626 172
GlifName: uni0E_2A_
Width: 650
VWidth: 0
GlyphClass: 2
Flags: MW
LayerCount: 2
Fore
SplineSet
27 107 m 2
 42 202 l 2
 53 273 98 356 223 356 c 0
 224 356 225 356 226 356 c 0
 276 399 354 460 428 512 c 1
 405 531 373 540 331 540 c 0
 246 540 186 493 163 415 c 1
 57 423 l 1
 87 523 186 619 343 619 c 0
 410 619 465 603 503 574 c 1
 539 605 585 638 644 643 c 1
 647 550 l 1
 609 549 578 540 547 524 c 1
 560 500 568 473 568 442 c 0
 568 431 567 420 565 409 c 2
 500 0 l 1
 393 0 l 1
 410 105 l 1
 399 172 331 284 219 284 c 0
 176 284 151 257 145 219 c 0
 143 207 137 195 133 186 c 1
 142 188 153 189 163 189 c 0
 218 189 256 158 256 108 c 0
 256 102 255 96 254 90 c 0
 244 30 193 -9 132 -9 c 0
 66 -9 26 32 26 88 c 0
 26 94 26 101 27 107 c 2
155 136 m 0
 128 136 106 117 102 90 c 0
 102 87 101 85 101 82 c 0
 101 60 116 44 140 44 c 0
 167 44 188 63 192 90 c 0
 192 93 193 96 193 99 c 0
 193 121 179 136 155 136 c 0
285 348 m 1
 353 329 400 279 429 226 c 1
 458 409 l 2
 460 419 460 428 460 437 c 0
 460 449 459 461 456 471 c 1
 394 430 330 385 285 348 c 1
EndSplineSet
PickledDataWithLists: "(dp0
Vcom.fontlab.hintData
p1
(dp2
Vvhints
p3
(lp4
(dp5
Vposition
p6
L54L
sVwidth
p7
L10L
sa(dp8
g6
L94L
sg7
L10L
sa(dp9
g6
L136L
sg7
L10L
sa(dp10
g6
L176L
sg7
L10L
sa(dp11
g6
L504L
sg7
L10L
sa(dp12
g6
L586L
sg7
L10L
sa(dp13
g6
L616L
sg7
L10L
sasVhhints
p14
(lp15
(dp16
g6
L-14L
sg7
L10L
sa(dp17
g6
L-4L
sg7
L10L
sa(dp18
g6
L294L
sg7
L10L
sa(dp19
g6
L370L
sg7
L10L
sa(dp20
g6
L429L
sg7
L10L
sa(dp21
g6
L548L
sg7
L10L
sa(dp22
g6
L606L
sg7
L10L
sa(dp23
g6
L654L
sg7
L10L
sass."
EndChar

StartChar: uni0E2B
Encoding: 443 3627 173
GlifName: uni0E_2B_
Width: 660
VWidth: 0
GlyphClass: 2
Flags: MW
LayerCount: 2
Fore
SplineSet
507 464 m 0
 534 464 556 483 560 510 c 0
 560 513 561 515 561 518 c 0
 561 540 546 556 522 556 c 0
 495 556 474 537 470 510 c 0
 470 507 469 504 469 501 c 0
 469 479 483 464 507 464 c 0
151 464 m 0
 178 464 200 483 204 510 c 0
 204 513 205 515 205 518 c 0
 205 540 190 556 166 556 c 0
 139 556 118 537 114 510 c 0
 114 507 113 504 113 501 c 0
 113 479 127 464 151 464 c 0
473 381 m 1
 353 351 222 216 181 87 c 1
 167 0 l 1
 60 0 l 1
 117 360 l 2
 120 380 129 397 138 411 c 1
 86 413 51 444 51 493 c 0
 51 498 51 504 52 510 c 0
 62 570 113 609 174 609 c 0
 229 609 268 578 268 528 c 0
 268 522 267 516 266 510 c 0
 259 464 236 435 229 390 c 2
 208 256 l 1
 266 332 344 402 430 435 c 1
 415 449 407 469 407 493 c 0
 407 498 407 504 408 510 c 0
 418 570 469 609 530 609 c 0
 585 609 624 578 624 528 c 0
 624 522 623 516 622 510 c 0
 615 466 584 433 545 419 c 1
 563 406 578 390 578 368 c 0
 578 365 577 363 577 360 c 2
 520 0 l 1
 413 0 l 1
 473 380 l 2
 473 381 l 1
EndSplineSet
PickledDataWithLists: "(dp0
Vcom.fontlab.hintData
p1
(dp2
Vvhints
p3
(lp4
(dp5
Vposition
p6
L84L
sVwidth
p7
L10L
sa(dp8
g6
L166L
sg7
L10L
sa(dp9
g6
L191L
sg7
L11L
sa(dp10
g6
L320L
sg7
L10L
sa(dp11
g6
L395L
sg7
L10L
sa(dp12
g6
L493L
sg7
L10L
sa(dp13
g6
L525L
sg7
L10L
sa(dp14
g6
L600L
sg7
L10L
sa(dp15
g6
L638L
sg7
L10L
sasVhhints
p16
(lp17
(dp18
g6
L-24L
sg7
L10L
sa(dp19
g6
L-12L
sg7
L10L
sa(dp20
g6
L553L
sg7
L10L
sa(dp21
g6
L589L
sg7
L10L
sa(dp22
g6
L602L
sg7
L10L
sass."
EndChar

StartChar: uni0E2C
Encoding: 444 3628 174
GlifName: uni0E_2C_
Width: 760
VWidth: 0
GlyphClass: 2
Flags: MW
AnchorPoint: "ThaiBelow.mark" 660 0 basechar 0
AnchorPoint: "ThaiTone.mark" 660 0 basechar 0
AnchorPoint: "ThaiAbove.mark" 660 0 basechar 0
LayerCount: 2
Fore
SplineSet
524 232 m 2
 552 412 l 2
 554 424 558 434 563 443 c 1
 561 443 559 443 557 443 c 0
 502 443 464 474 464 524 c 0
 464 530 465 536 466 542 c 0
 476 602 528 641 589 641 c 0
 644 641 682 610 682 560 c 0
 682 554 681 548 680 542 c 0
 680 541 l 2
 681 542 l 2
 681 541 680 539 680 538 c 1
 696 559 708 587 718 630 c 1
 779 623 l 1
 758 545 716 502 667 475 c 1
 664 463 661 449 658 432 c 2
 590 2 l 1
 498 2 l 1
 382 360 l 1
 152 2 l 1
 60 2 l 1
 117 362 l 2
 120 383 128 400 138 413 c 1
 85 415 50 446 50 495 c 0
 50 500 50 506 51 512 c 0
 61 572 113 611 174 611 c 0
 229 611 267 580 267 530 c 0
 267 524 266 518 265 512 c 0
 257 463 233 437 225 389 c 2
 200 232 l 2
 197 211 189 185 183 165 c 1
 373 467 l 1
 399 467 l 1
 425 467 l 1
 519 163 l 1
 519 184 521 211 524 232 c 2
566 496 m 0
 593 496 614 515 618 542 c 0
 618 545 619 547 619 550 c 0
 619 572 604 588 580 588 c 0
 553 588 532 569 528 542 c 0
 528 539 527 537 527 534 c 0
 527 512 542 496 566 496 c 0
151 466 m 0
 178 466 199 485 203 512 c 0
 203 515 204 517 204 520 c 0
 204 542 189 558 165 558 c 0
 138 558 117 539 113 512 c 0
 113 509 112 507 112 504 c 0
 112 482 127 466 151 466 c 0
EndSplineSet
PickledDataWithLists: "(dp0
Vcom.fontlab.hintData
p1
(dp2
Vvhints
p3
(lp4
(dp5
Vposition
p6
L58L
sVwidth
p7
L10L
sa(dp8
g6
L104L
sg7
L10L
sa(dp9
g6
L185L
sg7
L10L
sa(dp10
g6
L367L
sg7
L10L
sa(dp11
g6
L430L
sg7
L10L
sa(dp12
g6
L587L
sg7
L10L
sa(dp13
g6
L661L
sg7
L10L
sa(dp14
g6
L760L
sg7
L10L
sasVhhints
p15
(lp16
(dp17
g6
L-18L
sg7
L10L
sa(dp18
g6
L-13L
sg7
L10L
sa(dp19
g6
L329L
sg7
L10L
sa(dp20
g6
L391L
sg7
L10L
sa(dp21
g6
L439L
sg7
L10L
sa(dp22
g6
L561L
sg7
L10L
sa(dp23
g6
L604L
sg7
L10L
sa(dp24
g6
L609L
sg7
L10L
sa(dp25
g6
L629L
sg7
L10L
sass."
EndChar

StartChar: uni0E2D
Encoding: 445 3629 175
GlifName: uni0E_2D_
Width: 635
VWidth: 0
GlyphClass: 2
Flags: MW
LayerCount: 2
Fore
SplineSet
57 423 m 1
 87 523 186 619 343 619 c 0
 483 619 568 547 568 442 c 0
 568 431 567 420 565 409 c 2
 529 184 l 2
 511 68 404 -19 257 -19 c 0
 124 -19 46 52 46 152 c 0
 46 162 47 173 49 184 c 2
 61 261 l 2
 71 321 123 360 184 360 c 0
 239 360 277 329 277 279 c 0
 277 273 276 267 275 261 c 0
 265 201 214 162 153 162 c 0
 151 162 150 162 148 162 c 1
 148 161 148 161 148 160 c 0
 148 91 201 60 270 60 c 0
 347 60 409 99 422 184 c 2
 458 409 l 2
 460 419 460 428 460 437 c 0
 460 508 410 540 331 540 c 0
 246 540 186 493 163 415 c 1
 57 423 l 1
176 307 m 0
 149 307 127 288 123 261 c 0
 123 258 122 256 122 253 c 0
 122 231 137 215 161 215 c 0
 188 215 209 234 213 261 c 0
 213 264 214 267 214 270 c 0
 214 292 200 307 176 307 c 0
EndSplineSet
PickledDataWithLists: "(dp0
Vcom.fontlab.hintData
p1
(dp2
Vvhints
p3
(lp4
(dp5
Vposition
p6
L50L
sVwidth
p7
L10L
sa(dp8
g6
L61L
sg7
L10L
sa(dp9
g6
L149L
sg7
L10L
sa(dp10
g6
L289L
sg7
L10L
sa(dp11
g6
L481L
sg7
L10L
sa(dp12
g6
L569L
sg7
L10L
sasVhhints
p13
(lp14
(dp15
g6
L-19L
sg7
L10L
sa(dp16
g6
L43L
sg7
L10L
sa(dp17
g6
L215L
sg7
L10L
sa(dp18
g6
L230L
sg7
L10L
sa(dp19
g6
L292L
sg7
L10L
sa(dp20
g6
L414L
sg7
L10L
sa(dp21
g6
L549L
sg7
L9L
sa(dp22
g6
L611L
sg7
L10L
sass."
EndChar

StartChar: uni0E2E
Encoding: 446 3630 176
GlifName: uni0E_2E_
Width: 640
VWidth: 0
GlyphClass: 2
Flags: MW
LayerCount: 2
Fore
SplineSet
171 307 m 0
 144 307 122 288 118 261 c 0
 118 258 117 256 117 253 c 0
 117 231 132 215 156 215 c 0
 183 215 204 234 208 261 c 0
 208 264 209 267 209 270 c 0
 209 292 195 307 171 307 c 0
179 360 m 0
 234 360 272 329 272 279 c 0
 272 273 271 267 270 261 c 0
 260 201 209 162 148 162 c 0
 146 162 145 162 143 162 c 1
 143 161 143 161 143 160 c 0
 143 91 196 60 265 60 c 0
 342 60 404 99 417 184 c 2
 436 300 l 2
 446 363 456 381 462 417 c 0
 462 419 463 422 463 424 c 1
 423 404 367 388 290 388 c 0
 158 388 72 428 72 482 c 0
 72 485 73 487 73 490 c 0
 82 545 165 619 324 619 c 0
 430 619 488 576 515 541 c 1
 534 569 547 605 553 639 c 1
 645 630 l 1
 636 578 601 523 554 489 c 1
 559 475 563 457 563 438 c 0
 563 431 562 424 561 417 c 2
 524 184 l 2
 506 68 399 -19 252 -19 c 0
 119 -19 41 52 41 152 c 0
 41 162 42 173 44 184 c 2
 56 261 l 2
 66 321 118 360 179 360 c 0
173 487 m 0
 173 471 197 451 300 451 c 0
 371 451 422 465 456 485 c 1
 438 528 389 552 316 552 c 0
 226 552 173 522 173 487 c 0
EndSplineSet
PickledDataWithLists: "(dp0
Vcom.fontlab.hintData
p1
(dp2
Vvhints
p3
(lp4
(dp5
Vposition
p6
L54L
sVwidth
p7
L10L
sa(dp8
g6
L64L
sg7
L10L
sa(dp9
g6
L136L
sg7
L10L
sa(dp10
g6
L146L
sg7
L10L
sa(dp11
g6
L286L
sg7
L10L
sa(dp12
g6
L484L
sg7
L10L
sa(dp13
g6
L566L
sg7
L10L
sa(dp14
g6
L616L
sg7
L10L
sasVhhints
p15
(lp16
(dp17
g6
L-18L
sg7
L10L
sa(dp18
g6
L40L
sg7
L10L
sa(dp19
g6
L216L
sg7
L10L
sa(dp20
g6
L233L
sg7
L10L
sa(dp21
g6
L289L
sg7
L10L
sa(dp22
g6
L363L
sg7
L10L
sa(dp23
g6
L420L
sg7
L10L
sa(dp24
g6
L552L
sg7
L10L
sa(dp25
g6
L610L
sg7
L10L
sa(dp26
g6
L654L
sg7
L10L
sass."
EndChar

StartChar: uni0E2F
Encoding: 447 3631 177
GlifName: uni0E_2F_
Width: 495
VWidth: 0
GlyphClass: 2
Flags: MW
LayerCount: 2
Fore
SplineSet
175 556 m 0
 148 556 127 537 123 510 c 0
 123 507 122 504 122 501 c 0
 122 479 136 464 160 464 c 0
 187 464 209 483 213 510 c 0
 213 513 214 515 214 518 c 0
 214 540 199 556 175 556 c 0
183 609 m 0
 238 609 277 578 277 528 c 0
 277 522 276 516 275 510 c 0
 272 491 264 474 254 460 c 1
 319 483 360 536 382 595 c 1
 432 600 l 1
 441 589 444 574 444 554 c 0
 444 534 441 508 436 477 c 2
 384 152 l 2
 365 32 225 -5 96 -19 c 1
 92 58 l 1
 214 72 267 92 277 152 c 2
 314 383 l 2
 319 415 332 434 342 456 c 1
 300 423 244 400 174 400 c 0
 99 400 59 437 59 491 c 0
 59 497 60 503 61 510 c 0
 71 570 122 609 183 609 c 0
EndSplineSet
PickledDataWithLists: "(dp0
Vcom.fontlab.hintData
p1
(dp2
Vvhints
p3
(lp4
(dp5
Vposition
p6
L31L
sVwidth
p7
L10L
sa(dp8
g6
L119L
sg7
L10L
sa(dp9
g6
L153L
sg7
L10L
sa(dp10
g6
L356L
sg7
L10L
sa(dp11
g6
L356L
sg7
L10L
sa(dp12
g6
L434L
sg7
L10L
sa(dp13
g6
L439L
sg7
L10L
sasVhhints
p14
(lp15
(dp16
g6
L-16L
sg7
L10L
sa(dp17
g6
L394L
sg7
L10L
sa(dp18
g6
L456L
sg7
L10L
sa(dp19
g6
L589L
sg7
L10L
sa(dp20
g6
L596L
sg7
L10L
sass."
EndChar

StartChar: uni0E30
Encoding: 448 3632 178
GlifName: uni0E_30
Width: 540
VWidth: 0
GlyphClass: 2
Flags: MW
LayerCount: 2
Fore
SplineSet
187 506 m 0
 160 506 139 487 135 460 c 0
 135 457 134 455 134 452 c 0
 134 430 149 414 173 414 c 0
 200 414 221 433 225 460 c 0
 225 463 226 465 226 468 c 0
 226 490 211 506 187 506 c 0
196 559 m 0
 251 559 289 528 289 478 c 0
 289 472 288 466 287 460 c 0
 283 436 273 415 257 399 c 1
 258 399 259 399 260 399 c 2
 290 399 l 2
 356 399 399 456 415 539 c 1
 504 528 l 1
 485 426 410 343 284 343 c 2
 209 343 l 2
 116 343 72 385 72 442 c 0
 72 448 72 454 73 460 c 0
 83 520 135 559 196 559 c 0
140 206 m 0
 113 206 91 187 87 160 c 0
 87 157 86 155 86 152 c 0
 86 130 101 114 125 114 c 0
 152 114 173 133 177 160 c 0
 177 163 178 166 178 169 c 0
 178 191 164 206 140 206 c 0
148 259 m 0
 203 259 241 228 241 178 c 0
 241 172 240 166 239 160 c 0
 235 136 226 115 210 99 c 1
 211 99 212 99 213 99 c 2
 243 99 l 2
 309 99 352 156 368 239 c 1
 456 228 l 1
 437 126 363 43 237 43 c 2
 162 43 l 2
 69 43 24 86 24 143 c 0
 24 149 24 154 25 160 c 0
 35 220 87 259 148 259 c 0
EndSplineSet
PickledDataWithLists: "(dp0
Vcom.fontlab.hintData
p1
(dp2
Vvhints
p3
(lp4
(dp5
Vposition
p6
L51L
sVwidth
p7
L10L
sa(dp8
g6
L60L
sg7
L10L
sa(dp9
g6
L139L
sg7
L10L
sa(dp10
g6
L144L
sg7
L10L
sa(dp11
g6
L154L
sg7
L10L
sa(dp12
g6
L450L
sg7
L10L
sasVhhints
p13
(lp14
(dp15
g6
L60L
sg7
L10L
sa(dp16
g6
L122L
sg7
L10L
sa(dp17
g6
L228L
sg7
L10L
sa(dp18
g6
L360L
sg7
L10L
sa(dp19
g6
L421L
sg7
L10L
sa(dp20
g6
L536L
sg7
L10L
sass."
EndChar

StartChar: uni0E31
Encoding: 449 3633 179
GlifName: uni0E_31
Width: 0
VWidth: 0
GlyphClass: 4
Flags: MW
AnchorPoint: "ThaiExtendedAbove.mkmk" -60 0 basemark 0
AnchorPoint: "ThaiAbove.mark" -60 0 mark 0
LayerCount: 2
Fore
SplineSet
-196 847 m 0
 -218 847 -235 832 -238 810 c 0
 -238 808 -238 805 -238 803 c 0
 -238 785 -228 773 -208 773 c 0
 -186 773 -169 788 -166 810 c 0
 -166 812 -166 815 -166 817 c 0
 -166 835 -176 847 -196 847 c 0
-188 894 m 0
 -141 894 -111 867 -111 825 c 0
 -111 820 -111 815 -112 810 c 0
 -116 787 -127 768 -142 754 c 1
 -138 754 -133 754 -129 754 c 2
 -109 754 l 2
 -48 754 4 784 19 879 c 1
 98 870 l 1
 81 765 -1 702 -104 702 c 2
 -164 702 l 2
 -244 702 -293 735 -293 792 c 0
 -293 798 -293 804 -292 810 c 0
 -284 861 -240 894 -188 894 c 0
EndSplineSet
PickledDataWithLists: "(dp0
Vcom.fontlab.hintData
p1
(dp2
Vvhints
p3
(lp4
(dp5
Vposition
p6
L-391L
sVwidth
p7
L10L
sa(dp8
g6
L-313L
sg7
L10L
sa(dp9
g6
L-306L
sg7
L10L
sa(dp10
g6
L55L
sg7
L10L
sasVhhints
p11
(lp12
(dp13
g6
L717L
sg7
L10L
sa(dp14
g6
L772L
sg7
L10L
sa(dp15
g6
L882L
sg7
L10L
sa(dp16
g6
L952L
sg7
L10L
sass."
Substitution2: "Thai.sl subtable" uni0E31.sl
EndChar

StartChar: uni0E32
Encoding: 450 3634 180
GlifName: uni0E_32
Width: 485
VWidth: 0
GlyphClass: 2
Flags: MW
LayerCount: 2
Fore
SplineSet
29 468 m 1
 51 540 125 619 248 619 c 0
 358 619 417 555 417 472 c 0
 417 463 417 453 415 443 c 2
 345 0 l 1
 238 0 l 1
 308 443 l 2
 309 452 310 460 310 467 c 0
 310 520 277 540 236 540 c 0
 188 540 151 513 135 460 c 1
 29 468 l 1
EndSplineSet
PickledDataWithLists: "(dp0
Vcom.fontlab.hintData
p1
(dp2
Vvhints
p3
(lp4
(dp5
Vposition
p6
L15L
sVwidth
p7
L10L
sa(dp8
g6
L291L
sg7
L10L
sa(dp9
g6
L312L
sg7
L10L
sa(dp10
g6
L379L
sg7
L10L
sa(dp11
g6
L400L
sg7
L10L
sasVhhints
p12
(lp13
(dp14
g6
L-25L
sg7
L10L
sa(dp15
g6
L399L
sg7
L10L
sa(dp16
g6
L545L
sg7
L10L
sa(dp17
g6
L606L
sg7
L10L
sass."
EndChar

StartChar: uni0E34
Encoding: 452 3636 182
GlifName: uni0E_34
Width: 0
VWidth: 0
GlyphClass: 4
Flags: MW
AnchorPoint: "ThaiExtendedAbove.mkmk" -60 0 basemark 0
AnchorPoint: "ThaiAbove.mark" -60 0 mark 0
LayerCount: 2
Fore
SplineSet
-373 772 m 1
 -129 730 l 1
 -149 774 -191 832 -278 832 c 0
 -318 832 -356 813 -373 772 c 1
-55 692 m 1
 -67 675 l 1
 -468 739 l 1
 -456 813 -391 890 -272 890 c 0
 -98 890 -63 723 -55 692 c 1
EndSplineSet
PickledDataWithLists: "(dp0
Vcom.fontlab.hintData
p1
(dp2
Vvhints
p3
(lp4
(dp5
Vposition
p6
L-534L
sVwidth
p7
L10L
sa(dp8
g6
L-456L
sg7
L10L
sasVhhints
p9
(lp10
(dp11
g6
L682L
sg7
L10L
sa(dp12
g6
L871L
sg7
L9L
sa(dp13
g6
L919L
sg7
L10L
sass."
Substitution2: "Thai.sl subtable" uni0E34.sl
EndChar

StartChar: uni0E35
Encoding: 453 3637 183
GlifName: uni0E_35
Width: 0
VWidth: 0
GlyphClass: 4
Flags: MW
AnchorPoint: "ThaiExtendedAbove.mkmk" -60 0 basemark 0
AnchorPoint: "ThaiAbove.mark" -60 0 mark 0
LayerCount: 2
Fore
SplineSet
-105 822 m 2
 -93 895 l 1
 -15 881 l 1
 -47 683 l 1
 -61 670 l 1
 -469 734 l 1
 -457 808 -393 886 -281 886 c 0
 -184 886 -131 823 -103 767 c 1
 -105 779 -106 792 -106 804 c 0
 -106 810 -106 816 -105 822 c 2
-374 767 m 1
 -115 722 l 1
 -137 766 -185 828 -280 828 c 0
 -320 828 -356 809 -374 767 c 1
EndSplineSet
PickledDataWithLists: "(dp0
Vcom.fontlab.hintData
p1
(dp2
Vvhints
p3
(lp4
(dp5
Vposition
p6
L-530L
sVwidth
p7
L10L
sa(dp8
g6
L-460L
sg7
L10L
sa(dp9
g6
L-189L
sg7
L10L
sa(dp10
g6
L-175L
sg7
L10L
sa(dp11
g6
L-116L
sg7
L10L
sasVhhints
p12
(lp13
(dp14
g6
L691L
sg7
L10L
sa(dp15
g6
L861L
sg7
L10L
sa(dp16
g6
L909L
sg7
L10L
sa(dp17
g6
L929L
sg7
L10L
sass."
Substitution2: "Thai.sl subtable" uni0E35.sl
EndChar

StartChar: uni0E36
Encoding: 454 3638 184
GlifName: uni0E_36
Width: 0
VWidth: 0
GlyphClass: 4
Flags: MW
AnchorPoint: "ThaiExtendedAbove.mkmk" -60 0 basemark 0
AnchorPoint: "ThaiAbove.mark" -60 0 mark 0
LayerCount: 2
Fore
SplineSet
-110 831 m 0
 -137 831 -159 812 -163 785 c 0
 -163 782 -164 780 -164 777 c 0
 -164 755 -149 739 -125 739 c 0
 -98 739 -77 758 -73 785 c 0
 -73 788 -72 791 -72 794 c 0
 -72 816 -86 831 -110 831 c 0
-102 884 m 0
 -47 884 -9 853 -9 803 c 0
 -9 797 -10 791 -11 785 c 0
 -21 725 -72 686 -133 686 c 0
 -154 686 -173 690 -188 699 c 1
 -469 734 l 1
 -457 808 -393 886 -281 886 c 0
 -240 886 -211 872 -189 852 c 1
 -167 872 -135 884 -102 884 c 0
-218 811 m 1
 -233 821 -253 828 -280 828 c 0
 -319 828 -356 809 -373 768 c 1
 -224 746 l 1
 -226 753 -226 760 -226 767 c 0
 -226 773 -226 779 -225 785 c 0
 -224 794 -221 803 -218 811 c 1
EndSplineSet
PickledDataWithLists: "(dp0
Vcom.fontlab.hintData
p1
(dp2
Vvhints
p3
(lp4
(dp5
Vposition
p6
L-544L
sVwidth
p7
L10L
sa(dp8
g6
L-466L
sg7
L10L
sa(dp9
g6
L-208L
sg7
L10L
sa(dp10
g6
L-134L
sg7
L10L
sa(dp11
g6
L-84L
sg7
L10L
sasVhhints
p12
(lp13
(dp14
g6
L689L
sg7
L10L
sa(dp15
g6
L723L
sg7
L10L
sa(dp16
g6
L824L
sg7
L21L
sa(dp17
g6
L861L
sg7
L10L
sa(dp18
g6
L892L
sg7
L10L
sa(dp19
g6
L909L
sg7
L10L
sass."
Substitution2: "Thai.sl subtable" uni0E36.sl
EndChar

StartChar: uni0E37
Encoding: 455 3639 185
GlifName: uni0E_37
Width: 0
VWidth: 0
GlyphClass: 4
Flags: MW
AnchorPoint: "ThaiExtendedAbove.mkmk" -60 0 basemark 0
AnchorPoint: "ThaiAbove.mark" -60 0 mark 0
LayerCount: 2
Fore
SplineSet
-196 872 m 2
 -188 920 l 1
 -125 906 l 1
 -153 728 l 1
 -97 718 l 1
 -99 726 -101 737 -101 748 c 0
 -101 753 -101 757 -100 762 c 2
 -79 895 l 1
 -15 881 l 1
 -47 683 l 1
 -60 670 l 1
 -469 733 l 1
 -457 807 -399 885 -290 885 c 0
 -244 885 -213 868 -194 845 c 1
 -196 855 -197 864 -196 872 c 2
-177 732 m 1
 -191 779 -222 827 -289 827 c 0
 -325 827 -358 807 -374 766 c 1
 -177 732 l 1
EndSplineSet
PickledDataWithLists: "(dp0
Vcom.fontlab.hintData
p1
(dp2
Vvhints
p3
(lp4
(dp5
Vposition
p6
L-554L
sVwidth
p7
L10L
sa(dp8
g6
L-476L
sg7
L10L
sa(dp9
g6
L-280L
sg7
L10L
sa(dp10
g6
L-218L
sg7
L10L
sa(dp11
g6
L-159L
sg7
L10L
sa(dp12
g6
L-148L
sg7
L10L
sa(dp13
g6
L-100L
sg7
L10L
sasVhhints
p14
(lp15
(dp16
g6
L698L
sg7
L10L
sa(dp17
g6
L861L
sg7
L10L
sa(dp18
g6
L909L
sg7
L10L
sa(dp19
g6
L922L
sg7
L10L
sa(dp20
g6
L932L
sg7
L10L
sass."
Substitution2: "Thai.sl subtable" uni0E37.sl
EndChar

StartChar: uni0E38
Encoding: 456 3640 186
GlifName: uni0E_38
Width: 0
VWidth: 0
GlyphClass: 4
Flags: MW
AnchorPoint: "ThaiExtendedBelow.mkmk" -60 0 mark 0
AnchorPoint: "ThaiExtendedBelow.mkmk" -104 -280 basemark 0
AnchorPoint: "ThaiBelow.mark" -60 0 mark 0
LayerCount: 2
Fore
SplineSet
-258 -113 m 0
 -280 -113 -297 -128 -300 -150 c 0
 -300 -152 -300 -155 -300 -157 c 0
 -300 -175 -290 -187 -270 -187 c 0
 -248 -187 -231 -172 -228 -150 c 0
 -228 -148 -228 -145 -228 -143 c 0
 -228 -125 -238 -113 -258 -113 c 0
-278 -305 m 1
 -270 -255 l 2
 -269 -247 -266 -239 -262 -233 c 1
 -267 -234 -272 -234 -277 -234 c 0
 -324 -234 -355 -208 -355 -165 c 0
 -355 -160 -355 -155 -354 -150 c 0
 -346 -99 -302 -66 -250 -66 c 0
 -203 -66 -173 -93 -173 -135 c 0
 -173 -140 -173 -145 -174 -150 c 0
 -180 -191 -190 -205 -195 -239 c 2
 -205 -305 l 1
 -278 -305 l 1
EndSplineSet
PickledDataWithLists: "(dp0
Vcom.fontlab.hintData
p1
(dp2
Vvhints
p3
(lp4
(dp5
Vposition
p6
L-285L
sVwidth
p7
L10L
sa(dp8
g6
L-185L
sg7
L10L
sa(dp9
g6
L-104L
sg7
L10L
sasVhhints
p10
(lp11
(dp12
g6
L-322L
sg7
L10L
sa(dp13
g6
L-172L
sg7
L10L
sa(dp14
g6
L-98L
sg7
L10L
sass."
Substitution2: "ThaiBV.sd subtable" uni0E38.sd
EndChar

StartChar: uni0E39
Encoding: 457 3641 187
GlifName: uni0E_39
Width: 0
VWidth: 0
GlyphClass: 4
Flags: MW
AnchorPoint: "ThaiExtendedBelow.mkmk" -60 0 mark 0
AnchorPoint: "ThaiExtendedBelow.mkmk" -104 -280 basemark 0
AnchorPoint: "ThaiBelow.mark" -90 0 mark 0
LayerCount: 2
Fore
SplineSet
-418 -113 m 0
 -440 -113 -457 -128 -460 -150 c 0
 -460 -152 -460 -155 -460 -157 c 0
 -460 -175 -450 -187 -430 -187 c 0
 -408 -187 -391 -172 -388 -150 c 0
 -388 -148 -388 -145 -388 -143 c 0
 -388 -125 -398 -113 -418 -113 c 0
-334 -150 m 0
 -340 -187 -352 -198 -355 -219 c 2
 -357 -235 l 2
 -357 -236 -357 -238 -357 -239 c 0
 -357 -251 -347 -261 -314 -261 c 0
 -278 -261 -265 -249 -263 -235 c 2
 -238 -73 l 1
 -165 -73 l 1
 -191 -241 l 2
 -198 -286 -252 -310 -322 -310 c 0
 -387 -310 -430 -295 -430 -257 c 0
 -430 -254 -429 -251 -429 -248 c 2
 -427 -234 l 2
 -430 -234 -434 -234 -437 -234 c 0
 -484 -234 -515 -208 -515 -165 c 0
 -515 -160 -515 -155 -514 -150 c 0
 -506 -99 -462 -66 -410 -66 c 0
 -363 -66 -333 -93 -333 -135 c 0
 -333 -140 -333 -145 -334 -150 c 0
EndSplineSet
PickledDataWithLists: "(dp0
Vcom.fontlab.hintData
p1
(dp2
Vvhints
p3
(lp4
(dp5
Vposition
p6
L-401L
sVwidth
p7
L10L
sa(dp8
g6
L-115L
sg7
L10L
sasVhhints
p9
(lp10
(dp11
g6
L-331L
sg7
L10L
sa(dp12
g6
L-267L
sg7
L21L
sa(dp13
g6
L-154L
sg7
L10L
sa(dp14
g6
L-106L
sg7
L10L
sass."
Substitution2: "ThaiBV.sd subtable" uni0E39.sd
EndChar

StartChar: uni0E3A
Encoding: 458 3642 188
GlifName: uni0E_3A_
Width: 0
VWidth: 0
GlyphClass: 4
Flags: MW
AnchorPoint: "ThaiExtendedBelow.mkmk" -60 0 mark 0
AnchorPoint: "ThaiExtendedBelow.mkmk" -93 -210 basemark 0
AnchorPoint: "ThaiBelow.mark" -60 0 mark 0
LayerCount: 2
Fore
SplineSet
-222 -76 m 0
 -181 -76 -153 -99 -153 -137 c 0
 -153 -141 -153 -146 -154 -150 c 0
 -161 -196 -200 -224 -245 -224 c 0
 -286 -224 -315 -201 -315 -163 c 0
 -315 -159 -315 -154 -314 -150 c 0
 -307 -104 -267 -76 -222 -76 c 0
EndSplineSet
PickledDataWithLists: "(dp0
Vcom.fontlab.hintData
p1
(dp2
Vvhints
p3
(lp4
(dp5
Vposition
p6
L-229L
sVwidth
p7
L10L
sa(dp8
g6
L-81L
sg7
L10L
sasVhhints
p9
(lp10
(dp11
g6
L-231L
sg7
L10L
sa(dp12
g6
L-110L
sg7
L10L
sass."
Substitution2: "ThaiBV.sd subtable" uni0E3A.sd
EndChar

StartChar: uni0E3F
Encoding: 459 3647 189
GlifName: uni0E_3F_
Width: 720
VWidth: 0
GlyphClass: 2
Flags: MW
LayerCount: 2
Fore
SplineSet
341 450 m 1
 407 457 477 499 490 583 c 0
 491 591 492 597 492 604 c 0
 492 674 432 704 338 704 c 0
 304 704 274 702 254 701 c 1
 214 447 l 1
 249 449 293 450 341 450 c 1
479 433 m 1
 572 406 629 350 629 262 c 0
 629 251 628 238 626 226 c 0
 604 90 479 6 315 -7 c 1
 297 -120 l 1
 211 -120 l 1
 229 -9 l 1
 126 -8 46 -1 30 0 c 1
 154 780 l 1
 170 781 252 789 355 789 c 1
 373 900 l 1
 459 900 l 1
 440 783 l 1
 540 766 611 711 611 622 c 0
 611 613 611 603 609 593 c 0
 596 514 544 463 479 433 c 1
156 81 m 1
 184 79 222 77 268 77 c 0
 387 77 490 115 508 226 c 0
 510 235 510 245 510 253 c 0
 510 343 424 371 315 371 c 0
 269 371 229 369 201 367 c 1
 156 81 l 1
EndSplineSet
PickledDataWithLists: "(dp0
Vcom.fontlab.hintData
p1
(dp2
Vvhints
p3
(lp4
(dp5
Vposition
p6
L26L
sVwidth
p7
L10L
sa(dp8
g6
L116L
sg7
L10L
sa(dp9
g6
L121L
sg7
L10L
sa(dp10
g6
L223L
sg7
L10L
sa(dp11
g6
L343L
sg7
L10L
sa(dp12
g6
L350L
sg7
L10L
sa(dp13
g6
L407L
sg7
L10L
sa(dp14
g6
L412L
sg7
L10L
sa(dp15
g6
L537L
sg7
L10L
sa(dp16
g6
L636L
sg7
L10L
sa(dp17
g6
L735L
sg7
L10L
sasVhhints
p18
(lp19
(dp20
g6
L-127L
sg7
L10L
sa(dp21
g6
L-22L
sg7
L10L
sa(dp22
g6
L49L
sg7
L10L
sa(dp23
g6
L395L
sg7
L10L
sa(dp24
g6
L634L
sg7
L10L
sa(dp25
g6
L661L
sg7
L10L
sa(dp26
g6
L916L
sg7
L10L
sass."
EndChar

StartChar: uni0E40
Encoding: 460 3648 190
GlifName: uni0E_40
Width: 330
VWidth: 0
GlyphClass: 2
Flags: MW
LayerCount: 2
Fore
SplineSet
159 136 m 0
 132 136 110 117 106 90 c 0
 106 87 105 85 105 82 c 0
 105 60 120 44 144 44 c 0
 171 44 192 63 196 90 c 0
 196 93 197 96 197 99 c 0
 197 121 183 136 159 136 c 0
44 90 m 0
 51 136 68 165 75 210 c 2
 137 600 l 1
 244 600 l 1
 187 240 l 2
 184 220 177 203 168 189 c 1
 223 189 260 158 260 108 c 0
 260 102 259 96 258 90 c 0
 248 30 197 -9 136 -9 c 0
 81 -9 42 22 42 72 c 0
 42 78 43 84 44 90 c 0
EndSplineSet
PickledDataWithLists: "(dp0
Vcom.fontlab.hintData
p1
(dp2
Vvhints
p3
(lp4
(dp5
Vposition
p6
L116L
sVwidth
p7
L10L
sa(dp8
g6
L121L
sg7
L10L
sa(dp9
g6
L204L
sg7
L10L
sa(dp10
g6
L209L
sg7
L10L
sa(dp11
g6
L244L
sg7
L10L
sasVhhints
p12
(lp13
(dp14
g6
L-30L
sg7
L10L
sa(dp15
g6
L586L
sg7
L10L
sass."
EndChar

StartChar: uni0E41
Encoding: 461 3649 191
GlifName: uni0E_41
Width: 630
VWidth: 0
GlyphClass: 2
Flags: MW
LayerCount: 2
Fore
SplineSet
459 136 m 0
 432 136 410 117 406 90 c 0
 406 87 405 85 405 82 c 0
 405 60 420 44 444 44 c 0
 471 44 492 63 496 90 c 0
 496 93 497 96 497 99 c 0
 497 121 483 136 459 136 c 0
344 90 m 0
 351 136 368 165 375 210 c 2
 437 600 l 1
 544 600 l 1
 487 240 l 2
 484 220 477 203 468 189 c 1
 523 189 560 158 560 108 c 0
 560 102 559 96 558 90 c 0
 548 30 497 -9 436 -9 c 0
 381 -9 342 22 342 72 c 0
 342 78 343 84 344 90 c 0
159 136 m 0
 132 136 110 117 106 90 c 0
 106 87 105 85 105 82 c 0
 105 60 120 44 144 44 c 0
 171 44 192 63 196 90 c 0
 196 93 197 96 197 99 c 0
 197 121 183 136 159 136 c 0
44 90 m 0
 51 136 68 165 75 210 c 2
 137 600 l 1
 244 600 l 1
 187 240 l 2
 184 220 177 203 168 189 c 1
 223 189 260 158 260 108 c 0
 260 102 259 96 258 90 c 0
 248 30 197 -9 136 -9 c 0
 81 -9 42 22 42 72 c 0
 42 78 43 84 44 90 c 0
EndSplineSet
PickledDataWithLists: "(dp0
Vcom.fontlab.hintData
p1
(dp2
Vvhints
p3
(lp4
(dp5
Vposition
p6
L116L
sVwidth
p7
L10L
sa(dp8
g6
L121L
sg7
L10L
sa(dp9
g6
L204L
sg7
L10L
sa(dp10
g6
L209L
sg7
L10L
sa(dp11
g6
L259L
sg7
L10L
sa(dp12
g6
L386L
sg7
L10L
sa(dp13
g6
L391L
sg7
L10L
sa(dp14
g6
L474L
sg7
L10L
sa(dp15
g6
L479L
sg7
L10L
sa(dp16
g6
L514L
sg7
L10L
sasVhhints
p17
(lp18
(dp19
g6
L-26L
sg7
L10L
sa(dp20
g6
L-11L
sg7
L10L
sa(dp21
g6
L586L
sg7
L10L
sa(dp22
g6
L596L
sg7
L10L
sass."
EndChar

